%TF.GenerationSoftware,KiCad,Pcbnew,10.0.4*%
%TF.CreationDate,2026-06-26T14:32:19+02:00*%
%TF.ProjectId,ad,61642e6b-6963-4616-945f-706362585858,rev?*%
%TF.SameCoordinates,Original*%
%TF.FileFunction,Copper,L2,Bot*%
%TF.FilePolarity,Positive*%
%FSLAX46Y46*%
G04 Gerber Fmt 4.6, Leading zero omitted, Abs format (unit mm)*
G04 Created by KiCad (PCBNEW 10.0.4) date 2026-06-26 14:32:19*
%MOMM*%
%LPD*%
G01*
G04 APERTURE LIST*
G04 Aperture macros list*
%AMRoundRect*
0 Rectangle with rounded corners*
0 $1 Rounding radius*
0 $2 $3 $4 $5 $6 $7 $8 $9 X,Y pos of 4 corners*
0 Add a 4 corners polygon primitive as box body*
4,1,4,$2,$3,$4,$5,$6,$7,$8,$9,$2,$3,0*
0 Add four circle primitives for the rounded corners*
1,1,$1+$1,$2,$3*
1,1,$1+$1,$4,$5*
1,1,$1+$1,$6,$7*
1,1,$1+$1,$8,$9*
0 Add four rect primitives between the rounded corners*
20,1,$1+$1,$2,$3,$4,$5,0*
20,1,$1+$1,$4,$5,$6,$7,0*
20,1,$1+$1,$6,$7,$8,$9,0*
20,1,$1+$1,$8,$9,$2,$3,0*%
G04 Aperture macros list end*
%TA.AperFunction,ComponentPad*%
%ADD10RoundRect,0.250000X0.725000X-0.600000X0.725000X0.600000X-0.725000X0.600000X-0.725000X-0.600000X0*%
%TD*%
%TA.AperFunction,ComponentPad*%
%ADD11O,1.950000X1.700000*%
%TD*%
%TA.AperFunction,ComponentPad*%
%ADD12C,1.600000*%
%TD*%
%TA.AperFunction,ComponentPad*%
%ADD13RoundRect,0.250000X0.750000X-0.600000X0.750000X0.600000X-0.750000X0.600000X-0.750000X-0.600000X0*%
%TD*%
%TA.AperFunction,ComponentPad*%
%ADD14O,2.000000X1.700000*%
%TD*%
%TA.AperFunction,ComponentPad*%
%ADD15O,9.100000X3.800000*%
%TD*%
%TA.AperFunction,ComponentPad*%
%ADD16RoundRect,0.250000X-0.550000X-0.550000X0.550000X-0.550000X0.550000X0.550000X-0.550000X0.550000X0*%
%TD*%
%TA.AperFunction,ComponentPad*%
%ADD17C,6.451600*%
%TD*%
%TA.AperFunction,ComponentPad*%
%ADD18R,2.000000X1.905000*%
%TD*%
%TA.AperFunction,ComponentPad*%
%ADD19O,2.000000X1.905000*%
%TD*%
%TA.AperFunction,ComponentPad*%
%ADD20RoundRect,0.250000X-0.725000X0.600000X-0.725000X-0.600000X0.725000X-0.600000X0.725000X0.600000X0*%
%TD*%
%TA.AperFunction,ComponentPad*%
%ADD21RoundRect,0.250000X-0.550000X0.550000X-0.550000X-0.550000X0.550000X-0.550000X0.550000X0.550000X0*%
%TD*%
%TA.AperFunction,ComponentPad*%
%ADD22RoundRect,0.250000X0.550000X-0.550000X0.550000X0.550000X-0.550000X0.550000X-0.550000X-0.550000X0*%
%TD*%
%TA.AperFunction,ComponentPad*%
%ADD23R,2.000000X1.200000*%
%TD*%
%TA.AperFunction,ComponentPad*%
%ADD24O,2.000000X1.200000*%
%TD*%
%TA.AperFunction,ComponentPad*%
%ADD25C,2.000000*%
%TD*%
%TA.AperFunction,ComponentPad*%
%ADD26R,1.600000X1.600000*%
%TD*%
%TA.AperFunction,ComponentPad*%
%ADD27O,1.600000X1.600000*%
%TD*%
%TA.AperFunction,ViaPad*%
%ADD28C,1.000000*%
%TD*%
%TA.AperFunction,Conductor*%
%ADD29C,0.500000*%
%TD*%
G04 APERTURE END LIST*
D10*
%TO.P,J13,1,Pin_1_1*%
%TO.N,+5V*%
X132500000Y-82000000D03*
D11*
%TO.P,J13,2,Pin_2_2*%
%TO.N,GND*%
X132500000Y-79500000D03*
%TO.P,J13,3,Pin_3_3*%
X132500000Y-77000000D03*
%TO.P,J13,4,Pin_4_4*%
%TO.N,Net-(J13-Pin_4)*%
X132500000Y-74500000D03*
%TD*%
D12*
%TO.P,J5,1,Pin_1_1*%
%TO.N,GND*%
X50000000Y-50500000D03*
%TD*%
D13*
%TO.P,J10,1,Pin_1_1*%
%TO.N,Net-(J10-Pin_1)*%
X129750000Y-112500000D03*
D14*
%TO.P,J10,2,Pin_2_2*%
%TO.N,GND*%
X129750000Y-110000000D03*
%TD*%
D15*
%TO.P,F1,1*%
%TO.N,Net-(J1-Pin_1)*%
X63750000Y-43500000D03*
%TO.P,F1,2*%
%TO.N,+24V*%
X73250000Y-43500000D03*
%TD*%
%TO.P,F2,1*%
%TO.N,Net-(J1-Pin_1)*%
X63750000Y-33750000D03*
%TO.P,F2,2*%
%TO.N,Net-(U2-+Vin)*%
X73250000Y-33750000D03*
%TD*%
D16*
%TO.P,C1,1*%
%TO.N,+5V*%
X128000000Y-48437000D03*
D12*
%TO.P,C1,2*%
%TO.N,GND*%
X131500000Y-48437000D03*
%TD*%
D17*
%TO.P,J1,1,Pin_1_1*%
%TO.N,Net-(J1-Pin_1)*%
X50750000Y-35313000D03*
%TO.P,J1,2,Pin_2_2*%
%TO.N,GND*%
X51174180Y-42425000D03*
%TD*%
D10*
%TO.P,J12,1,Pin_1_1*%
%TO.N,+5V*%
X134250000Y-65000000D03*
D11*
%TO.P,J12,2,Pin_2_2*%
%TO.N,GND*%
X134250000Y-62500000D03*
%TO.P,J12,3,Pin_3_3*%
X134250000Y-60000000D03*
%TO.P,J12,4,Pin_4_4*%
%TO.N,Net-(J12-Pin_4)*%
X134250000Y-57500000D03*
%TD*%
D10*
%TO.P,J9,1,Pin_1_1*%
%TO.N,Net-(J9-Pin_1)*%
X118475000Y-81250000D03*
D11*
%TO.P,J9,2,Pin_2_2*%
%TO.N,GND*%
X118475000Y-78750000D03*
%TO.P,J9,3,Pin_3_3*%
%TO.N,+5V*%
X118475000Y-76250000D03*
%TD*%
D12*
%TO.P,J3,1,Pin_1_1*%
%TO.N,Net-(A1-MS1)*%
X59000000Y-50500000D03*
%TD*%
%TO.P,J4,1,Pin_1_1*%
%TO.N,Net-(A1-MS2)*%
X54500000Y-50500000D03*
%TD*%
D18*
%TO.P,U3,1,VI_1*%
%TO.N,+5V*%
X136000000Y-36420000D03*
D19*
%TO.P,U3,2,GND_2*%
%TO.N,GND*%
X136000000Y-38960000D03*
%TO.P,U3,3,VO_3*%
%TO.N,+3.3V*%
X136000000Y-41500000D03*
%TD*%
D20*
%TO.P,J8,1,Pin_1_1*%
%TO.N,SIGNAL_SERVO*%
X70500000Y-84500000D03*
D11*
%TO.P,J8,2,Pin_2_2*%
%TO.N,GND*%
X70500000Y-87000000D03*
%TO.P,J8,3,Pin_3_3*%
%TO.N,+5V*%
X70500000Y-89500000D03*
%TD*%
D21*
%TO.P,C5,1*%
%TO.N,+24V*%
X71500000Y-51597349D03*
D12*
%TO.P,C5,2*%
%TO.N,GND*%
X71500000Y-55097349D03*
%TD*%
D22*
%TO.P,U4,1*%
%TO.N,+2V*%
X119940000Y-102805000D03*
D12*
%TO.P,U4,2,-_2*%
X122480000Y-102805000D03*
%TO.P,U4,3,+_3*%
%TO.N,Net-(U4A-+)*%
X125020000Y-102805000D03*
%TO.P,U4,4,V-_4*%
%TO.N,GND*%
X127560000Y-102805000D03*
%TO.P,U4,5,+_5*%
%TO.N,Net-(U4B-+)*%
X127560000Y-95185000D03*
%TO.P,U4,6,-_6*%
%TO.N,Net-(U4B--)*%
X125020000Y-95185000D03*
%TO.P,U4,7*%
%TO.N,Net-(R12-Pad2)*%
X122480000Y-95185000D03*
%TO.P,U4,8,V+_8*%
%TO.N,+5V*%
X119940000Y-95185000D03*
%TD*%
D16*
%TO.P,C10,1*%
%TO.N,+3.3V*%
X76500000Y-63500000D03*
D12*
%TO.P,C10,2*%
%TO.N,GND*%
X78500000Y-63500000D03*
%TD*%
D16*
%TO.P,C3,1*%
%TO.N,+3.3V*%
X126097349Y-29500000D03*
D12*
%TO.P,C3,2*%
%TO.N,GND*%
X129597349Y-29500000D03*
%TD*%
%TO.P,J6,1,Pin_1_1*%
%TO.N,GND*%
X45500000Y-50500000D03*
%TD*%
D23*
%TO.P,U1,1,3V3_1*%
%TO.N,+3.3V*%
X80300000Y-69596560D03*
D24*
%TO.P,U1,2,CHIP_PU_2*%
%TO.N,unconnected-(U1-CHIP_PU-Pad2)*%
X80300000Y-72136560D03*
%TO.P,U1,3,SENSOR_VP/GPIO36/ADC1_CH0_3*%
%TO.N,SIGNAL_LEVEL1*%
X80300000Y-74676560D03*
%TO.P,U1,4,SENSOR_VN/GPIO39/ADC1_CH3_4*%
%TO.N,SIGNAL_NTC*%
X80300000Y-77216560D03*
%TO.P,U1,5,VDET_1/GPIO34/ADC1_CH6_5*%
%TO.N,DIAG_TMC0*%
X80300000Y-79756560D03*
%TO.P,U1,6,VDET_2/GPIO35/ADC1_CH7_6*%
%TO.N,DIAG_TMC1*%
X80300000Y-82296560D03*
%TO.P,U1,7,32K_XP/GPIO32/ADC1_CH4_7*%
%TO.N,SIGNAL_SERVO*%
X80300000Y-84836560D03*
%TO.P,U1,8,32K_XN/GPIO33/ADC1_CH5_8*%
%TO.N,unconnected-(U1-32K_XN{slash}GPIO33{slash}ADC1_CH5-Pad8)*%
X80300000Y-87376560D03*
%TO.P,U1,9,DAC_1/ADC2_CH8/GPIO25_9*%
%TO.N,DIR_TMC*%
X80300000Y-89916560D03*
%TO.P,U1,10,DAC_2/ADC2_CH9/GPIO26_10*%
%TO.N,SIGNAL_PH*%
X80300000Y-92456560D03*
%TO.P,U1,11,ADC2_CH7/GPIO27_11*%
%TO.N,SIGNAL_LEVEL2*%
X80300000Y-94996560D03*
%TO.P,U1,12,MTMS/GPIO14/ADC2_CH6_12*%
%TO.N,unconnected-(U1-MTMS{slash}GPIO14{slash}ADC2_CH6-Pad12)*%
X80300000Y-97536560D03*
%TO.P,U1,13,MTDI/GPIO12/ADC2_CH5_13*%
%TO.N,unconnected-(U1-MTDI{slash}GPIO12{slash}ADC2_CH5-Pad13)*%
X80300000Y-100076560D03*
%TO.P,U1,14,GND_14*%
%TO.N,GND*%
X80300000Y-102616560D03*
%TO.P,U1,15,MTCK/GPIO13/ADC2_CH4_15*%
%TO.N,unconnected-(U1-MTCK{slash}GPIO13{slash}ADC2_CH4-Pad15)*%
X80300000Y-105156560D03*
%TO.P,U1,16,SD_DATA2/GPIO9_16*%
%TO.N,unconnected-(U1-SD_DATA2{slash}GPIO9-Pad16)*%
X80300000Y-107696560D03*
%TO.P,U1,17,SD_DATA3/GPIO10_17*%
%TO.N,unconnected-(U1-SD_DATA3{slash}GPIO10-Pad17)*%
X80300000Y-110236560D03*
%TO.P,U1,18,CMD_18*%
%TO.N,unconnected-(U1-CMD-Pad18)*%
X80300000Y-112776560D03*
%TO.P,U1,19,5V_19*%
%TO.N,unconnected-(U1-5V-Pad19)*%
X80300000Y-115316560D03*
%TO.P,U1,20,SD_CLK/GPIO6_20*%
%TO.N,unconnected-(U1-SD_CLK{slash}GPIO6-Pad20)*%
X105696320Y-115313840D03*
%TO.P,U1,21,SD_DATA0/GPIO7_21*%
%TO.N,unconnected-(U1-SD_DATA0{slash}GPIO7-Pad21)*%
X105696320Y-112773840D03*
%TO.P,U1,22,SD_DATA1/GPIO8_22*%
%TO.N,unconnected-(U1-SD_DATA1{slash}GPIO8-Pad22)*%
X105700000Y-110236560D03*
%TO.P,U1,23,MTDO/GPIO15/ADC2_CH3_23*%
%TO.N,unconnected-(U1-MTDO{slash}GPIO15{slash}ADC2_CH3-Pad23)*%
X105700000Y-107696560D03*
%TO.P,U1,24,ADC2_CH2/GPIO2_24*%
%TO.N,unconnected-(U1-ADC2_CH2{slash}GPIO2-Pad24)*%
X105700000Y-105156560D03*
%TO.P,U1,25,GPIO0/BOOT/ADC2_CH1_25*%
%TO.N,unconnected-(U1-GPIO0{slash}BOOT{slash}ADC2_CH1-Pad25)*%
X105700000Y-102616560D03*
%TO.P,U1,26,ADC2_CH0/GPIO4_26*%
%TO.N,SIGNAL_FLOW*%
X105700000Y-100076560D03*
%TO.P,U1,27,GPIO16_27*%
%TO.N,RX_TMC*%
X105700000Y-97536560D03*
%TO.P,U1,28,GPIO17_28*%
%TO.N,Net-(U1-GPIO17)*%
X105700000Y-94996560D03*
%TO.P,U1,29,GPIO5_29*%
%TO.N,unconnected-(U1-GPIO5-Pad29)*%
X105700000Y-92456560D03*
%TO.P,U1,30,GPIO18_30*%
%TO.N,STEP_TMC*%
X105700000Y-89916560D03*
%TO.P,U1,31,GPIO19_31*%
%TO.N,EN_TMC*%
X105700000Y-87376560D03*
%TO.P,U1,32,GND_32*%
%TO.N,GND*%
X105700000Y-84836560D03*
%TO.P,U1,33,GPIO21_33*%
%TO.N,unconnected-(U1-GPIO21-Pad33)*%
X105700000Y-82296560D03*
%TO.P,U1,34,U0RXD/GPIO3_34*%
%TO.N,unconnected-(U1-U0RXD{slash}GPIO3-Pad34)*%
X105700000Y-79756560D03*
%TO.P,U1,35,U0TXD/GPIO1_35*%
%TO.N,unconnected-(U1-U0TXD{slash}GPIO1-Pad35)*%
X105700000Y-77216560D03*
%TO.P,U1,36,GPIO22_36*%
%TO.N,unconnected-(U1-GPIO22-Pad36)*%
X105700000Y-74676560D03*
%TO.P,U1,37,GPIO23_37*%
%TO.N,unconnected-(U1-GPIO23-Pad37)*%
X105700000Y-72136560D03*
%TO.P,U1,38,GND_38*%
%TO.N,GND*%
X105700000Y-69596560D03*
%TD*%
D22*
%TO.P,C6,1*%
%TO.N,+5V*%
X115000000Y-94750000D03*
D12*
%TO.P,C6,2*%
%TO.N,GND*%
X115000000Y-92750000D03*
%TD*%
D20*
%TO.P,J2,1,Pin_1_1*%
%TO.N,Net-(A1-A2)*%
X70500000Y-62250000D03*
D11*
%TO.P,J2,2,Pin_2_2*%
%TO.N,Net-(A1-A1)*%
X70500000Y-64750000D03*
%TO.P,J2,3,Pin_3_3*%
%TO.N,Net-(A1-B1)*%
X70500000Y-67250000D03*
%TO.P,J2,4,Pin_4_4*%
%TO.N,Net-(A1-B2)*%
X70500000Y-69750000D03*
%TD*%
D25*
%TO.P,U2,1,+Vin_1*%
%TO.N,Net-(U2-+Vin)*%
X82000000Y-28687000D03*
%TO.P,U2,2,-Vin_2*%
%TO.N,GND*%
X82000000Y-46687000D03*
%TO.P,U2,4,-Vout_4*%
X122000000Y-46687000D03*
%TO.P,U2,6,+Vout_6*%
%TO.N,+5V*%
X122000000Y-28687000D03*
%TD*%
D10*
%TO.P,J7,1,Pin_1_1*%
%TO.N,SIGNAL_FLOW*%
X118750000Y-63750000D03*
D11*
%TO.P,J7,2,Pin_2_2*%
%TO.N,GND*%
X118750000Y-61250000D03*
%TO.P,J7,3,Pin_3_3*%
%TO.N,+5V*%
X118750000Y-58750000D03*
%TD*%
D26*
%TO.P,A1,1,EN_1*%
%TO.N,EN_TMC*%
X47300000Y-55527000D03*
D27*
%TO.P,A1,2,MS1_2*%
%TO.N,Net-(A1-MS1)*%
X47300000Y-58067000D03*
%TO.P,A1,3,MS2_3*%
%TO.N,Net-(A1-MS2)*%
X47300000Y-60607000D03*
%TO.P,A1,4,RX_4*%
%TO.N,RX_TMC*%
X47300000Y-63147000D03*
%TO.P,A1,5,TX_5*%
%TO.N,unconnected-(A1-TX-Pad5)*%
X47300000Y-65687000D03*
%TO.P,A1,6,CLK_6*%
%TO.N,unconnected-(A1-CLK-Pad6)*%
X47300000Y-68227000D03*
%TO.P,A1,7,STEP_7*%
%TO.N,STEP_TMC*%
X47300000Y-70767000D03*
%TO.P,A1,8,DIR_8*%
%TO.N,DIR_TMC*%
X47300000Y-73307000D03*
%TO.P,A1,9,GND_9*%
%TO.N,GND*%
X60000000Y-73307000D03*
%TO.P,A1,10,VDD_10*%
%TO.N,+3.3V*%
X60000000Y-70767000D03*
%TO.P,A1,11,B2_11*%
%TO.N,Net-(A1-B2)*%
X60000000Y-68227000D03*
%TO.P,A1,12,B1_12*%
%TO.N,Net-(A1-B1)*%
X60000000Y-65687000D03*
%TO.P,A1,13,A1_13*%
%TO.N,Net-(A1-A1)*%
X60000000Y-63147000D03*
%TO.P,A1,14,A2_14*%
%TO.N,Net-(A1-A2)*%
X60000000Y-60607000D03*
%TO.P,A1,15,GND_15*%
%TO.N,GND*%
X60000000Y-58067000D03*
%TO.P,A1,16,VM_16*%
%TO.N,+24V*%
X60000000Y-55527000D03*
%TO.P,A1,17,DIAG0_17*%
%TO.N,DIAG_TMC0*%
X49840000Y-55527000D03*
%TO.P,A1,18,DIAG1_18*%
%TO.N,DIAG_TMC1*%
X52380000Y-55527000D03*
%TD*%
D28*
%TO.N,EN_TMC*%
X100500000Y-87500000D03*
X84500000Y-83000000D03*
%TO.N,SIGNAL_NTC*%
X111500000Y-88000000D03*
%TO.N,DIAG_TMC1*%
X83000000Y-80000000D03*
%TO.N,+2V*%
X124500000Y-111000000D03*
%TO.N,SIGNAL_LEVEL1*%
X124000000Y-80500000D03*
%TD*%
%TO.N,SIGNAL_FLOW*%
D29*
X120750000Y-63750000D02*
X118750000Y-63750000D01*
X117500000Y-97500000D02*
X117500000Y-90500000D01*
X117500000Y-90500000D02*
X127000000Y-81000000D01*
X114923440Y-100076560D02*
X117500000Y-97500000D01*
X127000000Y-81000000D02*
X127000000Y-70000000D01*
X105700000Y-100076560D02*
X114923440Y-100076560D01*
X127000000Y-70000000D02*
X120750000Y-63750000D01*
%TO.N,EN_TMC*%
X89000000Y-87500000D02*
X100500000Y-87500000D01*
X84500000Y-83000000D02*
X89000000Y-87500000D01*
%TO.N,STEP_TMC*%
X48651700Y-70767000D02*
X47300000Y-70767000D01*
X75366560Y-78366560D02*
X73000000Y-76000000D01*
X73000000Y-76000000D02*
X53884700Y-76000000D01*
X97366560Y-78366560D02*
X75366560Y-78366560D01*
X53884700Y-76000000D02*
X48651700Y-70767000D01*
X102500000Y-89000000D02*
X102500000Y-83500000D01*
X102500000Y-83500000D02*
X97366560Y-78366560D01*
X103416560Y-89916560D02*
X102500000Y-89000000D01*
X105700000Y-89916560D02*
X103416560Y-89916560D01*
%TO.N,SIGNAL_NTC*%
X80316560Y-77200000D02*
X80300000Y-77216560D01*
X97700000Y-77200000D02*
X80316560Y-77200000D01*
X104000000Y-83500000D02*
X97700000Y-77200000D01*
X111500000Y-88000000D02*
X107000000Y-83500000D01*
X107000000Y-83500000D02*
X104000000Y-83500000D01*
%TO.N,RX_TMC*%
X50000000Y-65847000D02*
X47300000Y-63147000D01*
X50000000Y-70500000D02*
X50000000Y-65847000D01*
X54500000Y-75000000D02*
X50000000Y-70500000D01*
X73673440Y-75000000D02*
X54500000Y-75000000D01*
X107326560Y-75826560D02*
X74500000Y-75826560D01*
X113000000Y-81500000D02*
X107326560Y-75826560D01*
X113000000Y-92000000D02*
X113000000Y-81500000D01*
X74500000Y-75826560D02*
X73673440Y-75000000D01*
X107500000Y-97500000D02*
X113000000Y-92000000D01*
X106963440Y-97536560D02*
X107000000Y-97500000D01*
X107000000Y-97500000D02*
X107500000Y-97500000D01*
X105700000Y-97536560D02*
X106963440Y-97536560D01*
%TO.N,SIGNAL_LEVEL1*%
X121000000Y-83500000D02*
X124000000Y-80500000D01*
X116549786Y-83500000D02*
X121000000Y-83500000D01*
X103000000Y-73500000D02*
X106549786Y-73500000D01*
X106549786Y-73500000D02*
X116549786Y-83500000D01*
X101823440Y-74676560D02*
X103000000Y-73500000D01*
X80300000Y-74676560D02*
X101823440Y-74676560D01*
%TO.N,DIAG_TMC1*%
X82203440Y-82296560D02*
X83000000Y-81500000D01*
X83000000Y-81500000D02*
X83000000Y-80000000D01*
X80300000Y-82296560D02*
X82203440Y-82296560D01*
%TO.N,DIR_TMC*%
X53000000Y-77000000D02*
X49307000Y-73307000D01*
X72500000Y-77000000D02*
X53000000Y-77000000D01*
X49307000Y-73307000D02*
X47300000Y-73307000D01*
X77500000Y-82000000D02*
X72500000Y-77000000D01*
X78916560Y-89916560D02*
X77500000Y-88500000D01*
X80300000Y-89916560D02*
X78916560Y-89916560D01*
X77500000Y-88500000D02*
X77500000Y-82000000D01*
%TO.N,Net-(A1-MS2)*%
X60000000Y-48000000D02*
X57000000Y-48000000D01*
X61500000Y-49500000D02*
X60000000Y-48000000D01*
X57000000Y-48000000D02*
X54500000Y-50500000D01*
X61500000Y-51000000D02*
X61500000Y-49500000D01*
X51893000Y-60607000D02*
X61500000Y-51000000D01*
X47300000Y-60607000D02*
X51893000Y-60607000D01*
%TO.N,Net-(A1-MS1)*%
X59000000Y-51500000D02*
X59000000Y-50500000D01*
X52433000Y-58067000D02*
X59000000Y-51500000D01*
X47300000Y-58067000D02*
X52433000Y-58067000D01*
%TO.N,+3.3V*%
X126097349Y-33597349D02*
X126097349Y-29500000D01*
X136000000Y-41500000D02*
X134000000Y-41500000D01*
X134000000Y-41500000D02*
X126097349Y-33597349D01*
%TO.N,+2V*%
X119940000Y-104940000D02*
X119940000Y-102805000D01*
X124500000Y-109500000D02*
X119940000Y-104940000D01*
X124500000Y-111000000D02*
X124500000Y-109500000D01*
%TD*%
%TA.AperFunction,Conductor*%
%TO.N,GND*%
G36*
X58686289Y-54977592D02*
G01*
X58742222Y-55019464D01*
X58766639Y-55084928D01*
X58760886Y-55132091D01*
X58731524Y-55222457D01*
X58731523Y-55222464D01*
X58699500Y-55424648D01*
X58699500Y-55629351D01*
X58731522Y-55831534D01*
X58794781Y-56026223D01*
X58887715Y-56208613D01*
X59008028Y-56374213D01*
X59152786Y-56518971D01*
X59307749Y-56631556D01*
X59318390Y-56639287D01*
X59390424Y-56675990D01*
X59411629Y-56686795D01*
X59462425Y-56734770D01*
X59479220Y-56802591D01*
X59456682Y-56868726D01*
X59411629Y-56907765D01*
X59318650Y-56955140D01*
X59153105Y-57075417D01*
X59153104Y-57075417D01*
X59008417Y-57220104D01*
X59008417Y-57220105D01*
X58888140Y-57385650D01*
X58795244Y-57567970D01*
X58732009Y-57762586D01*
X58723391Y-57817000D01*
X59684314Y-57817000D01*
X59679920Y-57821394D01*
X59627259Y-57912606D01*
X59600000Y-58014339D01*
X59600000Y-58119661D01*
X59627259Y-58221394D01*
X59679920Y-58312606D01*
X59684314Y-58317000D01*
X58723391Y-58317000D01*
X58732009Y-58371413D01*
X58795244Y-58566029D01*
X58888140Y-58748349D01*
X59008417Y-58913894D01*
X59008417Y-58913895D01*
X59153104Y-59058582D01*
X59318652Y-59178861D01*
X59411628Y-59226234D01*
X59462425Y-59274208D01*
X59479220Y-59342029D01*
X59456683Y-59408164D01*
X59411630Y-59447203D01*
X59318388Y-59494713D01*
X59152786Y-59615028D01*
X59008028Y-59759786D01*
X58887715Y-59925386D01*
X58794781Y-60107776D01*
X58731522Y-60302465D01*
X58699500Y-60504648D01*
X58699500Y-60709351D01*
X58731522Y-60911534D01*
X58794781Y-61106223D01*
X58855493Y-61225375D01*
X58880587Y-61274625D01*
X58887715Y-61288613D01*
X59008028Y-61454213D01*
X59152786Y-61598971D01*
X59281699Y-61692630D01*
X59318390Y-61719287D01*
X59409840Y-61765883D01*
X59411080Y-61766515D01*
X59461876Y-61814490D01*
X59478671Y-61882311D01*
X59456134Y-61948446D01*
X59411080Y-61987485D01*
X59318386Y-62034715D01*
X59152786Y-62155028D01*
X59008028Y-62299786D01*
X58887715Y-62465386D01*
X58794781Y-62647776D01*
X58731522Y-62842465D01*
X58699500Y-63044648D01*
X58699500Y-63249351D01*
X58731522Y-63451534D01*
X58794781Y-63646223D01*
X58828068Y-63711551D01*
X58876849Y-63807289D01*
X58887715Y-63828613D01*
X59008028Y-63994213D01*
X59152786Y-64138971D01*
X59301758Y-64247203D01*
X59318390Y-64259287D01*
X59409840Y-64305883D01*
X59411080Y-64306515D01*
X59461876Y-64354490D01*
X59478671Y-64422311D01*
X59456134Y-64488446D01*
X59411080Y-64527485D01*
X59318386Y-64574715D01*
X59152786Y-64695028D01*
X59008028Y-64839786D01*
X58887715Y-65005386D01*
X58794781Y-65187776D01*
X58731522Y-65382465D01*
X58699500Y-65584648D01*
X58699500Y-65789351D01*
X58731522Y-65991534D01*
X58794781Y-66186223D01*
X58845017Y-66284814D01*
X58878485Y-66350500D01*
X58887715Y-66368613D01*
X59008028Y-66534213D01*
X59152786Y-66678971D01*
X59307749Y-66791556D01*
X59318390Y-66799287D01*
X59409840Y-66845883D01*
X59411080Y-66846515D01*
X59461876Y-66894490D01*
X59478671Y-66962311D01*
X59456134Y-67028446D01*
X59411080Y-67067485D01*
X59318386Y-67114715D01*
X59152786Y-67235028D01*
X59008028Y-67379786D01*
X58887715Y-67545386D01*
X58794781Y-67727776D01*
X58731522Y-67922465D01*
X58699500Y-68124648D01*
X58699500Y-68329351D01*
X58731522Y-68531534D01*
X58794781Y-68726223D01*
X58858691Y-68851653D01*
X58877760Y-68889077D01*
X58887715Y-68908613D01*
X59008028Y-69074213D01*
X59152786Y-69218971D01*
X59307749Y-69331556D01*
X59318390Y-69339287D01*
X59409840Y-69385883D01*
X59411080Y-69386515D01*
X59461876Y-69434490D01*
X59478671Y-69502311D01*
X59456134Y-69568446D01*
X59411080Y-69607485D01*
X59318386Y-69654715D01*
X59152786Y-69775028D01*
X59008028Y-69919786D01*
X58887715Y-70085386D01*
X58794781Y-70267776D01*
X58731522Y-70462465D01*
X58699500Y-70664648D01*
X58699500Y-70869351D01*
X58731522Y-71071534D01*
X58794781Y-71266223D01*
X58858691Y-71391653D01*
X58872946Y-71419629D01*
X58887715Y-71448613D01*
X59008028Y-71614213D01*
X59152786Y-71758971D01*
X59307749Y-71871556D01*
X59318390Y-71879287D01*
X59390424Y-71915990D01*
X59411629Y-71926795D01*
X59462425Y-71974770D01*
X59479220Y-72042591D01*
X59456682Y-72108726D01*
X59411629Y-72147765D01*
X59318650Y-72195140D01*
X59153105Y-72315417D01*
X59153104Y-72315417D01*
X59008417Y-72460104D01*
X59008417Y-72460105D01*
X58888140Y-72625650D01*
X58795244Y-72807970D01*
X58732009Y-73002586D01*
X58723391Y-73057000D01*
X59684314Y-73057000D01*
X59679920Y-73061394D01*
X59627259Y-73152606D01*
X59600000Y-73254339D01*
X59600000Y-73359661D01*
X59627259Y-73461394D01*
X59679920Y-73552606D01*
X59684314Y-73557000D01*
X58723391Y-73557000D01*
X58732009Y-73611413D01*
X58795244Y-73806029D01*
X58888140Y-73988349D01*
X58934832Y-74052614D01*
X58958312Y-74118420D01*
X58942487Y-74186474D01*
X58892381Y-74235169D01*
X58834514Y-74249500D01*
X54862230Y-74249500D01*
X54795191Y-74229815D01*
X54774549Y-74213181D01*
X50786819Y-70225451D01*
X50753334Y-70164128D01*
X50750500Y-70137770D01*
X50750500Y-65773080D01*
X50741035Y-65725501D01*
X50741035Y-65725500D01*
X50721659Y-65628088D01*
X50667408Y-65497117D01*
X50665764Y-65492522D01*
X50582954Y-65368588D01*
X50582953Y-65368587D01*
X50582951Y-65368584D01*
X50478416Y-65264049D01*
X48626473Y-63412106D01*
X48592988Y-63350783D01*
X48591681Y-63305028D01*
X48600500Y-63249352D01*
X48600500Y-63044648D01*
X48593349Y-62999500D01*
X48568477Y-62842465D01*
X48516125Y-62681344D01*
X48505220Y-62647781D01*
X48505218Y-62647778D01*
X48505218Y-62647776D01*
X48459111Y-62557288D01*
X48412287Y-62465390D01*
X48393221Y-62439148D01*
X48291971Y-62299786D01*
X48147213Y-62155028D01*
X47981614Y-62034715D01*
X47962547Y-62025000D01*
X47888917Y-61987483D01*
X47838123Y-61939511D01*
X47821328Y-61871690D01*
X47843865Y-61805555D01*
X47888917Y-61766516D01*
X47981610Y-61719287D01*
X48018301Y-61692630D01*
X48147213Y-61598971D01*
X48147215Y-61598968D01*
X48147219Y-61598966D01*
X48291966Y-61454219D01*
X48294650Y-61450524D01*
X48325100Y-61408615D01*
X48380429Y-61365949D01*
X48425418Y-61357500D01*
X51966920Y-61357500D01*
X52101833Y-61330663D01*
X52111913Y-61328658D01*
X52248495Y-61272084D01*
X52297729Y-61239186D01*
X52318400Y-61225375D01*
X52348876Y-61205012D01*
X52371416Y-61189952D01*
X58555276Y-55006091D01*
X58616597Y-54972608D01*
X58686289Y-54977592D01*
G37*
%TD.AperFunction*%
%TA.AperFunction,Conductor*%
G36*
X132750000Y-79095854D02*
G01*
X132683343Y-79057370D01*
X132562535Y-79025000D01*
X132437465Y-79025000D01*
X132316657Y-79057370D01*
X132250000Y-79095854D01*
X132250000Y-77404145D01*
X132316657Y-77442630D01*
X132437465Y-77475000D01*
X132562535Y-77475000D01*
X132683343Y-77442630D01*
X132750000Y-77404145D01*
X132750000Y-79095854D01*
G37*
%TD.AperFunction*%
%TA.AperFunction,Conductor*%
G36*
X134500000Y-62095854D02*
G01*
X134433343Y-62057370D01*
X134312535Y-62025000D01*
X134187465Y-62025000D01*
X134066657Y-62057370D01*
X134000000Y-62095854D01*
X134000000Y-60404145D01*
X134066657Y-60442630D01*
X134187465Y-60475000D01*
X134312535Y-60475000D01*
X134433343Y-60442630D01*
X134500000Y-60404145D01*
X134500000Y-62095854D01*
G37*
%TD.AperFunction*%
%TA.AperFunction,Conductor*%
G36*
X140942539Y-23770185D02*
G01*
X140988294Y-23822989D01*
X140999500Y-23874500D01*
X140999500Y-122625500D01*
X140979815Y-122692539D01*
X140927011Y-122738294D01*
X140875500Y-122749500D01*
X42124500Y-122749500D01*
X42057461Y-122729815D01*
X42011706Y-122677011D01*
X42000500Y-122625500D01*
X42000500Y-118378711D01*
X44399500Y-118378711D01*
X44399500Y-118621288D01*
X44431161Y-118861785D01*
X44493947Y-119096104D01*
X44586773Y-119320205D01*
X44586776Y-119320212D01*
X44708064Y-119530289D01*
X44708066Y-119530292D01*
X44708067Y-119530293D01*
X44855733Y-119722736D01*
X44855739Y-119722743D01*
X45027256Y-119894260D01*
X45027262Y-119894265D01*
X45219711Y-120041936D01*
X45429788Y-120163224D01*
X45653900Y-120256054D01*
X45888211Y-120318838D01*
X46068586Y-120342584D01*
X46128711Y-120350500D01*
X46128712Y-120350500D01*
X46371289Y-120350500D01*
X46419388Y-120344167D01*
X46611789Y-120318838D01*
X46846100Y-120256054D01*
X47070212Y-120163224D01*
X47280289Y-120041936D01*
X47472738Y-119894265D01*
X47644265Y-119722738D01*
X47791936Y-119530289D01*
X47913224Y-119320212D01*
X48006054Y-119096100D01*
X48068838Y-118861789D01*
X48100500Y-118621288D01*
X48100500Y-118378712D01*
X48100500Y-118378711D01*
X134899500Y-118378711D01*
X134899500Y-118621288D01*
X134931161Y-118861785D01*
X134993947Y-119096104D01*
X135086773Y-119320205D01*
X135086776Y-119320212D01*
X135208064Y-119530289D01*
X135208066Y-119530292D01*
X135208067Y-119530293D01*
X135355733Y-119722736D01*
X135355739Y-119722743D01*
X135527256Y-119894260D01*
X135527262Y-119894265D01*
X135719711Y-120041936D01*
X135929788Y-120163224D01*
X136153900Y-120256054D01*
X136388211Y-120318838D01*
X136568586Y-120342584D01*
X136628711Y-120350500D01*
X136628712Y-120350500D01*
X136871289Y-120350500D01*
X136919388Y-120344167D01*
X137111789Y-120318838D01*
X137346100Y-120256054D01*
X137570212Y-120163224D01*
X137780289Y-120041936D01*
X137972738Y-119894265D01*
X138144265Y-119722738D01*
X138291936Y-119530289D01*
X138413224Y-119320212D01*
X138506054Y-119096100D01*
X138568838Y-118861789D01*
X138600500Y-118621288D01*
X138600500Y-118378712D01*
X138568838Y-118138211D01*
X138506054Y-117903900D01*
X138413224Y-117679788D01*
X138291936Y-117469711D01*
X138144265Y-117277262D01*
X138144260Y-117277256D01*
X137972743Y-117105739D01*
X137972736Y-117105733D01*
X137780293Y-116958067D01*
X137780292Y-116958066D01*
X137780289Y-116958064D01*
X137570212Y-116836776D01*
X137570205Y-116836773D01*
X137346104Y-116743947D01*
X137111785Y-116681161D01*
X136871289Y-116649500D01*
X136871288Y-116649500D01*
X136628712Y-116649500D01*
X136628711Y-116649500D01*
X136388214Y-116681161D01*
X136153895Y-116743947D01*
X135929794Y-116836773D01*
X135929785Y-116836777D01*
X135719706Y-116958067D01*
X135527263Y-117105733D01*
X135527256Y-117105739D01*
X135355739Y-117277256D01*
X135355733Y-117277263D01*
X135208067Y-117469706D01*
X135086777Y-117679785D01*
X135086773Y-117679794D01*
X134993947Y-117903895D01*
X134931161Y-118138214D01*
X134899500Y-118378711D01*
X48100500Y-118378711D01*
X48068838Y-118138211D01*
X48006054Y-117903900D01*
X47913224Y-117679788D01*
X47791936Y-117469711D01*
X47644265Y-117277262D01*
X47644260Y-117277256D01*
X47472743Y-117105739D01*
X47472736Y-117105733D01*
X47280293Y-116958067D01*
X47280292Y-116958066D01*
X47280289Y-116958064D01*
X47070212Y-116836776D01*
X47070205Y-116836773D01*
X46846104Y-116743947D01*
X46611785Y-116681161D01*
X46371289Y-116649500D01*
X46371288Y-116649500D01*
X46128712Y-116649500D01*
X46128711Y-116649500D01*
X45888214Y-116681161D01*
X45653895Y-116743947D01*
X45429794Y-116836773D01*
X45429785Y-116836777D01*
X45219706Y-116958067D01*
X45027263Y-117105733D01*
X45027256Y-117105739D01*
X44855739Y-117277256D01*
X44855733Y-117277263D01*
X44708067Y-117469706D01*
X44586777Y-117679785D01*
X44586773Y-117679794D01*
X44493947Y-117903895D01*
X44431161Y-118138214D01*
X44399500Y-118378711D01*
X42000500Y-118378711D01*
X42000500Y-115229949D01*
X78799500Y-115229949D01*
X78799500Y-115403170D01*
X78826166Y-115571537D01*
X78826598Y-115574261D01*
X78880127Y-115739005D01*
X78958768Y-115893348D01*
X79060586Y-116033488D01*
X79183072Y-116155974D01*
X79323212Y-116257792D01*
X79477555Y-116336433D01*
X79642299Y-116389962D01*
X79813389Y-116417060D01*
X79813390Y-116417060D01*
X80786610Y-116417060D01*
X80786611Y-116417060D01*
X80957701Y-116389962D01*
X81122445Y-116336433D01*
X81276788Y-116257792D01*
X81416928Y-116155974D01*
X81539414Y-116033488D01*
X81641232Y-115893348D01*
X81719873Y-115739005D01*
X81773402Y-115574261D01*
X81800500Y-115403171D01*
X81800500Y-115229949D01*
X81800069Y-115227229D01*
X104195820Y-115227229D01*
X104195820Y-115400451D01*
X104222918Y-115571541D01*
X104276447Y-115736285D01*
X104355088Y-115890628D01*
X104456906Y-116030768D01*
X104579392Y-116153254D01*
X104719532Y-116255072D01*
X104873875Y-116333713D01*
X105038619Y-116387242D01*
X105209709Y-116414340D01*
X105209710Y-116414340D01*
X106182930Y-116414340D01*
X106182931Y-116414340D01*
X106354021Y-116387242D01*
X106518765Y-116333713D01*
X106673108Y-116255072D01*
X106813248Y-116153254D01*
X106935734Y-116030768D01*
X107037552Y-115890628D01*
X107116193Y-115736285D01*
X107169722Y-115571541D01*
X107196820Y-115400451D01*
X107196820Y-115227229D01*
X107169722Y-115056139D01*
X107116193Y-114891395D01*
X107037552Y-114737052D01*
X106935734Y-114596912D01*
X106813248Y-114474426D01*
X106673108Y-114372608D01*
X106518765Y-114293967D01*
X106354021Y-114240438D01*
X106354019Y-114240437D01*
X106354018Y-114240437D01*
X106200104Y-114216060D01*
X106182931Y-114213340D01*
X105209709Y-114213340D01*
X105192536Y-114216060D01*
X105038622Y-114240437D01*
X104873872Y-114293968D01*
X104719531Y-114372608D01*
X104639576Y-114430699D01*
X104579392Y-114474426D01*
X104579390Y-114474428D01*
X104579389Y-114474428D01*
X104456908Y-114596909D01*
X104456908Y-114596910D01*
X104456906Y-114596912D01*
X104454930Y-114599632D01*
X104355088Y-114737051D01*
X104276448Y-114891392D01*
X104222917Y-115056142D01*
X104195820Y-115227229D01*
X81800069Y-115227229D01*
X81773402Y-115058859D01*
X81719873Y-114894115D01*
X81641232Y-114739772D01*
X81539414Y-114599632D01*
X81416928Y-114477146D01*
X81276788Y-114375328D01*
X81122445Y-114296687D01*
X80957701Y-114243158D01*
X80957699Y-114243157D01*
X80957698Y-114243157D01*
X80826271Y-114222341D01*
X80786611Y-114216060D01*
X79813389Y-114216060D01*
X79773728Y-114222341D01*
X79642302Y-114243157D01*
X79477552Y-114296688D01*
X79323211Y-114375328D01*
X79243256Y-114433419D01*
X79183072Y-114477146D01*
X79183070Y-114477148D01*
X79183069Y-114477148D01*
X79060588Y-114599629D01*
X79060588Y-114599630D01*
X79060586Y-114599632D01*
X79016859Y-114659816D01*
X78958768Y-114739771D01*
X78880128Y-114894112D01*
X78826597Y-115058862D01*
X78799500Y-115229949D01*
X42000500Y-115229949D01*
X42000500Y-112689949D01*
X78799500Y-112689949D01*
X78799500Y-112863170D01*
X78826166Y-113031537D01*
X78826598Y-113034261D01*
X78880127Y-113199005D01*
X78958768Y-113353348D01*
X79060586Y-113493488D01*
X79183072Y-113615974D01*
X79323212Y-113717792D01*
X79477555Y-113796433D01*
X79642299Y-113849962D01*
X79813389Y-113877060D01*
X79813390Y-113877060D01*
X80786610Y-113877060D01*
X80786611Y-113877060D01*
X80957701Y-113849962D01*
X81122445Y-113796433D01*
X81276788Y-113717792D01*
X81416928Y-113615974D01*
X81539414Y-113493488D01*
X81641232Y-113353348D01*
X81719873Y-113199005D01*
X81773402Y-113034261D01*
X81800500Y-112863171D01*
X81800500Y-112689949D01*
X81800069Y-112687229D01*
X104195820Y-112687229D01*
X104195820Y-112860451D01*
X104222918Y-113031541D01*
X104276447Y-113196285D01*
X104355088Y-113350628D01*
X104456906Y-113490768D01*
X104579392Y-113613254D01*
X104719532Y-113715072D01*
X104873875Y-113793713D01*
X105038619Y-113847242D01*
X105209709Y-113874340D01*
X105209710Y-113874340D01*
X106182930Y-113874340D01*
X106182931Y-113874340D01*
X106354021Y-113847242D01*
X106518765Y-113793713D01*
X106673108Y-113715072D01*
X106813248Y-113613254D01*
X106935734Y-113490768D01*
X107037552Y-113350628D01*
X107116193Y-113196285D01*
X107169722Y-113031541D01*
X107196820Y-112860451D01*
X107196820Y-112687229D01*
X107169722Y-112516139D01*
X107116193Y-112351395D01*
X107037552Y-112197052D01*
X106935734Y-112056912D01*
X106813248Y-111934426D01*
X106673108Y-111832608D01*
X106518765Y-111753967D01*
X106354021Y-111700438D01*
X106354019Y-111700437D01*
X106354018Y-111700437D01*
X106200104Y-111676060D01*
X106182931Y-111673340D01*
X105209709Y-111673340D01*
X105192536Y-111676060D01*
X105038622Y-111700437D01*
X104873872Y-111753968D01*
X104719531Y-111832608D01*
X104645180Y-111886628D01*
X104579392Y-111934426D01*
X104579390Y-111934428D01*
X104579389Y-111934428D01*
X104456908Y-112056909D01*
X104456908Y-112056910D01*
X104456906Y-112056912D01*
X104454930Y-112059632D01*
X104355088Y-112197051D01*
X104276448Y-112351392D01*
X104222917Y-112516142D01*
X104195820Y-112687229D01*
X81800069Y-112687229D01*
X81773402Y-112518859D01*
X81719873Y-112354115D01*
X81641232Y-112199772D01*
X81539414Y-112059632D01*
X81416928Y-111937146D01*
X81276788Y-111835328D01*
X81122445Y-111756687D01*
X80957701Y-111703158D01*
X80957699Y-111703157D01*
X80957698Y-111703157D01*
X80826271Y-111682341D01*
X80786611Y-111676060D01*
X79813389Y-111676060D01*
X79773728Y-111682341D01*
X79642302Y-111703157D01*
X79477552Y-111756688D01*
X79323211Y-111835328D01*
X79252604Y-111886628D01*
X79183072Y-111937146D01*
X79183070Y-111937148D01*
X79183069Y-111937148D01*
X79060588Y-112059629D01*
X79060588Y-112059630D01*
X79060586Y-112059632D01*
X79016859Y-112119816D01*
X78958768Y-112199771D01*
X78880128Y-112354112D01*
X78826597Y-112518862D01*
X78799500Y-112689949D01*
X42000500Y-112689949D01*
X42000500Y-110149949D01*
X78799500Y-110149949D01*
X78799500Y-110323171D01*
X78826598Y-110494261D01*
X78836936Y-110526079D01*
X78880128Y-110659007D01*
X78905175Y-110708165D01*
X78958768Y-110813348D01*
X79060586Y-110953488D01*
X79183072Y-111075974D01*
X79323212Y-111177792D01*
X79477555Y-111256433D01*
X79642299Y-111309962D01*
X79813389Y-111337060D01*
X79813390Y-111337060D01*
X80786610Y-111337060D01*
X80786611Y-111337060D01*
X80957701Y-111309962D01*
X81122445Y-111256433D01*
X81276788Y-111177792D01*
X81416928Y-111075974D01*
X81539414Y-110953488D01*
X81641232Y-110813348D01*
X81719873Y-110659005D01*
X81773402Y-110494261D01*
X81800500Y-110323171D01*
X81800500Y-110149949D01*
X104199500Y-110149949D01*
X104199500Y-110323171D01*
X104226598Y-110494261D01*
X104236936Y-110526079D01*
X104280128Y-110659007D01*
X104305175Y-110708165D01*
X104358768Y-110813348D01*
X104460586Y-110953488D01*
X104583072Y-111075974D01*
X104723212Y-111177792D01*
X104877555Y-111256433D01*
X105042299Y-111309962D01*
X105213389Y-111337060D01*
X105213390Y-111337060D01*
X106186610Y-111337060D01*
X106186611Y-111337060D01*
X106357701Y-111309962D01*
X106522445Y-111256433D01*
X106676788Y-111177792D01*
X106816928Y-111075974D01*
X106939414Y-110953488D01*
X107041232Y-110813348D01*
X107119873Y-110659005D01*
X107173402Y-110494261D01*
X107200500Y-110323171D01*
X107200500Y-110149949D01*
X107173402Y-109978859D01*
X107119873Y-109814115D01*
X107041232Y-109659772D01*
X106939414Y-109519632D01*
X106816928Y-109397146D01*
X106676788Y-109295328D01*
X106522445Y-109216687D01*
X106357701Y-109163158D01*
X106357699Y-109163157D01*
X106357698Y-109163157D01*
X106226271Y-109142341D01*
X106186611Y-109136060D01*
X105213389Y-109136060D01*
X105173728Y-109142341D01*
X105042302Y-109163157D01*
X104877552Y-109216688D01*
X104723211Y-109295328D01*
X104643256Y-109353419D01*
X104583072Y-109397146D01*
X104583070Y-109397148D01*
X104583069Y-109397148D01*
X104460588Y-109519629D01*
X104460588Y-109519630D01*
X104460586Y-109519632D01*
X104450093Y-109534075D01*
X104358768Y-109659771D01*
X104280128Y-109814112D01*
X104226597Y-109978862D01*
X104212824Y-110065826D01*
X104199500Y-110149949D01*
X81800500Y-110149949D01*
X81773402Y-109978859D01*
X81719873Y-109814115D01*
X81641232Y-109659772D01*
X81539414Y-109519632D01*
X81416928Y-109397146D01*
X81276788Y-109295328D01*
X81122445Y-109216687D01*
X80957701Y-109163158D01*
X80957699Y-109163157D01*
X80957698Y-109163157D01*
X80826271Y-109142341D01*
X80786611Y-109136060D01*
X79813389Y-109136060D01*
X79773728Y-109142341D01*
X79642302Y-109163157D01*
X79477552Y-109216688D01*
X79323211Y-109295328D01*
X79243256Y-109353419D01*
X79183072Y-109397146D01*
X79183070Y-109397148D01*
X79183069Y-109397148D01*
X79060588Y-109519629D01*
X79060588Y-109519630D01*
X79060586Y-109519632D01*
X79050093Y-109534075D01*
X78958768Y-109659771D01*
X78880128Y-109814112D01*
X78826597Y-109978862D01*
X78812824Y-110065826D01*
X78799500Y-110149949D01*
X42000500Y-110149949D01*
X42000500Y-107609949D01*
X78799500Y-107609949D01*
X78799500Y-107783171D01*
X78826598Y-107954261D01*
X78880127Y-108119005D01*
X78958768Y-108273348D01*
X79060586Y-108413488D01*
X79183072Y-108535974D01*
X79323212Y-108637792D01*
X79477555Y-108716433D01*
X79642299Y-108769962D01*
X79813389Y-108797060D01*
X79813390Y-108797060D01*
X80786610Y-108797060D01*
X80786611Y-108797060D01*
X80957701Y-108769962D01*
X81122445Y-108716433D01*
X81276788Y-108637792D01*
X81416928Y-108535974D01*
X81539414Y-108413488D01*
X81641232Y-108273348D01*
X81719873Y-108119005D01*
X81773402Y-107954261D01*
X81800500Y-107783171D01*
X81800500Y-107609949D01*
X104199500Y-107609949D01*
X104199500Y-107783171D01*
X104226598Y-107954261D01*
X104280127Y-108119005D01*
X104358768Y-108273348D01*
X104460586Y-108413488D01*
X104583072Y-108535974D01*
X104723212Y-108637792D01*
X104877555Y-108716433D01*
X105042299Y-108769962D01*
X105213389Y-108797060D01*
X105213390Y-108797060D01*
X106186610Y-108797060D01*
X106186611Y-108797060D01*
X106357701Y-108769962D01*
X106522445Y-108716433D01*
X106676788Y-108637792D01*
X106816928Y-108535974D01*
X106939414Y-108413488D01*
X107041232Y-108273348D01*
X107119873Y-108119005D01*
X107173402Y-107954261D01*
X107200500Y-107783171D01*
X107200500Y-107609949D01*
X107173402Y-107438859D01*
X107119873Y-107274115D01*
X107041232Y-107119772D01*
X106939414Y-106979632D01*
X106816928Y-106857146D01*
X106676788Y-106755328D01*
X106522445Y-106676687D01*
X106357701Y-106623158D01*
X106357699Y-106623157D01*
X106357698Y-106623157D01*
X106226271Y-106602341D01*
X106186611Y-106596060D01*
X105213389Y-106596060D01*
X105173728Y-106602341D01*
X105042302Y-106623157D01*
X104877552Y-106676688D01*
X104723211Y-106755328D01*
X104643256Y-106813419D01*
X104583072Y-106857146D01*
X104583070Y-106857148D01*
X104583069Y-106857148D01*
X104460588Y-106979629D01*
X104460588Y-106979630D01*
X104460586Y-106979632D01*
X104416859Y-107039816D01*
X104358768Y-107119771D01*
X104280128Y-107274112D01*
X104226597Y-107438862D01*
X104199500Y-107609949D01*
X81800500Y-107609949D01*
X81773402Y-107438859D01*
X81719873Y-107274115D01*
X81641232Y-107119772D01*
X81539414Y-106979632D01*
X81416928Y-106857146D01*
X81276788Y-106755328D01*
X81122445Y-106676687D01*
X80957701Y-106623158D01*
X80957699Y-106623157D01*
X80957698Y-106623157D01*
X80826271Y-106602341D01*
X80786611Y-106596060D01*
X79813389Y-106596060D01*
X79773728Y-106602341D01*
X79642302Y-106623157D01*
X79477552Y-106676688D01*
X79323211Y-106755328D01*
X79243256Y-106813419D01*
X79183072Y-106857146D01*
X79183070Y-106857148D01*
X79183069Y-106857148D01*
X79060588Y-106979629D01*
X79060588Y-106979630D01*
X79060586Y-106979632D01*
X79016859Y-107039816D01*
X78958768Y-107119771D01*
X78880128Y-107274112D01*
X78826597Y-107438862D01*
X78799500Y-107609949D01*
X42000500Y-107609949D01*
X42000500Y-105069949D01*
X78799500Y-105069949D01*
X78799500Y-105243171D01*
X78826598Y-105414261D01*
X78880127Y-105579005D01*
X78958768Y-105733348D01*
X79060586Y-105873488D01*
X79183072Y-105995974D01*
X79323212Y-106097792D01*
X79477555Y-106176433D01*
X79642299Y-106229962D01*
X79813389Y-106257060D01*
X79813390Y-106257060D01*
X80786610Y-106257060D01*
X80786611Y-106257060D01*
X80957701Y-106229962D01*
X81122445Y-106176433D01*
X81276788Y-106097792D01*
X81416928Y-105995974D01*
X81539414Y-105873488D01*
X81641232Y-105733348D01*
X81719873Y-105579005D01*
X81773402Y-105414261D01*
X81800500Y-105243171D01*
X81800500Y-105069949D01*
X104199500Y-105069949D01*
X104199500Y-105243171D01*
X104226598Y-105414261D01*
X104280127Y-105579005D01*
X104358768Y-105733348D01*
X104460586Y-105873488D01*
X104583072Y-105995974D01*
X104723212Y-106097792D01*
X104877555Y-106176433D01*
X105042299Y-106229962D01*
X105213389Y-106257060D01*
X105213390Y-106257060D01*
X106186610Y-106257060D01*
X106186611Y-106257060D01*
X106357701Y-106229962D01*
X106522445Y-106176433D01*
X106676788Y-106097792D01*
X106816928Y-105995974D01*
X106939414Y-105873488D01*
X107041232Y-105733348D01*
X107119873Y-105579005D01*
X107173402Y-105414261D01*
X107200500Y-105243171D01*
X107200500Y-105069949D01*
X107173402Y-104898859D01*
X107119873Y-104734115D01*
X107041232Y-104579772D01*
X106939414Y-104439632D01*
X106816928Y-104317146D01*
X106676788Y-104215328D01*
X106522445Y-104136687D01*
X106357701Y-104083158D01*
X106357699Y-104083157D01*
X106357698Y-104083157D01*
X106226271Y-104062341D01*
X106186611Y-104056060D01*
X105213389Y-104056060D01*
X105173728Y-104062341D01*
X105042302Y-104083157D01*
X104877552Y-104136688D01*
X104723211Y-104215328D01*
X104643256Y-104273419D01*
X104583072Y-104317146D01*
X104583070Y-104317148D01*
X104583069Y-104317148D01*
X104460588Y-104439629D01*
X104460588Y-104439630D01*
X104460586Y-104439632D01*
X104416859Y-104499816D01*
X104358768Y-104579771D01*
X104280128Y-104734112D01*
X104226597Y-104898862D01*
X104208374Y-105013918D01*
X104199500Y-105069949D01*
X81800500Y-105069949D01*
X81773402Y-104898859D01*
X81719873Y-104734115D01*
X81641232Y-104579772D01*
X81539414Y-104439632D01*
X81416928Y-104317146D01*
X81276788Y-104215328D01*
X81122445Y-104136687D01*
X80957701Y-104083158D01*
X80957699Y-104083157D01*
X80957698Y-104083157D01*
X80826271Y-104062341D01*
X80786611Y-104056060D01*
X79813389Y-104056060D01*
X79773728Y-104062341D01*
X79642302Y-104083157D01*
X79477552Y-104136688D01*
X79323211Y-104215328D01*
X79243256Y-104273419D01*
X79183072Y-104317146D01*
X79183070Y-104317148D01*
X79183069Y-104317148D01*
X79060588Y-104439629D01*
X79060588Y-104439630D01*
X79060586Y-104439632D01*
X79016859Y-104499816D01*
X78958768Y-104579771D01*
X78880128Y-104734112D01*
X78826597Y-104898862D01*
X78808374Y-105013918D01*
X78799500Y-105069949D01*
X42000500Y-105069949D01*
X42000500Y-102366559D01*
X78825884Y-102366559D01*
X78825885Y-102366560D01*
X79984314Y-102366560D01*
X79979920Y-102370954D01*
X79927259Y-102462166D01*
X79900000Y-102563899D01*
X79900000Y-102669221D01*
X79927259Y-102770954D01*
X79979920Y-102862166D01*
X79984314Y-102866560D01*
X78825885Y-102866560D01*
X78827085Y-102874144D01*
X78880591Y-103038815D01*
X78959195Y-103193084D01*
X79060967Y-103333162D01*
X79183397Y-103455592D01*
X79323475Y-103557364D01*
X79477742Y-103635968D01*
X79642415Y-103689474D01*
X79813429Y-103716560D01*
X80050000Y-103716560D01*
X80050000Y-102932246D01*
X80054394Y-102936640D01*
X80145606Y-102989301D01*
X80247339Y-103016560D01*
X80352661Y-103016560D01*
X80454394Y-102989301D01*
X80545606Y-102936640D01*
X80550000Y-102932246D01*
X80550000Y-103716560D01*
X80786571Y-103716560D01*
X80957584Y-103689474D01*
X81122257Y-103635968D01*
X81276524Y-103557364D01*
X81416602Y-103455592D01*
X81539032Y-103333162D01*
X81640804Y-103193084D01*
X81719408Y-103038815D01*
X81772914Y-102874144D01*
X81774115Y-102866560D01*
X80615686Y-102866560D01*
X80620080Y-102862166D01*
X80672741Y-102770954D01*
X80700000Y-102669221D01*
X80700000Y-102563899D01*
X80690903Y-102529949D01*
X104199500Y-102529949D01*
X104199500Y-102703171D01*
X104226598Y-102874261D01*
X104280127Y-103039005D01*
X104358768Y-103193348D01*
X104460586Y-103333488D01*
X104583072Y-103455974D01*
X104723212Y-103557792D01*
X104877555Y-103636433D01*
X105042299Y-103689962D01*
X105213389Y-103717060D01*
X105213390Y-103717060D01*
X106186610Y-103717060D01*
X106186611Y-103717060D01*
X106357701Y-103689962D01*
X106522445Y-103636433D01*
X106676788Y-103557792D01*
X106816928Y-103455974D01*
X106939414Y-103333488D01*
X107041232Y-103193348D01*
X107119873Y-103039005D01*
X107173402Y-102874261D01*
X107200500Y-102703171D01*
X107200500Y-102529949D01*
X107173402Y-102358859D01*
X107123404Y-102204983D01*
X118639500Y-102204983D01*
X118639500Y-103405001D01*
X118639501Y-103405018D01*
X118650000Y-103507796D01*
X118650001Y-103507799D01*
X118666818Y-103558548D01*
X118705186Y-103674334D01*
X118797288Y-103823656D01*
X118921344Y-103947712D01*
X119070666Y-104039814D01*
X119104500Y-104051025D01*
X119161947Y-104090796D01*
X119188772Y-104155311D01*
X119189500Y-104168732D01*
X119189500Y-105013918D01*
X119189500Y-105013920D01*
X119189499Y-105013920D01*
X119218340Y-105158907D01*
X119218343Y-105158917D01*
X119274914Y-105295492D01*
X119307812Y-105344727D01*
X119307813Y-105344730D01*
X119357046Y-105418414D01*
X119357052Y-105418421D01*
X123713181Y-109774549D01*
X123746666Y-109835872D01*
X123749500Y-109862230D01*
X123749500Y-110285389D01*
X123729815Y-110352428D01*
X123724763Y-110359370D01*
X123613371Y-110526079D01*
X123613364Y-110526092D01*
X123537950Y-110708160D01*
X123537947Y-110708170D01*
X123499500Y-110901456D01*
X123499500Y-110901459D01*
X123499500Y-111098541D01*
X123499500Y-111098543D01*
X123499499Y-111098543D01*
X123537947Y-111291829D01*
X123537950Y-111291839D01*
X123613364Y-111473907D01*
X123613371Y-111473920D01*
X123722860Y-111637781D01*
X123722863Y-111637785D01*
X123862214Y-111777136D01*
X123862218Y-111777139D01*
X124026079Y-111886628D01*
X124026092Y-111886635D01*
X124148043Y-111937148D01*
X124208165Y-111962051D01*
X124208169Y-111962051D01*
X124208170Y-111962052D01*
X124401456Y-112000500D01*
X124401459Y-112000500D01*
X124598543Y-112000500D01*
X124728582Y-111974632D01*
X124791835Y-111962051D01*
X124973914Y-111886632D01*
X125028763Y-111849983D01*
X128249500Y-111849983D01*
X128249500Y-113150001D01*
X128249501Y-113150018D01*
X128260000Y-113252796D01*
X128260001Y-113252799D01*
X128292419Y-113350628D01*
X128315186Y-113419334D01*
X128407288Y-113568656D01*
X128531344Y-113692712D01*
X128680666Y-113784814D01*
X128847203Y-113839999D01*
X128949991Y-113850500D01*
X130550008Y-113850499D01*
X130652797Y-113839999D01*
X130819334Y-113784814D01*
X130968656Y-113692712D01*
X131092712Y-113568656D01*
X131184814Y-113419334D01*
X131239999Y-113252797D01*
X131250500Y-113150009D01*
X131250499Y-111849992D01*
X131239999Y-111747203D01*
X131184814Y-111580666D01*
X131092712Y-111431344D01*
X130968656Y-111307288D01*
X130819334Y-111215186D01*
X130819332Y-111215185D01*
X130813440Y-111211551D01*
X130766716Y-111159603D01*
X130755493Y-111090641D01*
X130783337Y-111026558D01*
X130790856Y-111018330D01*
X130929728Y-110879458D01*
X131054620Y-110707557D01*
X131151095Y-110518217D01*
X131216757Y-110316129D01*
X131216757Y-110316126D01*
X131227231Y-110250000D01*
X130183012Y-110250000D01*
X130215925Y-110192993D01*
X130250000Y-110065826D01*
X130250000Y-109934174D01*
X130215925Y-109807007D01*
X130183012Y-109750000D01*
X131227231Y-109750000D01*
X131216757Y-109683873D01*
X131216757Y-109683870D01*
X131151095Y-109481782D01*
X131054620Y-109292442D01*
X130929727Y-109120540D01*
X130929723Y-109120535D01*
X130779464Y-108970276D01*
X130779459Y-108970272D01*
X130607557Y-108845379D01*
X130418217Y-108748904D01*
X130216129Y-108683242D01*
X130006246Y-108650000D01*
X130000000Y-108650000D01*
X130000000Y-109566988D01*
X129942993Y-109534075D01*
X129815826Y-109500000D01*
X129684174Y-109500000D01*
X129557007Y-109534075D01*
X129500000Y-109566988D01*
X129500000Y-108650000D01*
X129493754Y-108650000D01*
X129283872Y-108683242D01*
X129283869Y-108683242D01*
X129081782Y-108748904D01*
X128892442Y-108845379D01*
X128720540Y-108970272D01*
X128720535Y-108970276D01*
X128570276Y-109120535D01*
X128570272Y-109120540D01*
X128445379Y-109292442D01*
X128348904Y-109481782D01*
X128283242Y-109683870D01*
X128283242Y-109683873D01*
X128272769Y-109750000D01*
X129316988Y-109750000D01*
X129284075Y-109807007D01*
X129250000Y-109934174D01*
X129250000Y-110065826D01*
X129284075Y-110192993D01*
X129316988Y-110250000D01*
X128272769Y-110250000D01*
X128283242Y-110316126D01*
X128283242Y-110316129D01*
X128348904Y-110518217D01*
X128445379Y-110707557D01*
X128570272Y-110879459D01*
X128570276Y-110879464D01*
X128709143Y-111018331D01*
X128742628Y-111079654D01*
X128737644Y-111149346D01*
X128695772Y-111205279D01*
X128686559Y-111211551D01*
X128531342Y-111307289D01*
X128407289Y-111431342D01*
X128315187Y-111580663D01*
X128315185Y-111580668D01*
X128287349Y-111664670D01*
X128260001Y-111747203D01*
X128260001Y-111747204D01*
X128260000Y-111747204D01*
X128249500Y-111849983D01*
X125028763Y-111849983D01*
X125137782Y-111777139D01*
X125137785Y-111777136D01*
X125155769Y-111759153D01*
X125277136Y-111637785D01*
X125277139Y-111637782D01*
X125386632Y-111473914D01*
X125462051Y-111291835D01*
X125488354Y-111159603D01*
X125500500Y-111098543D01*
X125500500Y-110901456D01*
X125462052Y-110708170D01*
X125462051Y-110708169D01*
X125462051Y-110708165D01*
X125441689Y-110659007D01*
X125386635Y-110526092D01*
X125386628Y-110526079D01*
X125273755Y-110357153D01*
X125275278Y-110356135D01*
X125251331Y-110299723D01*
X125250500Y-110285389D01*
X125250500Y-109426079D01*
X125221659Y-109281092D01*
X125221658Y-109281091D01*
X125221658Y-109281087D01*
X125194983Y-109216687D01*
X125165086Y-109144509D01*
X125165085Y-109144507D01*
X125149067Y-109120535D01*
X125132186Y-109095270D01*
X125132185Y-109095268D01*
X125082956Y-109021589D01*
X125082952Y-109021584D01*
X120726819Y-104665451D01*
X120693334Y-104604128D01*
X120690500Y-104577770D01*
X120690500Y-104168732D01*
X120710185Y-104101693D01*
X120762989Y-104055938D01*
X120775495Y-104051026D01*
X120809334Y-104039814D01*
X120958656Y-103947712D01*
X121082712Y-103823656D01*
X121174814Y-103674334D01*
X121201955Y-103592427D01*
X121241726Y-103534984D01*
X121306242Y-103508161D01*
X121375018Y-103520476D01*
X121419977Y-103558547D01*
X121476565Y-103636433D01*
X121488034Y-103652219D01*
X121632786Y-103796971D01*
X121753226Y-103884474D01*
X121798390Y-103917287D01*
X121914607Y-103976503D01*
X121980776Y-104010218D01*
X121980778Y-104010218D01*
X121980781Y-104010220D01*
X122071862Y-104039814D01*
X122175465Y-104073477D01*
X122211542Y-104079191D01*
X122377648Y-104105500D01*
X122377649Y-104105500D01*
X122582351Y-104105500D01*
X122582352Y-104105500D01*
X122784534Y-104073477D01*
X122979219Y-104010220D01*
X123161610Y-103917287D01*
X123290482Y-103823657D01*
X123327213Y-103796971D01*
X123327215Y-103796968D01*
X123327219Y-103796966D01*
X123471966Y-103652219D01*
X123471968Y-103652215D01*
X123471971Y-103652213D01*
X123592284Y-103486614D01*
X123592286Y-103486611D01*
X123592287Y-103486610D01*
X123639516Y-103393917D01*
X123687489Y-103343123D01*
X123755310Y-103326328D01*
X123821445Y-103348865D01*
X123860483Y-103393917D01*
X123866140Y-103405018D01*
X123907715Y-103486614D01*
X124028028Y-103652213D01*
X124172786Y-103796971D01*
X124293226Y-103884474D01*
X124338390Y-103917287D01*
X124454607Y-103976503D01*
X124520776Y-104010218D01*
X124520778Y-104010218D01*
X124520781Y-104010220D01*
X124611862Y-104039814D01*
X124715465Y-104073477D01*
X124751542Y-104079191D01*
X124917648Y-104105500D01*
X124917649Y-104105500D01*
X125122351Y-104105500D01*
X125122352Y-104105500D01*
X125324534Y-104073477D01*
X125519219Y-104010220D01*
X125701610Y-103917287D01*
X125830482Y-103823657D01*
X125867213Y-103796971D01*
X125867215Y-103796968D01*
X125867219Y-103796966D01*
X126011966Y-103652219D01*
X126011968Y-103652215D01*
X126011971Y-103652213D01*
X126116894Y-103507797D01*
X126132287Y-103486610D01*
X126179795Y-103393369D01*
X126227769Y-103342573D01*
X126295590Y-103325778D01*
X126361725Y-103348315D01*
X126400765Y-103393369D01*
X126448141Y-103486350D01*
X126448147Y-103486359D01*
X126480523Y-103530921D01*
X126480524Y-103530922D01*
X127160000Y-102851446D01*
X127160000Y-102857661D01*
X127187259Y-102959394D01*
X127239920Y-103050606D01*
X127314394Y-103125080D01*
X127405606Y-103177741D01*
X127507339Y-103205000D01*
X127513553Y-103205000D01*
X126834076Y-103884474D01*
X126878650Y-103916859D01*
X127060968Y-104009755D01*
X127255582Y-104072990D01*
X127457683Y-104105000D01*
X127662317Y-104105000D01*
X127864417Y-104072990D01*
X128059031Y-104009755D01*
X128241349Y-103916859D01*
X128285921Y-103884474D01*
X127606447Y-103205000D01*
X127612661Y-103205000D01*
X127714394Y-103177741D01*
X127805606Y-103125080D01*
X127880080Y-103050606D01*
X127932741Y-102959394D01*
X127960000Y-102857661D01*
X127960000Y-102851447D01*
X128639474Y-103530921D01*
X128671859Y-103486349D01*
X128764755Y-103304031D01*
X128827990Y-103109417D01*
X128860000Y-102907317D01*
X128860000Y-102702682D01*
X128827990Y-102500582D01*
X128764755Y-102305968D01*
X128671859Y-102123650D01*
X128639474Y-102079077D01*
X128639474Y-102079076D01*
X127960000Y-102758551D01*
X127960000Y-102752339D01*
X127932741Y-102650606D01*
X127880080Y-102559394D01*
X127805606Y-102484920D01*
X127714394Y-102432259D01*
X127612661Y-102405000D01*
X127606446Y-102405000D01*
X128285922Y-101725524D01*
X128285921Y-101725523D01*
X128241359Y-101693147D01*
X128241350Y-101693141D01*
X128059031Y-101600244D01*
X127864417Y-101537009D01*
X127662317Y-101505000D01*
X127457683Y-101505000D01*
X127255582Y-101537009D01*
X127060968Y-101600244D01*
X126878644Y-101693143D01*
X126834077Y-101725523D01*
X126834077Y-101725524D01*
X127513554Y-102405000D01*
X127507339Y-102405000D01*
X127405606Y-102432259D01*
X127314394Y-102484920D01*
X127239920Y-102559394D01*
X127187259Y-102650606D01*
X127160000Y-102752339D01*
X127160000Y-102758553D01*
X126480524Y-102079077D01*
X126480523Y-102079077D01*
X126448143Y-102123644D01*
X126400765Y-102216630D01*
X126352790Y-102267426D01*
X126284969Y-102284221D01*
X126218834Y-102261683D01*
X126179795Y-102216630D01*
X126132287Y-102123390D01*
X126132285Y-102123387D01*
X126132284Y-102123385D01*
X126011971Y-101957786D01*
X125867213Y-101813028D01*
X125701613Y-101692715D01*
X125701612Y-101692714D01*
X125701610Y-101692713D01*
X125641898Y-101662288D01*
X125519223Y-101599781D01*
X125324534Y-101536522D01*
X125149995Y-101508878D01*
X125122352Y-101504500D01*
X124917648Y-101504500D01*
X124893329Y-101508351D01*
X124715465Y-101536522D01*
X124520776Y-101599781D01*
X124338386Y-101692715D01*
X124172786Y-101813028D01*
X124028028Y-101957786D01*
X123907715Y-102123386D01*
X123860485Y-102216080D01*
X123812510Y-102266876D01*
X123744689Y-102283671D01*
X123678554Y-102261134D01*
X123639515Y-102216080D01*
X123633861Y-102204983D01*
X123592287Y-102123390D01*
X123560092Y-102079077D01*
X123471971Y-101957786D01*
X123327213Y-101813028D01*
X123161613Y-101692715D01*
X123161612Y-101692714D01*
X123161610Y-101692713D01*
X123101898Y-101662288D01*
X122979223Y-101599781D01*
X122784534Y-101536522D01*
X122609995Y-101508878D01*
X122582352Y-101504500D01*
X122377648Y-101504500D01*
X122353329Y-101508351D01*
X122175465Y-101536522D01*
X121980776Y-101599781D01*
X121798386Y-101692715D01*
X121632786Y-101813028D01*
X121488032Y-101957782D01*
X121488028Y-101957787D01*
X121419978Y-102051451D01*
X121364648Y-102094117D01*
X121295035Y-102100096D01*
X121233240Y-102067490D01*
X121201954Y-102017570D01*
X121182144Y-101957787D01*
X121174814Y-101935666D01*
X121082712Y-101786344D01*
X120958656Y-101662288D01*
X120857314Y-101599780D01*
X120809336Y-101570187D01*
X120809331Y-101570185D01*
X120807862Y-101569698D01*
X120642797Y-101515001D01*
X120642795Y-101515000D01*
X120540010Y-101504500D01*
X119339998Y-101504500D01*
X119339981Y-101504501D01*
X119237203Y-101515000D01*
X119237200Y-101515001D01*
X119070668Y-101570185D01*
X119070663Y-101570187D01*
X118921342Y-101662289D01*
X118797289Y-101786342D01*
X118705187Y-101935663D01*
X118705186Y-101935666D01*
X118650001Y-102102203D01*
X118650001Y-102102204D01*
X118650000Y-102102204D01*
X118639500Y-102204983D01*
X107123404Y-102204983D01*
X107119873Y-102194115D01*
X107041232Y-102039772D01*
X106939414Y-101899632D01*
X106816928Y-101777146D01*
X106676788Y-101675328D01*
X106522445Y-101596687D01*
X106357701Y-101543158D01*
X106357699Y-101543157D01*
X106357698Y-101543157D01*
X106226271Y-101522341D01*
X106186611Y-101516060D01*
X105213389Y-101516060D01*
X105173728Y-101522341D01*
X105042302Y-101543157D01*
X104877552Y-101596688D01*
X104723211Y-101675328D01*
X104698686Y-101693147D01*
X104583072Y-101777146D01*
X104583070Y-101777148D01*
X104583069Y-101777148D01*
X104460588Y-101899629D01*
X104460588Y-101899630D01*
X104460586Y-101899632D01*
X104460350Y-101899957D01*
X104358768Y-102039771D01*
X104280128Y-102194112D01*
X104226597Y-102358862D01*
X104210236Y-102462166D01*
X104199500Y-102529949D01*
X80690903Y-102529949D01*
X80672741Y-102462166D01*
X80620080Y-102370954D01*
X80615686Y-102366560D01*
X81774115Y-102366560D01*
X81774115Y-102366559D01*
X81772914Y-102358975D01*
X81719408Y-102194304D01*
X81640804Y-102040035D01*
X81539032Y-101899957D01*
X81416602Y-101777527D01*
X81276524Y-101675755D01*
X81122257Y-101597151D01*
X80957584Y-101543645D01*
X80786571Y-101516560D01*
X80550000Y-101516560D01*
X80550000Y-102300874D01*
X80545606Y-102296480D01*
X80454394Y-102243819D01*
X80352661Y-102216560D01*
X80247339Y-102216560D01*
X80145606Y-102243819D01*
X80054394Y-102296480D01*
X80050000Y-102300874D01*
X80050000Y-101516560D01*
X79813429Y-101516560D01*
X79642415Y-101543645D01*
X79477742Y-101597151D01*
X79323475Y-101675755D01*
X79183397Y-101777527D01*
X79060967Y-101899957D01*
X78959195Y-102040035D01*
X78880591Y-102194304D01*
X78827085Y-102358975D01*
X78825884Y-102366559D01*
X42000500Y-102366559D01*
X42000500Y-99989949D01*
X78799500Y-99989949D01*
X78799500Y-100163171D01*
X78826598Y-100334261D01*
X78880127Y-100499005D01*
X78958768Y-100653348D01*
X79060586Y-100793488D01*
X79183072Y-100915974D01*
X79323212Y-101017792D01*
X79477555Y-101096433D01*
X79642299Y-101149962D01*
X79813389Y-101177060D01*
X79813390Y-101177060D01*
X80786610Y-101177060D01*
X80786611Y-101177060D01*
X80957701Y-101149962D01*
X81122445Y-101096433D01*
X81276788Y-101017792D01*
X81416928Y-100915974D01*
X81539414Y-100793488D01*
X81641232Y-100653348D01*
X81719873Y-100499005D01*
X81773402Y-100334261D01*
X81800500Y-100163171D01*
X81800500Y-99989949D01*
X104199500Y-99989949D01*
X104199500Y-100163171D01*
X104226598Y-100334261D01*
X104280127Y-100499005D01*
X104358768Y-100653348D01*
X104460586Y-100793488D01*
X104583072Y-100915974D01*
X104723212Y-101017792D01*
X104877555Y-101096433D01*
X105042299Y-101149962D01*
X105213389Y-101177060D01*
X105213390Y-101177060D01*
X106186610Y-101177060D01*
X106186611Y-101177060D01*
X106357701Y-101149962D01*
X106522445Y-101096433D01*
X106676788Y-101017792D01*
X106816928Y-100915974D01*
X106869523Y-100863379D01*
X106930846Y-100829894D01*
X106957204Y-100827060D01*
X114997360Y-100827060D01*
X115094902Y-100807656D01*
X115142353Y-100798218D01*
X115278935Y-100741644D01*
X115328169Y-100708746D01*
X115401856Y-100659512D01*
X118082951Y-97978416D01*
X118140656Y-97892054D01*
X118165084Y-97855495D01*
X118221658Y-97718913D01*
X118250500Y-97573918D01*
X118250500Y-95082648D01*
X118639500Y-95082648D01*
X118639500Y-95287351D01*
X118671522Y-95489534D01*
X118734781Y-95684223D01*
X118827715Y-95866613D01*
X118948028Y-96032213D01*
X119092786Y-96176971D01*
X119247749Y-96289556D01*
X119258390Y-96297287D01*
X119374607Y-96356503D01*
X119440776Y-96390218D01*
X119440778Y-96390218D01*
X119440781Y-96390220D01*
X119545137Y-96424127D01*
X119635465Y-96453477D01*
X119696582Y-96463157D01*
X119837648Y-96485500D01*
X119837649Y-96485500D01*
X120042351Y-96485500D01*
X120042352Y-96485500D01*
X120244534Y-96453477D01*
X120439219Y-96390220D01*
X120621610Y-96297287D01*
X120714590Y-96229732D01*
X120787213Y-96176971D01*
X120787215Y-96176968D01*
X120787219Y-96176966D01*
X120931966Y-96032219D01*
X120931968Y-96032215D01*
X120931971Y-96032213D01*
X121052284Y-95866614D01*
X121052285Y-95866613D01*
X121052287Y-95866610D01*
X121099516Y-95773917D01*
X121147489Y-95723123D01*
X121215310Y-95706328D01*
X121281445Y-95728865D01*
X121320485Y-95773919D01*
X121367715Y-95866614D01*
X121488028Y-96032213D01*
X121632786Y-96176971D01*
X121787749Y-96289556D01*
X121798390Y-96297287D01*
X121914607Y-96356503D01*
X121980776Y-96390218D01*
X121980778Y-96390218D01*
X121980781Y-96390220D01*
X122085137Y-96424127D01*
X122175465Y-96453477D01*
X122236582Y-96463157D01*
X122377648Y-96485500D01*
X122377649Y-96485500D01*
X122582351Y-96485500D01*
X122582352Y-96485500D01*
X122784534Y-96453477D01*
X122979219Y-96390220D01*
X123161610Y-96297287D01*
X123254590Y-96229732D01*
X123327213Y-96176971D01*
X123327215Y-96176968D01*
X123327219Y-96176966D01*
X123471966Y-96032219D01*
X123471968Y-96032215D01*
X123471971Y-96032213D01*
X123592284Y-95866614D01*
X123592285Y-95866613D01*
X123592287Y-95866610D01*
X123639516Y-95773917D01*
X123687489Y-95723123D01*
X123755310Y-95706328D01*
X123821445Y-95728865D01*
X123860485Y-95773919D01*
X123907715Y-95866614D01*
X124028028Y-96032213D01*
X124172786Y-96176971D01*
X124327749Y-96289556D01*
X124338390Y-96297287D01*
X124454607Y-96356503D01*
X124520776Y-96390218D01*
X124520778Y-96390218D01*
X124520781Y-96390220D01*
X124625137Y-96424127D01*
X124715465Y-96453477D01*
X124776582Y-96463157D01*
X124917648Y-96485500D01*
X124917649Y-96485500D01*
X125122351Y-96485500D01*
X125122352Y-96485500D01*
X125324534Y-96453477D01*
X125519219Y-96390220D01*
X125701610Y-96297287D01*
X125794590Y-96229732D01*
X125867213Y-96176971D01*
X125867215Y-96176968D01*
X125867219Y-96176966D01*
X126011966Y-96032219D01*
X126011968Y-96032215D01*
X126011971Y-96032213D01*
X126132284Y-95866614D01*
X126132285Y-95866613D01*
X126132287Y-95866610D01*
X126179516Y-95773917D01*
X126227489Y-95723123D01*
X126295310Y-95706328D01*
X126361445Y-95728865D01*
X126400485Y-95773919D01*
X126447715Y-95866614D01*
X126568028Y-96032213D01*
X126712786Y-96176971D01*
X126867749Y-96289556D01*
X126878390Y-96297287D01*
X126994607Y-96356503D01*
X127060776Y-96390218D01*
X127060778Y-96390218D01*
X127060781Y-96390220D01*
X127165137Y-96424127D01*
X127255465Y-96453477D01*
X127316582Y-96463157D01*
X127457648Y-96485500D01*
X127457649Y-96485500D01*
X127662351Y-96485500D01*
X127662352Y-96485500D01*
X127864534Y-96453477D01*
X128059219Y-96390220D01*
X128241610Y-96297287D01*
X128334590Y-96229732D01*
X128407213Y-96176971D01*
X128407215Y-96176968D01*
X128407219Y-96176966D01*
X128551966Y-96032219D01*
X128551968Y-96032215D01*
X128551971Y-96032213D01*
X128604732Y-95959590D01*
X128672287Y-95866610D01*
X128765220Y-95684219D01*
X128828477Y-95489534D01*
X128860500Y-95287352D01*
X128860500Y-95082648D01*
X128828477Y-94880466D01*
X128765220Y-94685781D01*
X128765218Y-94685778D01*
X128765218Y-94685776D01*
X128708323Y-94574115D01*
X128672287Y-94503390D01*
X128664556Y-94492749D01*
X128551971Y-94337786D01*
X128407213Y-94193028D01*
X128241613Y-94072715D01*
X128241612Y-94072714D01*
X128241610Y-94072713D01*
X128184653Y-94043691D01*
X128059223Y-93979781D01*
X127864534Y-93916522D01*
X127689995Y-93888878D01*
X127662352Y-93884500D01*
X127457648Y-93884500D01*
X127433329Y-93888351D01*
X127255465Y-93916522D01*
X127060776Y-93979781D01*
X126878386Y-94072715D01*
X126712786Y-94193028D01*
X126568028Y-94337786D01*
X126447715Y-94503386D01*
X126400485Y-94596080D01*
X126352510Y-94646876D01*
X126284689Y-94663671D01*
X126218554Y-94641134D01*
X126179515Y-94596080D01*
X126168323Y-94574115D01*
X126132287Y-94503390D01*
X126124556Y-94492749D01*
X126011971Y-94337786D01*
X125867213Y-94193028D01*
X125701613Y-94072715D01*
X125701612Y-94072714D01*
X125701610Y-94072713D01*
X125644653Y-94043691D01*
X125519223Y-93979781D01*
X125324534Y-93916522D01*
X125149995Y-93888878D01*
X125122352Y-93884500D01*
X124917648Y-93884500D01*
X124893329Y-93888351D01*
X124715465Y-93916522D01*
X124520776Y-93979781D01*
X124338386Y-94072715D01*
X124172786Y-94193028D01*
X124028028Y-94337786D01*
X123907715Y-94503386D01*
X123860485Y-94596080D01*
X123812510Y-94646876D01*
X123744689Y-94663671D01*
X123678554Y-94641134D01*
X123639515Y-94596080D01*
X123628323Y-94574115D01*
X123592287Y-94503390D01*
X123584556Y-94492749D01*
X123471971Y-94337786D01*
X123327213Y-94193028D01*
X123161613Y-94072715D01*
X123161612Y-94072714D01*
X123161610Y-94072713D01*
X123104653Y-94043691D01*
X122979223Y-93979781D01*
X122784534Y-93916522D01*
X122609995Y-93888878D01*
X122582352Y-93884500D01*
X122377648Y-93884500D01*
X122353329Y-93888351D01*
X122175465Y-93916522D01*
X121980776Y-93979781D01*
X121798386Y-94072715D01*
X121632786Y-94193028D01*
X121488028Y-94337786D01*
X121367715Y-94503386D01*
X121320485Y-94596080D01*
X121272510Y-94646876D01*
X121204689Y-94663671D01*
X121138554Y-94641134D01*
X121099515Y-94596080D01*
X121088323Y-94574115D01*
X121052287Y-94503390D01*
X121044556Y-94492749D01*
X120931971Y-94337786D01*
X120787213Y-94193028D01*
X120621613Y-94072715D01*
X120621612Y-94072714D01*
X120621610Y-94072713D01*
X120564653Y-94043691D01*
X120439223Y-93979781D01*
X120244534Y-93916522D01*
X120069995Y-93888878D01*
X120042352Y-93884500D01*
X119837648Y-93884500D01*
X119813329Y-93888351D01*
X119635465Y-93916522D01*
X119440776Y-93979781D01*
X119258386Y-94072715D01*
X119092786Y-94193028D01*
X118948028Y-94337786D01*
X118827715Y-94503386D01*
X118734781Y-94685776D01*
X118671522Y-94880465D01*
X118639500Y-95082648D01*
X118250500Y-95082648D01*
X118250500Y-90862230D01*
X118270185Y-90795191D01*
X118286819Y-90774549D01*
X127582947Y-81478421D01*
X127582952Y-81478416D01*
X127649943Y-81378155D01*
X127665084Y-81355495D01*
X127721658Y-81218913D01*
X127737799Y-81137770D01*
X127750500Y-81073920D01*
X127750500Y-74393713D01*
X131024500Y-74393713D01*
X131024500Y-74606287D01*
X131057754Y-74816243D01*
X131075499Y-74870857D01*
X131123444Y-75018414D01*
X131219951Y-75207820D01*
X131344890Y-75379786D01*
X131495209Y-75530105D01*
X131495214Y-75530109D01*
X131660218Y-75649991D01*
X131702884Y-75705320D01*
X131708863Y-75774934D01*
X131676258Y-75836729D01*
X131660218Y-75850627D01*
X131495540Y-75970272D01*
X131495535Y-75970276D01*
X131345276Y-76120535D01*
X131345272Y-76120540D01*
X131220379Y-76292442D01*
X131123904Y-76481782D01*
X131058242Y-76683870D01*
X131058242Y-76683873D01*
X131047769Y-76750000D01*
X132095854Y-76750000D01*
X132057370Y-76816657D01*
X132025000Y-76937465D01*
X132025000Y-77062535D01*
X132057370Y-77183343D01*
X132095854Y-77250000D01*
X131047769Y-77250000D01*
X131058242Y-77316126D01*
X131058242Y-77316129D01*
X131123904Y-77518217D01*
X131220379Y-77707557D01*
X131345272Y-77879459D01*
X131345276Y-77879464D01*
X131495535Y-78029723D01*
X131495540Y-78029727D01*
X131660644Y-78149682D01*
X131703310Y-78205012D01*
X131709289Y-78274625D01*
X131676684Y-78336420D01*
X131660644Y-78350318D01*
X131495540Y-78470272D01*
X131495535Y-78470276D01*
X131345276Y-78620535D01*
X131345272Y-78620540D01*
X131220379Y-78792442D01*
X131123904Y-78981782D01*
X131058242Y-79183870D01*
X131058242Y-79183873D01*
X131047769Y-79250000D01*
X132095854Y-79250000D01*
X132057370Y-79316657D01*
X132025000Y-79437465D01*
X132025000Y-79562535D01*
X132057370Y-79683343D01*
X132095854Y-79750000D01*
X131047769Y-79750000D01*
X131058242Y-79816126D01*
X131058242Y-79816129D01*
X131123904Y-80018217D01*
X131220379Y-80207557D01*
X131345272Y-80379459D01*
X131345276Y-80379464D01*
X131484143Y-80518331D01*
X131517628Y-80579654D01*
X131512644Y-80649346D01*
X131470772Y-80705279D01*
X131461559Y-80711551D01*
X131306342Y-80807289D01*
X131182289Y-80931342D01*
X131090187Y-81080663D01*
X131090185Y-81080668D01*
X131062349Y-81164670D01*
X131035001Y-81247203D01*
X131035001Y-81247204D01*
X131035000Y-81247204D01*
X131024500Y-81349983D01*
X131024500Y-82650001D01*
X131024501Y-82650018D01*
X131035000Y-82752796D01*
X131035001Y-82752799D01*
X131076990Y-82879512D01*
X131090186Y-82919334D01*
X131182288Y-83068656D01*
X131306344Y-83192712D01*
X131455666Y-83284814D01*
X131622203Y-83339999D01*
X131724991Y-83350500D01*
X133275008Y-83350499D01*
X133377797Y-83339999D01*
X133544334Y-83284814D01*
X133693656Y-83192712D01*
X133817712Y-83068656D01*
X133909814Y-82919334D01*
X133964999Y-82752797D01*
X133975500Y-82650009D01*
X133975499Y-81349992D01*
X133964999Y-81247203D01*
X133909814Y-81080666D01*
X133817712Y-80931344D01*
X133693656Y-80807288D01*
X133544334Y-80715186D01*
X133544332Y-80715185D01*
X133538440Y-80711551D01*
X133491716Y-80659603D01*
X133480493Y-80590641D01*
X133508337Y-80526558D01*
X133515856Y-80518330D01*
X133654728Y-80379458D01*
X133779620Y-80207557D01*
X133876095Y-80018217D01*
X133941757Y-79816129D01*
X133941757Y-79816126D01*
X133952231Y-79750000D01*
X132904146Y-79750000D01*
X132942630Y-79683343D01*
X132975000Y-79562535D01*
X132975000Y-79437465D01*
X132942630Y-79316657D01*
X132904146Y-79250000D01*
X133952231Y-79250000D01*
X133941757Y-79183873D01*
X133941757Y-79183870D01*
X133876095Y-78981782D01*
X133779620Y-78792442D01*
X133654727Y-78620540D01*
X133654723Y-78620535D01*
X133504460Y-78470272D01*
X133339355Y-78350318D01*
X133296689Y-78294989D01*
X133290710Y-78225375D01*
X133323315Y-78163580D01*
X133339355Y-78149682D01*
X133504460Y-78029727D01*
X133654723Y-77879464D01*
X133654727Y-77879459D01*
X133779620Y-77707557D01*
X133876095Y-77518217D01*
X133941757Y-77316129D01*
X133941757Y-77316126D01*
X133952231Y-77250000D01*
X132904146Y-77250000D01*
X132942630Y-77183343D01*
X132975000Y-77062535D01*
X132975000Y-76937465D01*
X132942630Y-76816657D01*
X132904146Y-76750000D01*
X133952231Y-76750000D01*
X133941757Y-76683873D01*
X133941757Y-76683870D01*
X133876095Y-76481782D01*
X133779620Y-76292442D01*
X133654727Y-76120540D01*
X133654723Y-76120535D01*
X133504464Y-75970276D01*
X133504459Y-75970272D01*
X133339781Y-75850627D01*
X133297115Y-75795297D01*
X133291136Y-75725684D01*
X133323741Y-75663889D01*
X133339776Y-75649994D01*
X133504792Y-75530104D01*
X133655104Y-75379792D01*
X133655106Y-75379788D01*
X133655109Y-75379786D01*
X133780048Y-75207820D01*
X133780047Y-75207820D01*
X133780051Y-75207816D01*
X133876557Y-75018412D01*
X133942246Y-74816243D01*
X133975500Y-74606287D01*
X133975500Y-74393713D01*
X133942246Y-74183757D01*
X133876557Y-73981588D01*
X133780051Y-73792184D01*
X133780049Y-73792181D01*
X133780048Y-73792179D01*
X133655109Y-73620213D01*
X133504786Y-73469890D01*
X133332820Y-73344951D01*
X133143414Y-73248444D01*
X133143413Y-73248443D01*
X133143412Y-73248443D01*
X132941243Y-73182754D01*
X132941241Y-73182753D01*
X132941240Y-73182753D01*
X132750897Y-73152606D01*
X132731287Y-73149500D01*
X132268713Y-73149500D01*
X132249103Y-73152606D01*
X132058760Y-73182753D01*
X131856585Y-73248444D01*
X131667179Y-73344951D01*
X131495213Y-73469890D01*
X131344890Y-73620213D01*
X131219951Y-73792179D01*
X131123444Y-73981585D01*
X131057753Y-74183760D01*
X131025363Y-74388264D01*
X131024500Y-74393713D01*
X127750500Y-74393713D01*
X127750500Y-69926079D01*
X127721659Y-69781092D01*
X127721658Y-69781091D01*
X127721658Y-69781087D01*
X127669313Y-69654715D01*
X127665086Y-69644509D01*
X127665085Y-69644507D01*
X127664554Y-69643713D01*
X127632186Y-69595270D01*
X127632185Y-69595268D01*
X127582956Y-69521589D01*
X127582952Y-69521584D01*
X121228417Y-63167049D01*
X121149736Y-63114477D01*
X121149735Y-63114476D01*
X121105500Y-63084919D01*
X121105488Y-63084912D01*
X120968917Y-63028343D01*
X120968907Y-63028340D01*
X120823920Y-62999500D01*
X120823918Y-62999500D01*
X120305301Y-62999500D01*
X120238262Y-62979815D01*
X120192507Y-62927011D01*
X120187595Y-62914504D01*
X120182792Y-62900009D01*
X120159814Y-62830666D01*
X120067712Y-62681344D01*
X119943656Y-62557288D01*
X119794334Y-62465186D01*
X119794332Y-62465185D01*
X119788440Y-62461551D01*
X119741716Y-62409603D01*
X119730493Y-62340641D01*
X119758337Y-62276558D01*
X119765856Y-62268330D01*
X119904728Y-62129458D01*
X120029620Y-61957557D01*
X120126095Y-61768217D01*
X120191757Y-61566129D01*
X120191757Y-61566126D01*
X120202231Y-61500000D01*
X119154146Y-61500000D01*
X119192630Y-61433343D01*
X119225000Y-61312535D01*
X119225000Y-61187465D01*
X119192630Y-61066657D01*
X119154146Y-61000000D01*
X120202231Y-61000000D01*
X120191757Y-60933873D01*
X120191757Y-60933870D01*
X120126095Y-60731782D01*
X120029620Y-60542442D01*
X119904727Y-60370540D01*
X119904723Y-60370535D01*
X119754464Y-60220276D01*
X119754459Y-60220272D01*
X119589781Y-60100627D01*
X119547115Y-60045297D01*
X119541136Y-59975684D01*
X119573741Y-59913889D01*
X119589776Y-59899994D01*
X119754792Y-59780104D01*
X119905104Y-59629792D01*
X119905106Y-59629788D01*
X119905109Y-59629786D01*
X120030048Y-59457820D01*
X120030047Y-59457820D01*
X120030051Y-59457816D01*
X120126557Y-59268412D01*
X120192246Y-59066243D01*
X120225500Y-58856287D01*
X120225500Y-58643713D01*
X120192246Y-58433757D01*
X120126557Y-58231588D01*
X120030051Y-58042184D01*
X120030049Y-58042181D01*
X120030048Y-58042179D01*
X119905109Y-57870213D01*
X119754786Y-57719890D01*
X119582820Y-57594951D01*
X119395145Y-57499326D01*
X119395144Y-57499325D01*
X119395143Y-57499325D01*
X119393413Y-57498443D01*
X119288241Y-57464270D01*
X119191243Y-57432754D01*
X119191241Y-57432753D01*
X119191240Y-57432753D01*
X119029957Y-57407208D01*
X118981287Y-57399500D01*
X118518713Y-57399500D01*
X118470042Y-57407208D01*
X118308760Y-57432753D01*
X118106585Y-57498444D01*
X117917179Y-57594951D01*
X117745213Y-57719890D01*
X117594890Y-57870213D01*
X117469951Y-58042179D01*
X117373444Y-58231585D01*
X117307753Y-58433760D01*
X117274500Y-58643713D01*
X117274500Y-58856286D01*
X117306540Y-59058582D01*
X117307754Y-59066243D01*
X117359738Y-59226234D01*
X117373444Y-59268414D01*
X117469951Y-59457820D01*
X117594890Y-59629786D01*
X117745209Y-59780105D01*
X117745214Y-59780109D01*
X117910218Y-59899991D01*
X117952884Y-59955320D01*
X117958863Y-60024934D01*
X117926258Y-60086729D01*
X117910218Y-60100627D01*
X117745540Y-60220272D01*
X117745535Y-60220276D01*
X117595276Y-60370535D01*
X117595272Y-60370540D01*
X117470379Y-60542442D01*
X117373904Y-60731782D01*
X117308242Y-60933870D01*
X117308242Y-60933873D01*
X117297769Y-61000000D01*
X118345854Y-61000000D01*
X118307370Y-61066657D01*
X118275000Y-61187465D01*
X118275000Y-61312535D01*
X118307370Y-61433343D01*
X118345854Y-61500000D01*
X117297769Y-61500000D01*
X117308242Y-61566126D01*
X117308242Y-61566129D01*
X117373904Y-61768217D01*
X117470379Y-61957557D01*
X117595272Y-62129459D01*
X117595276Y-62129464D01*
X117734143Y-62268331D01*
X117767628Y-62329654D01*
X117762644Y-62399346D01*
X117720772Y-62455279D01*
X117711559Y-62461551D01*
X117556342Y-62557289D01*
X117432289Y-62681342D01*
X117340187Y-62830663D01*
X117340186Y-62830666D01*
X117285001Y-62997203D01*
X117285001Y-62997204D01*
X117285000Y-62997204D01*
X117274500Y-63099983D01*
X117274500Y-64400001D01*
X117274501Y-64400018D01*
X117285000Y-64502796D01*
X117285001Y-64502799D01*
X117331364Y-64642710D01*
X117340186Y-64669334D01*
X117432288Y-64818656D01*
X117556344Y-64942712D01*
X117705666Y-65034814D01*
X117872203Y-65089999D01*
X117974991Y-65100500D01*
X119525008Y-65100499D01*
X119627797Y-65089999D01*
X119794334Y-65034814D01*
X119943656Y-64942712D01*
X120067712Y-64818656D01*
X120159814Y-64669334D01*
X120187595Y-64585495D01*
X120201465Y-64565463D01*
X120211588Y-64543297D01*
X120221000Y-64537248D01*
X120227368Y-64528051D01*
X120249866Y-64518697D01*
X120270366Y-64505523D01*
X120287467Y-64503064D01*
X120291884Y-64501228D01*
X120305301Y-64500500D01*
X120387770Y-64500500D01*
X120454809Y-64520185D01*
X120475451Y-64536819D01*
X126213181Y-70274549D01*
X126246666Y-70335872D01*
X126249500Y-70362230D01*
X126249500Y-80637769D01*
X126229815Y-80704808D01*
X126213181Y-80725450D01*
X116917050Y-90021580D01*
X116917044Y-90021588D01*
X116867812Y-90095268D01*
X116867813Y-90095269D01*
X116834921Y-90144496D01*
X116834914Y-90144508D01*
X116778342Y-90281086D01*
X116778340Y-90281092D01*
X116749500Y-90426079D01*
X116749500Y-97137770D01*
X116729815Y-97204809D01*
X116713181Y-97225451D01*
X114648891Y-99289741D01*
X114587568Y-99323226D01*
X114561210Y-99326060D01*
X106957204Y-99326060D01*
X106890165Y-99306375D01*
X106869523Y-99289741D01*
X106816930Y-99237148D01*
X106816928Y-99237146D01*
X106676788Y-99135328D01*
X106522445Y-99056687D01*
X106357701Y-99003158D01*
X106357699Y-99003157D01*
X106357698Y-99003157D01*
X106226271Y-98982341D01*
X106186611Y-98976060D01*
X105213389Y-98976060D01*
X105173728Y-98982341D01*
X105042302Y-99003157D01*
X104877552Y-99056688D01*
X104723211Y-99135328D01*
X104643256Y-99193419D01*
X104583072Y-99237146D01*
X104583070Y-99237148D01*
X104583069Y-99237148D01*
X104460588Y-99359629D01*
X104460588Y-99359630D01*
X104460586Y-99359632D01*
X104416859Y-99419816D01*
X104358768Y-99499771D01*
X104280128Y-99654112D01*
X104226597Y-99818862D01*
X104199500Y-99989949D01*
X81800500Y-99989949D01*
X81773402Y-99818859D01*
X81719873Y-99654115D01*
X81641232Y-99499772D01*
X81539414Y-99359632D01*
X81416928Y-99237146D01*
X81276788Y-99135328D01*
X81122445Y-99056687D01*
X80957701Y-99003158D01*
X80957699Y-99003157D01*
X80957698Y-99003157D01*
X80826271Y-98982341D01*
X80786611Y-98976060D01*
X79813389Y-98976060D01*
X79773728Y-98982341D01*
X79642302Y-99003157D01*
X79477552Y-99056688D01*
X79323211Y-99135328D01*
X79243256Y-99193419D01*
X79183072Y-99237146D01*
X79183070Y-99237148D01*
X79183069Y-99237148D01*
X79060588Y-99359629D01*
X79060588Y-99359630D01*
X79060586Y-99359632D01*
X79016859Y-99419816D01*
X78958768Y-99499771D01*
X78880128Y-99654112D01*
X78826597Y-99818862D01*
X78799500Y-99989949D01*
X42000500Y-99989949D01*
X42000500Y-97449949D01*
X78799500Y-97449949D01*
X78799500Y-97623171D01*
X78826598Y-97794261D01*
X78880127Y-97959005D01*
X78958768Y-98113348D01*
X79060586Y-98253488D01*
X79183072Y-98375974D01*
X79323212Y-98477792D01*
X79477555Y-98556433D01*
X79642299Y-98609962D01*
X79813389Y-98637060D01*
X79813390Y-98637060D01*
X80786610Y-98637060D01*
X80786611Y-98637060D01*
X80957701Y-98609962D01*
X81122445Y-98556433D01*
X81276788Y-98477792D01*
X81416928Y-98375974D01*
X81539414Y-98253488D01*
X81641232Y-98113348D01*
X81719873Y-97959005D01*
X81773402Y-97794261D01*
X81800500Y-97623171D01*
X81800500Y-97449949D01*
X81773402Y-97278859D01*
X81719873Y-97114115D01*
X81641232Y-96959772D01*
X81539414Y-96819632D01*
X81416928Y-96697146D01*
X81276788Y-96595328D01*
X81122445Y-96516687D01*
X80957701Y-96463158D01*
X80957699Y-96463157D01*
X80957698Y-96463157D01*
X80826271Y-96442341D01*
X80786611Y-96436060D01*
X79813389Y-96436060D01*
X79773728Y-96442341D01*
X79642302Y-96463157D01*
X79477552Y-96516688D01*
X79323211Y-96595328D01*
X79243256Y-96653419D01*
X79183072Y-96697146D01*
X79183070Y-96697148D01*
X79183069Y-96697148D01*
X79060588Y-96819629D01*
X79060588Y-96819630D01*
X79060586Y-96819632D01*
X79016859Y-96879816D01*
X78958768Y-96959771D01*
X78880128Y-97114112D01*
X78826597Y-97278862D01*
X78799500Y-97449949D01*
X42000500Y-97449949D01*
X42000500Y-94909949D01*
X78799500Y-94909949D01*
X78799500Y-95083171D01*
X78826598Y-95254261D01*
X78880127Y-95419005D01*
X78958768Y-95573348D01*
X79060586Y-95713488D01*
X79183072Y-95835974D01*
X79323212Y-95937792D01*
X79477555Y-96016433D01*
X79642299Y-96069962D01*
X79813389Y-96097060D01*
X79813390Y-96097060D01*
X80786610Y-96097060D01*
X80786611Y-96097060D01*
X80957701Y-96069962D01*
X81122445Y-96016433D01*
X81276788Y-95937792D01*
X81416928Y-95835974D01*
X81539414Y-95713488D01*
X81641232Y-95573348D01*
X81719873Y-95419005D01*
X81773402Y-95254261D01*
X81800500Y-95083171D01*
X81800500Y-94909949D01*
X104199500Y-94909949D01*
X104199500Y-95083171D01*
X104226598Y-95254261D01*
X104280127Y-95419005D01*
X104358768Y-95573348D01*
X104460586Y-95713488D01*
X104583072Y-95835974D01*
X104723212Y-95937792D01*
X104877555Y-96016433D01*
X105042299Y-96069962D01*
X105213389Y-96097060D01*
X105213390Y-96097060D01*
X106186610Y-96097060D01*
X106186611Y-96097060D01*
X106357701Y-96069962D01*
X106522445Y-96016433D01*
X106676788Y-95937792D01*
X106816928Y-95835974D01*
X106939414Y-95713488D01*
X107041232Y-95573348D01*
X107119873Y-95419005D01*
X107173402Y-95254261D01*
X107200500Y-95083171D01*
X107200500Y-94909949D01*
X107173402Y-94738859D01*
X107119873Y-94574115D01*
X107041232Y-94419772D01*
X106939414Y-94279632D01*
X106816928Y-94157146D01*
X106676788Y-94055328D01*
X106522445Y-93976687D01*
X106357701Y-93923158D01*
X106357699Y-93923157D01*
X106357698Y-93923157D01*
X106226271Y-93902341D01*
X106186611Y-93896060D01*
X105213389Y-93896060D01*
X105173728Y-93902341D01*
X105042302Y-93923157D01*
X104877552Y-93976688D01*
X104723211Y-94055328D01*
X104643256Y-94113419D01*
X104583072Y-94157146D01*
X104583070Y-94157148D01*
X104583069Y-94157148D01*
X104460588Y-94279629D01*
X104460588Y-94279630D01*
X104460586Y-94279632D01*
X104418338Y-94337781D01*
X104358768Y-94419771D01*
X104280128Y-94574112D01*
X104226597Y-94738862D01*
X104204170Y-94880465D01*
X104199500Y-94909949D01*
X81800500Y-94909949D01*
X81773402Y-94738859D01*
X81719873Y-94574115D01*
X81641232Y-94419772D01*
X81539414Y-94279632D01*
X81416928Y-94157146D01*
X81276788Y-94055328D01*
X81122445Y-93976687D01*
X80957701Y-93923158D01*
X80957699Y-93923157D01*
X80957698Y-93923157D01*
X80826271Y-93902341D01*
X80786611Y-93896060D01*
X79813389Y-93896060D01*
X79773728Y-93902341D01*
X79642302Y-93923157D01*
X79477552Y-93976688D01*
X79323211Y-94055328D01*
X79243256Y-94113419D01*
X79183072Y-94157146D01*
X79183070Y-94157148D01*
X79183069Y-94157148D01*
X79060588Y-94279629D01*
X79060588Y-94279630D01*
X79060586Y-94279632D01*
X79018338Y-94337781D01*
X78958768Y-94419771D01*
X78880128Y-94574112D01*
X78826597Y-94738862D01*
X78804170Y-94880465D01*
X78799500Y-94909949D01*
X42000500Y-94909949D01*
X42000500Y-92369949D01*
X78799500Y-92369949D01*
X78799500Y-92543170D01*
X78818119Y-92660730D01*
X78826598Y-92714261D01*
X78880127Y-92879005D01*
X78958768Y-93033348D01*
X79060586Y-93173488D01*
X79183072Y-93295974D01*
X79323212Y-93397792D01*
X79477555Y-93476433D01*
X79642299Y-93529962D01*
X79813389Y-93557060D01*
X79813390Y-93557060D01*
X80786610Y-93557060D01*
X80786611Y-93557060D01*
X80957701Y-93529962D01*
X81122445Y-93476433D01*
X81276788Y-93397792D01*
X81416928Y-93295974D01*
X81539414Y-93173488D01*
X81641232Y-93033348D01*
X81719873Y-92879005D01*
X81773402Y-92714261D01*
X81800500Y-92543171D01*
X81800500Y-92369949D01*
X104199500Y-92369949D01*
X104199500Y-92543170D01*
X104218119Y-92660730D01*
X104226598Y-92714261D01*
X104280127Y-92879005D01*
X104358768Y-93033348D01*
X104460586Y-93173488D01*
X104583072Y-93295974D01*
X104723212Y-93397792D01*
X104877555Y-93476433D01*
X105042299Y-93529962D01*
X105213389Y-93557060D01*
X105213390Y-93557060D01*
X106186610Y-93557060D01*
X106186611Y-93557060D01*
X106357701Y-93529962D01*
X106522445Y-93476433D01*
X106676788Y-93397792D01*
X106816928Y-93295974D01*
X106939414Y-93173488D01*
X107041232Y-93033348D01*
X107119873Y-92879005D01*
X107173402Y-92714261D01*
X107200500Y-92543171D01*
X107200500Y-92369949D01*
X107173402Y-92198859D01*
X107119873Y-92034115D01*
X107041232Y-91879772D01*
X106939414Y-91739632D01*
X106816928Y-91617146D01*
X106676788Y-91515328D01*
X106522445Y-91436687D01*
X106357701Y-91383158D01*
X106357699Y-91383157D01*
X106357698Y-91383157D01*
X106226271Y-91362341D01*
X106186611Y-91356060D01*
X105213389Y-91356060D01*
X105173728Y-91362341D01*
X105042302Y-91383157D01*
X104877552Y-91436688D01*
X104723211Y-91515328D01*
X104682036Y-91545244D01*
X104583072Y-91617146D01*
X104583070Y-91617148D01*
X104583069Y-91617148D01*
X104460588Y-91739629D01*
X104460588Y-91739630D01*
X104460586Y-91739632D01*
X104416859Y-91799816D01*
X104358768Y-91879771D01*
X104280128Y-92034112D01*
X104226597Y-92198862D01*
X104199500Y-92369949D01*
X81800500Y-92369949D01*
X81773402Y-92198859D01*
X81719873Y-92034115D01*
X81641232Y-91879772D01*
X81539414Y-91739632D01*
X81416928Y-91617146D01*
X81276788Y-91515328D01*
X81122445Y-91436687D01*
X80957701Y-91383158D01*
X80957699Y-91383157D01*
X80957698Y-91383157D01*
X80826271Y-91362341D01*
X80786611Y-91356060D01*
X79813389Y-91356060D01*
X79773728Y-91362341D01*
X79642302Y-91383157D01*
X79477552Y-91436688D01*
X79323211Y-91515328D01*
X79282036Y-91545244D01*
X79183072Y-91617146D01*
X79183070Y-91617148D01*
X79183069Y-91617148D01*
X79060588Y-91739629D01*
X79060588Y-91739630D01*
X79060586Y-91739632D01*
X79016859Y-91799816D01*
X78958768Y-91879771D01*
X78880128Y-92034112D01*
X78826597Y-92198862D01*
X78799500Y-92369949D01*
X42000500Y-92369949D01*
X42000500Y-83849983D01*
X69024500Y-83849983D01*
X69024500Y-85150001D01*
X69024501Y-85150018D01*
X69035000Y-85252796D01*
X69035001Y-85252799D01*
X69088115Y-85413084D01*
X69090186Y-85419334D01*
X69182288Y-85568656D01*
X69306344Y-85692712D01*
X69444281Y-85777792D01*
X69461558Y-85788448D01*
X69508283Y-85840396D01*
X69519506Y-85909358D01*
X69491663Y-85973441D01*
X69484144Y-85981668D01*
X69345271Y-86120541D01*
X69220379Y-86292442D01*
X69123904Y-86481782D01*
X69058242Y-86683870D01*
X69058242Y-86683873D01*
X69047769Y-86750000D01*
X70095854Y-86750000D01*
X70057370Y-86816657D01*
X70025000Y-86937465D01*
X70025000Y-87062535D01*
X70057370Y-87183343D01*
X70095854Y-87250000D01*
X69047769Y-87250000D01*
X69058242Y-87316126D01*
X69058242Y-87316129D01*
X69123904Y-87518217D01*
X69220379Y-87707557D01*
X69345272Y-87879459D01*
X69345276Y-87879464D01*
X69495535Y-88029723D01*
X69495540Y-88029727D01*
X69660218Y-88149372D01*
X69702884Y-88204701D01*
X69708863Y-88274315D01*
X69676258Y-88336110D01*
X69660218Y-88350008D01*
X69495214Y-88469890D01*
X69495209Y-88469894D01*
X69344890Y-88620213D01*
X69219951Y-88792179D01*
X69123444Y-88981585D01*
X69057753Y-89183760D01*
X69033043Y-89339772D01*
X69024500Y-89393713D01*
X69024500Y-89606287D01*
X69057754Y-89816243D01*
X69062207Y-89829949D01*
X69123444Y-90018414D01*
X69219951Y-90207820D01*
X69344890Y-90379786D01*
X69495213Y-90530109D01*
X69667179Y-90655048D01*
X69667181Y-90655049D01*
X69667184Y-90655051D01*
X69856588Y-90751557D01*
X70058757Y-90817246D01*
X70268713Y-90850500D01*
X70268714Y-90850500D01*
X70731286Y-90850500D01*
X70731287Y-90850500D01*
X70941243Y-90817246D01*
X71143412Y-90751557D01*
X71332816Y-90655051D01*
X71362495Y-90633488D01*
X71504786Y-90530109D01*
X71504788Y-90530106D01*
X71504792Y-90530104D01*
X71655104Y-90379792D01*
X71655106Y-90379788D01*
X71655109Y-90379786D01*
X71780048Y-90207820D01*
X71780047Y-90207820D01*
X71780051Y-90207816D01*
X71876557Y-90018412D01*
X71942246Y-89816243D01*
X71975500Y-89606287D01*
X71975500Y-89393713D01*
X71942246Y-89183757D01*
X71876557Y-88981588D01*
X71780051Y-88792184D01*
X71780049Y-88792181D01*
X71780048Y-88792179D01*
X71655109Y-88620213D01*
X71504790Y-88469894D01*
X71504785Y-88469890D01*
X71339781Y-88350008D01*
X71297115Y-88294678D01*
X71291136Y-88225065D01*
X71323741Y-88163270D01*
X71339781Y-88149371D01*
X71504466Y-88029721D01*
X71654723Y-87879464D01*
X71654727Y-87879459D01*
X71779620Y-87707557D01*
X71876095Y-87518217D01*
X71941757Y-87316129D01*
X71941757Y-87316126D01*
X71952231Y-87250000D01*
X70904146Y-87250000D01*
X70942630Y-87183343D01*
X70975000Y-87062535D01*
X70975000Y-86937465D01*
X70942630Y-86816657D01*
X70904146Y-86750000D01*
X71952231Y-86750000D01*
X71941757Y-86683873D01*
X71941757Y-86683870D01*
X71876095Y-86481782D01*
X71779620Y-86292442D01*
X71654727Y-86120540D01*
X71654723Y-86120535D01*
X71515856Y-85981668D01*
X71482371Y-85920345D01*
X71487355Y-85850653D01*
X71529227Y-85794720D01*
X71538441Y-85788448D01*
X71544331Y-85784814D01*
X71544334Y-85784814D01*
X71693656Y-85692712D01*
X71817712Y-85568656D01*
X71909814Y-85419334D01*
X71964999Y-85252797D01*
X71975500Y-85150009D01*
X71975499Y-83849992D01*
X71971604Y-83811867D01*
X71964999Y-83747203D01*
X71964998Y-83747200D01*
X71928740Y-83637781D01*
X71909814Y-83580666D01*
X71817712Y-83431344D01*
X71693656Y-83307288D01*
X71600888Y-83250069D01*
X71544336Y-83215187D01*
X71544331Y-83215185D01*
X71542862Y-83214698D01*
X71377797Y-83160001D01*
X71377795Y-83160000D01*
X71275010Y-83149500D01*
X69724998Y-83149500D01*
X69724981Y-83149501D01*
X69622203Y-83160000D01*
X69622200Y-83160001D01*
X69455668Y-83215185D01*
X69455663Y-83215187D01*
X69306342Y-83307289D01*
X69182289Y-83431342D01*
X69090187Y-83580663D01*
X69090185Y-83580668D01*
X69062349Y-83664670D01*
X69035001Y-83747203D01*
X69035001Y-83747204D01*
X69035000Y-83747204D01*
X69024500Y-83849983D01*
X42000500Y-83849983D01*
X42000500Y-54679135D01*
X45999500Y-54679135D01*
X45999500Y-56374870D01*
X45999501Y-56374876D01*
X46005908Y-56434483D01*
X46056202Y-56569328D01*
X46056206Y-56569335D01*
X46142452Y-56684544D01*
X46142455Y-56684547D01*
X46257664Y-56770793D01*
X46257671Y-56770797D01*
X46302618Y-56787561D01*
X46392517Y-56821091D01*
X46429441Y-56825060D01*
X46493989Y-56851796D01*
X46533838Y-56909188D01*
X46536333Y-56979013D01*
X46500681Y-57039102D01*
X46489071Y-57048666D01*
X46452784Y-57075030D01*
X46308028Y-57219786D01*
X46187715Y-57385386D01*
X46094781Y-57567776D01*
X46031522Y-57762465D01*
X45999500Y-57964648D01*
X45999500Y-58169351D01*
X46031522Y-58371534D01*
X46094781Y-58566223D01*
X46187715Y-58748613D01*
X46308028Y-58914213D01*
X46452786Y-59058971D01*
X46607749Y-59171556D01*
X46618390Y-59179287D01*
X46709840Y-59225883D01*
X46711080Y-59226515D01*
X46761876Y-59274490D01*
X46778671Y-59342311D01*
X46756134Y-59408446D01*
X46711080Y-59447485D01*
X46618386Y-59494715D01*
X46452786Y-59615028D01*
X46308028Y-59759786D01*
X46187715Y-59925386D01*
X46094781Y-60107776D01*
X46031522Y-60302465D01*
X45999500Y-60504648D01*
X45999500Y-60709351D01*
X46031522Y-60911534D01*
X46094781Y-61106223D01*
X46155493Y-61225375D01*
X46180587Y-61274625D01*
X46187715Y-61288613D01*
X46308028Y-61454213D01*
X46452786Y-61598971D01*
X46581699Y-61692630D01*
X46618390Y-61719287D01*
X46709840Y-61765883D01*
X46711080Y-61766515D01*
X46761876Y-61814490D01*
X46778671Y-61882311D01*
X46756134Y-61948446D01*
X46711080Y-61987485D01*
X46618386Y-62034715D01*
X46452786Y-62155028D01*
X46308028Y-62299786D01*
X46187715Y-62465386D01*
X46094781Y-62647776D01*
X46031522Y-62842465D01*
X45999500Y-63044648D01*
X45999500Y-63249351D01*
X46031522Y-63451534D01*
X46094781Y-63646223D01*
X46128068Y-63711551D01*
X46176849Y-63807289D01*
X46187715Y-63828613D01*
X46308028Y-63994213D01*
X46452786Y-64138971D01*
X46601758Y-64247203D01*
X46618390Y-64259287D01*
X46709840Y-64305883D01*
X46711080Y-64306515D01*
X46761876Y-64354490D01*
X46778671Y-64422311D01*
X46756134Y-64488446D01*
X46711080Y-64527485D01*
X46618386Y-64574715D01*
X46452786Y-64695028D01*
X46308028Y-64839786D01*
X46187715Y-65005386D01*
X46094781Y-65187776D01*
X46031522Y-65382465D01*
X45999500Y-65584648D01*
X45999500Y-65789351D01*
X46031522Y-65991534D01*
X46094781Y-66186223D01*
X46145017Y-66284814D01*
X46178485Y-66350500D01*
X46187715Y-66368613D01*
X46308028Y-66534213D01*
X46452786Y-66678971D01*
X46607749Y-66791556D01*
X46618390Y-66799287D01*
X46709840Y-66845883D01*
X46711080Y-66846515D01*
X46761876Y-66894490D01*
X46778671Y-66962311D01*
X46756134Y-67028446D01*
X46711080Y-67067485D01*
X46618386Y-67114715D01*
X46452786Y-67235028D01*
X46308028Y-67379786D01*
X46187715Y-67545386D01*
X46094781Y-67727776D01*
X46031522Y-67922465D01*
X45999500Y-68124648D01*
X45999500Y-68329351D01*
X46031522Y-68531534D01*
X46094781Y-68726223D01*
X46158691Y-68851653D01*
X46177760Y-68889077D01*
X46187715Y-68908613D01*
X46308028Y-69074213D01*
X46452786Y-69218971D01*
X46607749Y-69331556D01*
X46618390Y-69339287D01*
X46709840Y-69385883D01*
X46711080Y-69386515D01*
X46761876Y-69434490D01*
X46778671Y-69502311D01*
X46756134Y-69568446D01*
X46711080Y-69607485D01*
X46618386Y-69654715D01*
X46452786Y-69775028D01*
X46308028Y-69919786D01*
X46187715Y-70085386D01*
X46094781Y-70267776D01*
X46031522Y-70462465D01*
X45999500Y-70664648D01*
X45999500Y-70869351D01*
X46031522Y-71071534D01*
X46094781Y-71266223D01*
X46158691Y-71391653D01*
X46172946Y-71419629D01*
X46187715Y-71448613D01*
X46308028Y-71614213D01*
X46452786Y-71758971D01*
X46607749Y-71871556D01*
X46618390Y-71879287D01*
X46709840Y-71925883D01*
X46711080Y-71926515D01*
X46761876Y-71974490D01*
X46778671Y-72042311D01*
X46756134Y-72108446D01*
X46711080Y-72147485D01*
X46618386Y-72194715D01*
X46452786Y-72315028D01*
X46308028Y-72459786D01*
X46187715Y-72625386D01*
X46094781Y-72807776D01*
X46031522Y-73002465D01*
X45999500Y-73204648D01*
X45999500Y-73409351D01*
X46031522Y-73611534D01*
X46094781Y-73806223D01*
X46145812Y-73906375D01*
X46184135Y-73981588D01*
X46187715Y-73988613D01*
X46308028Y-74154213D01*
X46452786Y-74298971D01*
X46583190Y-74393713D01*
X46618390Y-74419287D01*
X46734607Y-74478503D01*
X46800776Y-74512218D01*
X46800778Y-74512218D01*
X46800781Y-74512220D01*
X46905137Y-74546127D01*
X46995465Y-74575477D01*
X47086837Y-74589949D01*
X47197648Y-74607500D01*
X47197649Y-74607500D01*
X47402351Y-74607500D01*
X47402352Y-74607500D01*
X47604534Y-74575477D01*
X47799219Y-74512220D01*
X47981610Y-74419287D01*
X48121716Y-74317495D01*
X48147213Y-74298971D01*
X48147215Y-74298968D01*
X48147219Y-74298966D01*
X48291966Y-74154219D01*
X48294650Y-74150524D01*
X48325100Y-74108615D01*
X48380429Y-74065949D01*
X48425418Y-74057500D01*
X48944770Y-74057500D01*
X49011809Y-74077185D01*
X49032451Y-74093819D01*
X50733930Y-75795297D01*
X52417049Y-77478416D01*
X52521584Y-77582951D01*
X52521587Y-77582953D01*
X52521588Y-77582954D01*
X52644503Y-77665083D01*
X52644506Y-77665085D01*
X52694665Y-77685861D01*
X52701080Y-77688518D01*
X52781088Y-77721659D01*
X52897241Y-77744763D01*
X52920380Y-77749365D01*
X52926081Y-77750500D01*
X52926082Y-77750500D01*
X52926083Y-77750500D01*
X53073918Y-77750500D01*
X72137770Y-77750500D01*
X72204809Y-77770185D01*
X72225451Y-77786819D01*
X76713181Y-82274549D01*
X76746666Y-82335872D01*
X76749500Y-82362230D01*
X76749500Y-88573918D01*
X76749500Y-88573920D01*
X76749499Y-88573920D01*
X76778340Y-88718907D01*
X76778343Y-88718917D01*
X76834912Y-88855488D01*
X76834921Y-88855504D01*
X76850054Y-88878151D01*
X76850055Y-88878155D01*
X76850056Y-88878155D01*
X76917046Y-88978414D01*
X76917052Y-88978421D01*
X78033901Y-90095268D01*
X78333608Y-90394975D01*
X78333609Y-90394976D01*
X78431981Y-90493348D01*
X78438145Y-90499512D01*
X78561058Y-90581640D01*
X78561071Y-90581647D01*
X78697642Y-90638216D01*
X78697647Y-90638218D01*
X78697651Y-90638218D01*
X78697652Y-90638219D01*
X78842639Y-90667060D01*
X78842642Y-90667060D01*
X79042796Y-90667060D01*
X79109835Y-90686745D01*
X79130477Y-90703379D01*
X79183072Y-90755974D01*
X79323212Y-90857792D01*
X79477555Y-90936433D01*
X79642299Y-90989962D01*
X79813389Y-91017060D01*
X79813390Y-91017060D01*
X80786610Y-91017060D01*
X80786611Y-91017060D01*
X80957701Y-90989962D01*
X81122445Y-90936433D01*
X81276788Y-90857792D01*
X81416928Y-90755974D01*
X81539414Y-90633488D01*
X81641232Y-90493348D01*
X81719873Y-90339005D01*
X81773402Y-90174261D01*
X81800500Y-90003171D01*
X81800500Y-89829949D01*
X81773402Y-89658859D01*
X81719873Y-89494115D01*
X81641232Y-89339772D01*
X81539414Y-89199632D01*
X81416928Y-89077146D01*
X81276788Y-88975328D01*
X81122445Y-88896687D01*
X80957701Y-88843158D01*
X80957699Y-88843157D01*
X80957698Y-88843157D01*
X80826271Y-88822341D01*
X80786611Y-88816060D01*
X79813389Y-88816060D01*
X79773728Y-88822341D01*
X79642302Y-88843157D01*
X79642299Y-88843158D01*
X79534603Y-88878151D01*
X79477552Y-88896688D01*
X79323212Y-88975327D01*
X79242942Y-89033647D01*
X79177135Y-89057126D01*
X79109081Y-89041300D01*
X79082376Y-89021009D01*
X78699152Y-88637785D01*
X78286819Y-88225451D01*
X78253334Y-88164128D01*
X78250500Y-88137770D01*
X78250500Y-87289949D01*
X78799500Y-87289949D01*
X78799500Y-87463170D01*
X78820940Y-87598541D01*
X78826598Y-87634261D01*
X78880127Y-87799005D01*
X78958768Y-87953348D01*
X79060586Y-88093488D01*
X79183072Y-88215974D01*
X79323212Y-88317792D01*
X79477555Y-88396433D01*
X79642299Y-88449962D01*
X79813389Y-88477060D01*
X79813390Y-88477060D01*
X80786610Y-88477060D01*
X80786611Y-88477060D01*
X80957701Y-88449962D01*
X81122445Y-88396433D01*
X81276788Y-88317792D01*
X81416928Y-88215974D01*
X81539414Y-88093488D01*
X81641232Y-87953348D01*
X81719873Y-87799005D01*
X81773402Y-87634261D01*
X81800500Y-87463171D01*
X81800500Y-87289949D01*
X81773402Y-87118859D01*
X81719873Y-86954115D01*
X81641232Y-86799772D01*
X81539414Y-86659632D01*
X81416928Y-86537146D01*
X81276788Y-86435328D01*
X81122445Y-86356687D01*
X80957701Y-86303158D01*
X80957699Y-86303157D01*
X80957698Y-86303157D01*
X80826271Y-86282341D01*
X80786611Y-86276060D01*
X79813389Y-86276060D01*
X79773728Y-86282341D01*
X79642302Y-86303157D01*
X79477552Y-86356688D01*
X79323211Y-86435328D01*
X79259274Y-86481782D01*
X79183072Y-86537146D01*
X79183070Y-86537148D01*
X79183069Y-86537148D01*
X79060588Y-86659629D01*
X79060588Y-86659630D01*
X79060586Y-86659632D01*
X79042976Y-86683870D01*
X78958768Y-86799771D01*
X78880128Y-86954112D01*
X78826597Y-87118862D01*
X78799500Y-87289949D01*
X78250500Y-87289949D01*
X78250500Y-84749949D01*
X78799500Y-84749949D01*
X78799500Y-84923171D01*
X78826598Y-85094261D01*
X78880127Y-85259005D01*
X78958768Y-85413348D01*
X79060586Y-85553488D01*
X79183072Y-85675974D01*
X79323212Y-85777792D01*
X79477555Y-85856433D01*
X79642299Y-85909962D01*
X79813389Y-85937060D01*
X79813390Y-85937060D01*
X80786610Y-85937060D01*
X80786611Y-85937060D01*
X80957701Y-85909962D01*
X81122445Y-85856433D01*
X81276788Y-85777792D01*
X81416928Y-85675974D01*
X81539414Y-85553488D01*
X81641232Y-85413348D01*
X81719873Y-85259005D01*
X81773402Y-85094261D01*
X81800500Y-84923171D01*
X81800500Y-84749949D01*
X81773402Y-84578859D01*
X81719873Y-84414115D01*
X81641232Y-84259772D01*
X81539414Y-84119632D01*
X81416928Y-83997146D01*
X81276788Y-83895328D01*
X81122445Y-83816687D01*
X80957701Y-83763158D01*
X80957699Y-83763157D01*
X80957698Y-83763157D01*
X80826271Y-83742341D01*
X80786611Y-83736060D01*
X79813389Y-83736060D01*
X79773728Y-83742341D01*
X79642302Y-83763157D01*
X79477552Y-83816688D01*
X79323211Y-83895328D01*
X79243256Y-83953419D01*
X79183072Y-83997146D01*
X79183070Y-83997148D01*
X79183069Y-83997148D01*
X79097267Y-84082951D01*
X79060586Y-84119632D01*
X79027561Y-84165087D01*
X78958768Y-84259771D01*
X78880128Y-84414112D01*
X78826597Y-84578862D01*
X78799500Y-84749949D01*
X78250500Y-84749949D01*
X78250500Y-81926079D01*
X78221659Y-81781092D01*
X78221658Y-81781091D01*
X78221658Y-81781087D01*
X78218950Y-81774549D01*
X78165087Y-81644511D01*
X78165085Y-81644507D01*
X78165084Y-81644505D01*
X78123955Y-81582951D01*
X78082952Y-81521584D01*
X75890109Y-79328741D01*
X75856624Y-79267418D01*
X75861608Y-79197726D01*
X75903480Y-79141793D01*
X75968944Y-79117376D01*
X75977790Y-79117060D01*
X78788372Y-79117060D01*
X78855411Y-79136745D01*
X78901166Y-79189549D01*
X78911110Y-79258707D01*
X78898857Y-79297355D01*
X78880128Y-79334112D01*
X78826597Y-79498862D01*
X78799500Y-79669949D01*
X78799500Y-79843170D01*
X78825180Y-80005312D01*
X78826598Y-80014261D01*
X78880127Y-80179005D01*
X78958768Y-80333348D01*
X79060586Y-80473488D01*
X79183072Y-80595974D01*
X79323212Y-80697792D01*
X79477555Y-80776433D01*
X79642299Y-80829962D01*
X79813389Y-80857060D01*
X79813390Y-80857060D01*
X80786610Y-80857060D01*
X80786611Y-80857060D01*
X80957701Y-80829962D01*
X81122445Y-80776433D01*
X81276788Y-80697792D01*
X81416928Y-80595974D01*
X81539414Y-80473488D01*
X81641232Y-80333348D01*
X81719873Y-80179005D01*
X81757569Y-80062986D01*
X81797007Y-80005312D01*
X81861365Y-79978114D01*
X81930212Y-79990029D01*
X81981687Y-80037273D01*
X81997094Y-80092659D01*
X81998903Y-80092481D01*
X81999499Y-80098543D01*
X82037947Y-80291829D01*
X82037950Y-80291839D01*
X82113364Y-80473907D01*
X82113371Y-80473920D01*
X82226245Y-80642847D01*
X82224717Y-80643867D01*
X82248666Y-80700255D01*
X82249500Y-80714610D01*
X82249500Y-81137770D01*
X82229815Y-81204809D01*
X82213181Y-81225451D01*
X81928891Y-81509741D01*
X81867568Y-81543226D01*
X81841210Y-81546060D01*
X81557204Y-81546060D01*
X81490165Y-81526375D01*
X81469523Y-81509741D01*
X81416930Y-81457148D01*
X81416928Y-81457146D01*
X81276788Y-81355328D01*
X81122445Y-81276687D01*
X80957701Y-81223158D01*
X80957699Y-81223157D01*
X80957698Y-81223157D01*
X80826271Y-81202341D01*
X80786611Y-81196060D01*
X79813389Y-81196060D01*
X79773728Y-81202341D01*
X79642302Y-81223157D01*
X79477552Y-81276688D01*
X79323211Y-81355328D01*
X79243256Y-81413419D01*
X79183072Y-81457146D01*
X79183070Y-81457148D01*
X79183069Y-81457148D01*
X79060588Y-81579629D01*
X79060588Y-81579630D01*
X79060586Y-81579632D01*
X79058175Y-81582951D01*
X78958768Y-81719771D01*
X78880128Y-81874112D01*
X78826597Y-82038862D01*
X78799500Y-82209949D01*
X78799500Y-82383170D01*
X78822135Y-82526086D01*
X78826598Y-82554261D01*
X78880127Y-82719005D01*
X78958768Y-82873348D01*
X79060586Y-83013488D01*
X79183072Y-83135974D01*
X79323212Y-83237792D01*
X79477555Y-83316433D01*
X79642299Y-83369962D01*
X79813389Y-83397060D01*
X79813390Y-83397060D01*
X80786610Y-83397060D01*
X80786611Y-83397060D01*
X80957701Y-83369962D01*
X81122445Y-83316433D01*
X81276788Y-83237792D01*
X81416928Y-83135974D01*
X81454359Y-83098543D01*
X83499499Y-83098543D01*
X83537947Y-83291829D01*
X83537950Y-83291839D01*
X83613364Y-83473907D01*
X83613371Y-83473920D01*
X83722860Y-83637781D01*
X83722863Y-83637785D01*
X83862214Y-83777136D01*
X83862218Y-83777139D01*
X84026079Y-83886628D01*
X84026092Y-83886635D01*
X84208160Y-83962049D01*
X84208165Y-83962051D01*
X84208169Y-83962051D01*
X84208170Y-83962052D01*
X84407434Y-84001689D01*
X84407075Y-84003491D01*
X84463876Y-84026423D01*
X84474621Y-84035989D01*
X88521586Y-88082954D01*
X88539897Y-88095188D01*
X88595270Y-88132186D01*
X88644505Y-88165084D01*
X88644506Y-88165084D01*
X88644507Y-88165085D01*
X88644509Y-88165086D01*
X88781082Y-88221656D01*
X88781087Y-88221658D01*
X88781091Y-88221658D01*
X88781092Y-88221659D01*
X88926079Y-88250500D01*
X88926082Y-88250500D01*
X88926083Y-88250500D01*
X89073917Y-88250500D01*
X99785390Y-88250500D01*
X99852429Y-88270185D01*
X99859358Y-88275228D01*
X100026079Y-88386628D01*
X100026092Y-88386635D01*
X100178979Y-88449962D01*
X100208165Y-88462051D01*
X100208169Y-88462051D01*
X100208170Y-88462052D01*
X100401456Y-88500500D01*
X100401459Y-88500500D01*
X100598543Y-88500500D01*
X100732196Y-88473914D01*
X100791835Y-88462051D01*
X100973914Y-88386632D01*
X101137782Y-88277139D01*
X101277139Y-88137782D01*
X101386632Y-87973914D01*
X101462051Y-87791835D01*
X101500500Y-87598541D01*
X101500500Y-87401459D01*
X101500500Y-87401456D01*
X101462052Y-87208170D01*
X101462051Y-87208169D01*
X101462051Y-87208165D01*
X101453805Y-87188258D01*
X101386635Y-87026092D01*
X101386628Y-87026079D01*
X101277139Y-86862218D01*
X101277136Y-86862214D01*
X101137785Y-86722863D01*
X101137781Y-86722860D01*
X100973920Y-86613371D01*
X100973907Y-86613364D01*
X100791839Y-86537950D01*
X100791829Y-86537947D01*
X100598543Y-86499500D01*
X100598541Y-86499500D01*
X100401459Y-86499500D01*
X100401457Y-86499500D01*
X100208170Y-86537947D01*
X100208160Y-86537950D01*
X100026092Y-86613364D01*
X100026079Y-86613371D01*
X99857153Y-86726245D01*
X99856132Y-86724717D01*
X99799745Y-86748666D01*
X99785390Y-86749500D01*
X89362230Y-86749500D01*
X89295191Y-86729815D01*
X89274549Y-86713181D01*
X85535989Y-82974621D01*
X85502504Y-82913298D01*
X85501168Y-82904815D01*
X85462052Y-82708170D01*
X85462051Y-82708169D01*
X85462051Y-82708165D01*
X85434177Y-82640871D01*
X85386635Y-82526092D01*
X85386628Y-82526079D01*
X85277139Y-82362218D01*
X85277136Y-82362214D01*
X85137785Y-82222863D01*
X85137781Y-82222860D01*
X84973920Y-82113371D01*
X84973907Y-82113364D01*
X84791839Y-82037950D01*
X84791829Y-82037947D01*
X84598543Y-81999500D01*
X84598541Y-81999500D01*
X84401459Y-81999500D01*
X84401457Y-81999500D01*
X84208170Y-82037947D01*
X84208160Y-82037950D01*
X84026092Y-82113364D01*
X84026079Y-82113371D01*
X83862218Y-82222860D01*
X83862214Y-82222863D01*
X83722863Y-82362214D01*
X83722860Y-82362218D01*
X83613371Y-82526079D01*
X83613364Y-82526092D01*
X83537950Y-82708160D01*
X83537947Y-82708170D01*
X83499500Y-82901456D01*
X83499500Y-82901459D01*
X83499500Y-83098541D01*
X83499500Y-83098543D01*
X83499499Y-83098543D01*
X81454359Y-83098543D01*
X81469523Y-83083379D01*
X81530846Y-83049894D01*
X81557204Y-83047060D01*
X82277360Y-83047060D01*
X82374902Y-83027656D01*
X82422353Y-83018218D01*
X82558935Y-82961644D01*
X82622257Y-82919334D01*
X82681856Y-82879512D01*
X82696891Y-82864477D01*
X82753683Y-82807686D01*
X83351419Y-82209949D01*
X83582952Y-81978416D01*
X83609485Y-81938705D01*
X83635340Y-81900010D01*
X83635341Y-81900008D01*
X83652644Y-81874112D01*
X83665084Y-81855495D01*
X83721658Y-81718913D01*
X83736460Y-81644499D01*
X83750500Y-81573920D01*
X83750500Y-80714610D01*
X83770185Y-80647571D01*
X83775228Y-80640641D01*
X83777136Y-80637784D01*
X83777139Y-80637782D01*
X83886632Y-80473914D01*
X83886809Y-80473488D01*
X83962049Y-80291839D01*
X83962051Y-80291835D01*
X84000500Y-80098541D01*
X84000500Y-79901459D01*
X84000500Y-79901456D01*
X83962052Y-79708170D01*
X83962051Y-79708169D01*
X83962051Y-79708165D01*
X83961405Y-79706606D01*
X83886635Y-79526092D01*
X83886628Y-79526079D01*
X83777139Y-79362218D01*
X83777136Y-79362214D01*
X83743663Y-79328741D01*
X83710178Y-79267418D01*
X83715162Y-79197726D01*
X83757034Y-79141793D01*
X83822498Y-79117376D01*
X83831344Y-79117060D01*
X97004330Y-79117060D01*
X97071369Y-79136745D01*
X97092011Y-79153379D01*
X101713181Y-83774548D01*
X101746666Y-83835871D01*
X101749500Y-83862229D01*
X101749500Y-89073918D01*
X101749500Y-89073920D01*
X101749499Y-89073920D01*
X101778340Y-89218907D01*
X101778343Y-89218917D01*
X101834912Y-89355488D01*
X101834916Y-89355495D01*
X101867274Y-89403922D01*
X101867275Y-89403924D01*
X101917045Y-89478414D01*
X101917049Y-89478418D01*
X102612890Y-90174257D01*
X102833608Y-90394975D01*
X102833609Y-90394976D01*
X102938144Y-90499511D01*
X102938147Y-90499513D01*
X102938148Y-90499514D01*
X103061063Y-90581643D01*
X103061066Y-90581645D01*
X103111225Y-90602421D01*
X103117640Y-90605078D01*
X103197648Y-90638219D01*
X103313801Y-90661323D01*
X103336940Y-90665925D01*
X103342641Y-90667060D01*
X103342642Y-90667060D01*
X103342643Y-90667060D01*
X103490478Y-90667060D01*
X104442796Y-90667060D01*
X104509835Y-90686745D01*
X104530477Y-90703379D01*
X104583072Y-90755974D01*
X104723212Y-90857792D01*
X104877555Y-90936433D01*
X105042299Y-90989962D01*
X105213389Y-91017060D01*
X105213390Y-91017060D01*
X106186610Y-91017060D01*
X106186611Y-91017060D01*
X106357701Y-90989962D01*
X106522445Y-90936433D01*
X106676788Y-90857792D01*
X106816928Y-90755974D01*
X106939414Y-90633488D01*
X107041232Y-90493348D01*
X107119873Y-90339005D01*
X107173402Y-90174261D01*
X107200500Y-90003171D01*
X107200500Y-89829949D01*
X107173402Y-89658859D01*
X107119873Y-89494115D01*
X107041232Y-89339772D01*
X106939414Y-89199632D01*
X106816928Y-89077146D01*
X106676788Y-88975328D01*
X106522445Y-88896687D01*
X106357701Y-88843158D01*
X106357699Y-88843157D01*
X106357698Y-88843157D01*
X106226271Y-88822341D01*
X106186611Y-88816060D01*
X105213389Y-88816060D01*
X105173728Y-88822341D01*
X105042302Y-88843157D01*
X105042299Y-88843158D01*
X104934603Y-88878151D01*
X104877552Y-88896688D01*
X104723211Y-88975328D01*
X104643256Y-89033419D01*
X104583072Y-89077146D01*
X104583070Y-89077148D01*
X104583069Y-89077148D01*
X104530477Y-89129741D01*
X104469154Y-89163226D01*
X104442796Y-89166060D01*
X103778789Y-89166060D01*
X103711750Y-89146375D01*
X103691108Y-89129741D01*
X103286819Y-88725451D01*
X103253334Y-88664128D01*
X103250500Y-88637770D01*
X103250500Y-87289949D01*
X104199500Y-87289949D01*
X104199500Y-87463170D01*
X104220940Y-87598541D01*
X104226598Y-87634261D01*
X104280127Y-87799005D01*
X104358768Y-87953348D01*
X104460586Y-88093488D01*
X104583072Y-88215974D01*
X104723212Y-88317792D01*
X104877555Y-88396433D01*
X105042299Y-88449962D01*
X105213389Y-88477060D01*
X105213390Y-88477060D01*
X106186610Y-88477060D01*
X106186611Y-88477060D01*
X106357701Y-88449962D01*
X106522445Y-88396433D01*
X106676788Y-88317792D01*
X106816928Y-88215974D01*
X106939414Y-88093488D01*
X107041232Y-87953348D01*
X107119873Y-87799005D01*
X107173402Y-87634261D01*
X107200500Y-87463171D01*
X107200500Y-87289949D01*
X107173402Y-87118859D01*
X107119873Y-86954115D01*
X107041232Y-86799772D01*
X106939414Y-86659632D01*
X106816928Y-86537146D01*
X106676788Y-86435328D01*
X106522445Y-86356687D01*
X106357701Y-86303158D01*
X106357699Y-86303157D01*
X106357698Y-86303157D01*
X106226271Y-86282341D01*
X106186611Y-86276060D01*
X105213389Y-86276060D01*
X105173728Y-86282341D01*
X105042302Y-86303157D01*
X104877552Y-86356688D01*
X104723211Y-86435328D01*
X104659274Y-86481782D01*
X104583072Y-86537146D01*
X104583070Y-86537148D01*
X104583069Y-86537148D01*
X104460588Y-86659629D01*
X104460588Y-86659630D01*
X104460586Y-86659632D01*
X104442976Y-86683870D01*
X104358768Y-86799771D01*
X104280128Y-86954112D01*
X104226597Y-87118862D01*
X104199500Y-87289949D01*
X103250500Y-87289949D01*
X103250500Y-84111229D01*
X103270185Y-84044190D01*
X103322989Y-83998435D01*
X103392147Y-83988491D01*
X103455703Y-84017516D01*
X103462167Y-84023534D01*
X103521584Y-84082951D01*
X103521585Y-84082952D01*
X103644498Y-84165080D01*
X103644511Y-84165087D01*
X103781082Y-84221656D01*
X103781087Y-84221658D01*
X103781091Y-84221658D01*
X103781092Y-84221659D01*
X103926079Y-84250500D01*
X103926082Y-84250500D01*
X104163143Y-84250500D01*
X104230182Y-84270185D01*
X104275937Y-84322989D01*
X104285881Y-84392147D01*
X104281074Y-84412818D01*
X104227085Y-84578975D01*
X104225884Y-84586559D01*
X104225885Y-84586560D01*
X105384314Y-84586560D01*
X105379920Y-84590954D01*
X105327259Y-84682166D01*
X105300000Y-84783899D01*
X105300000Y-84889221D01*
X105327259Y-84990954D01*
X105379920Y-85082166D01*
X105384314Y-85086560D01*
X104225885Y-85086560D01*
X104227085Y-85094144D01*
X104280591Y-85258815D01*
X104359195Y-85413084D01*
X104460967Y-85553162D01*
X104583397Y-85675592D01*
X104723475Y-85777364D01*
X104877742Y-85855968D01*
X105042415Y-85909474D01*
X105213429Y-85936560D01*
X105450000Y-85936560D01*
X105450000Y-85152246D01*
X105454394Y-85156640D01*
X105545606Y-85209301D01*
X105647339Y-85236560D01*
X105752661Y-85236560D01*
X105854394Y-85209301D01*
X105945606Y-85156640D01*
X105950000Y-85152246D01*
X105950000Y-85936560D01*
X106186571Y-85936560D01*
X106357584Y-85909474D01*
X106522257Y-85855968D01*
X106676524Y-85777364D01*
X106816602Y-85675592D01*
X106939032Y-85553162D01*
X107040804Y-85413084D01*
X107119408Y-85258817D01*
X107172914Y-85094144D01*
X107172914Y-85094143D01*
X107184047Y-85023853D01*
X107213976Y-84960718D01*
X107273287Y-84923786D01*
X107343150Y-84924784D01*
X107394201Y-84955569D01*
X110464010Y-88025378D01*
X110497495Y-88086701D01*
X110498832Y-88095188D01*
X110537947Y-88291829D01*
X110537950Y-88291839D01*
X110613364Y-88473907D01*
X110613371Y-88473920D01*
X110722860Y-88637781D01*
X110722863Y-88637785D01*
X110862214Y-88777136D01*
X110862218Y-88777139D01*
X111026079Y-88886628D01*
X111026092Y-88886635D01*
X111208160Y-88962049D01*
X111208165Y-88962051D01*
X111208169Y-88962051D01*
X111208170Y-88962052D01*
X111401456Y-89000500D01*
X111401459Y-89000500D01*
X111598543Y-89000500D01*
X111728582Y-88974632D01*
X111791835Y-88962051D01*
X111932655Y-88903721D01*
X111973907Y-88886635D01*
X111973907Y-88886634D01*
X111973914Y-88886632D01*
X112056609Y-88831376D01*
X112123286Y-88810499D01*
X112190666Y-88828983D01*
X112237357Y-88880962D01*
X112249500Y-88934479D01*
X112249500Y-91637770D01*
X112229815Y-91704809D01*
X112213181Y-91725451D01*
X107225451Y-96713181D01*
X107198523Y-96727884D01*
X107172705Y-96744477D01*
X107166504Y-96745368D01*
X107164128Y-96746666D01*
X107137770Y-96749500D01*
X106920644Y-96749500D01*
X106853605Y-96729815D01*
X106832963Y-96713181D01*
X106816930Y-96697148D01*
X106816928Y-96697146D01*
X106676788Y-96595328D01*
X106522445Y-96516687D01*
X106357701Y-96463158D01*
X106357699Y-96463157D01*
X106357698Y-96463157D01*
X106226271Y-96442341D01*
X106186611Y-96436060D01*
X105213389Y-96436060D01*
X105173728Y-96442341D01*
X105042302Y-96463157D01*
X104877552Y-96516688D01*
X104723211Y-96595328D01*
X104643256Y-96653419D01*
X104583072Y-96697146D01*
X104583070Y-96697148D01*
X104583069Y-96697148D01*
X104460588Y-96819629D01*
X104460588Y-96819630D01*
X104460586Y-96819632D01*
X104416859Y-96879816D01*
X104358768Y-96959771D01*
X104280128Y-97114112D01*
X104226597Y-97278862D01*
X104199500Y-97449949D01*
X104199500Y-97623171D01*
X104226598Y-97794261D01*
X104280127Y-97959005D01*
X104358768Y-98113348D01*
X104460586Y-98253488D01*
X104583072Y-98375974D01*
X104723212Y-98477792D01*
X104877555Y-98556433D01*
X105042299Y-98609962D01*
X105213389Y-98637060D01*
X105213390Y-98637060D01*
X106186610Y-98637060D01*
X106186611Y-98637060D01*
X106357701Y-98609962D01*
X106522445Y-98556433D01*
X106676788Y-98477792D01*
X106816928Y-98375974D01*
X106869523Y-98323379D01*
X106930846Y-98289894D01*
X106957204Y-98287060D01*
X107037360Y-98287060D01*
X107134902Y-98267656D01*
X107182353Y-98258218D01*
X107182360Y-98258214D01*
X107188180Y-98256450D01*
X107188609Y-98257866D01*
X107225651Y-98250500D01*
X107573920Y-98250500D01*
X107671462Y-98231096D01*
X107718913Y-98221658D01*
X107855495Y-98165084D01*
X107904729Y-98132186D01*
X107978416Y-98082952D01*
X110774017Y-95287351D01*
X113488319Y-92573049D01*
X113549642Y-92539564D01*
X113619334Y-92544548D01*
X113675267Y-92586420D01*
X113699684Y-92651884D01*
X113700000Y-92660730D01*
X113700000Y-92852317D01*
X113732009Y-93054417D01*
X113795244Y-93249031D01*
X113888142Y-93431352D01*
X113939147Y-93501555D01*
X113962627Y-93567361D01*
X113946802Y-93635415D01*
X113926511Y-93662121D01*
X113857287Y-93731345D01*
X113765187Y-93880663D01*
X113765185Y-93880668D01*
X113737349Y-93964670D01*
X113710001Y-94047203D01*
X113710001Y-94047204D01*
X113710000Y-94047204D01*
X113699500Y-94149983D01*
X113699500Y-95350001D01*
X113699501Y-95350018D01*
X113710000Y-95452796D01*
X113710001Y-95452799D01*
X113722174Y-95489534D01*
X113765186Y-95619334D01*
X113857288Y-95768656D01*
X113981344Y-95892712D01*
X114130666Y-95984814D01*
X114297203Y-96039999D01*
X114399991Y-96050500D01*
X115600008Y-96050499D01*
X115702797Y-96039999D01*
X115869334Y-95984814D01*
X116018656Y-95892712D01*
X116142712Y-95768656D01*
X116234814Y-95619334D01*
X116289999Y-95452797D01*
X116300500Y-95350009D01*
X116300499Y-94149992D01*
X116289999Y-94047203D01*
X116234814Y-93880666D01*
X116142712Y-93731344D01*
X116073488Y-93662120D01*
X116040003Y-93600797D01*
X116044987Y-93531105D01*
X116060852Y-93501552D01*
X116111858Y-93431349D01*
X116111863Y-93431341D01*
X116204755Y-93249031D01*
X116267990Y-93054417D01*
X116300000Y-92852317D01*
X116300000Y-92647682D01*
X116267990Y-92445582D01*
X116204755Y-92250968D01*
X116111859Y-92068650D01*
X116079474Y-92024077D01*
X116079474Y-92024076D01*
X115400000Y-92703551D01*
X115400000Y-92697339D01*
X115372741Y-92595606D01*
X115320080Y-92504394D01*
X115245606Y-92429920D01*
X115154394Y-92377259D01*
X115052661Y-92350000D01*
X115046446Y-92350000D01*
X115725922Y-91670524D01*
X115725921Y-91670523D01*
X115681359Y-91638147D01*
X115681350Y-91638141D01*
X115499031Y-91545244D01*
X115304417Y-91482009D01*
X115102317Y-91450000D01*
X114897683Y-91450000D01*
X114695582Y-91482009D01*
X114500968Y-91545244D01*
X114318644Y-91638143D01*
X114274077Y-91670523D01*
X114274077Y-91670524D01*
X114953554Y-92350000D01*
X114947339Y-92350000D01*
X114845606Y-92377259D01*
X114754394Y-92429920D01*
X114679920Y-92504394D01*
X114627259Y-92595606D01*
X114600000Y-92697339D01*
X114600000Y-92703553D01*
X113920524Y-92024077D01*
X113884230Y-92026934D01*
X113870618Y-92024074D01*
X113856853Y-92026054D01*
X113837101Y-92017033D01*
X113815852Y-92012570D01*
X113805947Y-92002806D01*
X113793297Y-91997029D01*
X113781557Y-91978762D01*
X113766095Y-91963519D01*
X113762268Y-91948747D01*
X113755523Y-91938251D01*
X113750500Y-91903316D01*
X113750500Y-82061443D01*
X113770185Y-81994404D01*
X113822989Y-81948649D01*
X113892147Y-81938705D01*
X113955703Y-81967730D01*
X113962181Y-81973762D01*
X115966834Y-83978415D01*
X115966835Y-83978416D01*
X116071370Y-84082951D01*
X116071373Y-84082953D01*
X116071374Y-84082954D01*
X116194289Y-84165083D01*
X116194292Y-84165085D01*
X116244451Y-84185861D01*
X116250866Y-84188518D01*
X116330874Y-84221659D01*
X116447027Y-84244763D01*
X116470166Y-84249365D01*
X116475867Y-84250500D01*
X116475868Y-84250500D01*
X121073920Y-84250500D01*
X121171462Y-84231096D01*
X121218913Y-84221658D01*
X121355495Y-84165084D01*
X121423519Y-84119632D01*
X121478416Y-84082952D01*
X124025379Y-81535987D01*
X124086700Y-81502504D01*
X124095176Y-81501169D01*
X124098539Y-81500500D01*
X124098541Y-81500500D01*
X124291835Y-81462051D01*
X124473914Y-81386632D01*
X124637782Y-81277139D01*
X124777139Y-81137782D01*
X124886632Y-80973914D01*
X124962051Y-80791835D01*
X124988354Y-80659603D01*
X125000500Y-80598543D01*
X125000500Y-80401456D01*
X124962052Y-80208170D01*
X124962051Y-80208169D01*
X124962051Y-80208165D01*
X124961799Y-80207557D01*
X124886635Y-80026092D01*
X124886628Y-80026079D01*
X124777139Y-79862218D01*
X124777136Y-79862214D01*
X124637785Y-79722863D01*
X124637781Y-79722860D01*
X124473920Y-79613371D01*
X124473907Y-79613364D01*
X124291839Y-79537950D01*
X124291829Y-79537947D01*
X124098543Y-79499500D01*
X124098541Y-79499500D01*
X123901459Y-79499500D01*
X123901457Y-79499500D01*
X123708170Y-79537947D01*
X123708160Y-79537950D01*
X123526092Y-79613364D01*
X123526079Y-79613371D01*
X123362218Y-79722860D01*
X123362214Y-79722863D01*
X123222863Y-79862214D01*
X123222860Y-79862218D01*
X123113371Y-80026079D01*
X123113364Y-80026092D01*
X123037950Y-80208160D01*
X123037947Y-80208170D01*
X122998311Y-80407434D01*
X122996514Y-80407076D01*
X122973555Y-80463902D01*
X122964010Y-80474621D01*
X120725451Y-82713181D01*
X120664128Y-82746666D01*
X120637770Y-82749500D01*
X119608511Y-82749500D01*
X119541472Y-82729815D01*
X119495717Y-82677011D01*
X119485773Y-82607853D01*
X119514798Y-82544297D01*
X119543412Y-82519962D01*
X119668656Y-82442712D01*
X119792712Y-82318656D01*
X119884814Y-82169334D01*
X119939999Y-82002797D01*
X119950500Y-81900009D01*
X119950499Y-80599992D01*
X119948421Y-80579654D01*
X119939999Y-80497203D01*
X119939998Y-80497200D01*
X119910252Y-80407434D01*
X119884814Y-80330666D01*
X119792712Y-80181344D01*
X119668656Y-80057288D01*
X119519334Y-79965186D01*
X119519332Y-79965185D01*
X119513440Y-79961551D01*
X119466716Y-79909603D01*
X119455493Y-79840641D01*
X119483337Y-79776558D01*
X119490856Y-79768330D01*
X119629728Y-79629458D01*
X119754620Y-79457557D01*
X119851095Y-79268217D01*
X119916757Y-79066129D01*
X119916757Y-79066126D01*
X119927231Y-79000000D01*
X118879146Y-79000000D01*
X118917630Y-78933343D01*
X118950000Y-78812535D01*
X118950000Y-78687465D01*
X118917630Y-78566657D01*
X118879146Y-78500000D01*
X119927231Y-78500000D01*
X119916757Y-78433873D01*
X119916757Y-78433870D01*
X119851095Y-78231782D01*
X119754620Y-78042442D01*
X119629727Y-77870540D01*
X119629723Y-77870535D01*
X119479464Y-77720276D01*
X119479459Y-77720272D01*
X119314781Y-77600627D01*
X119272115Y-77545297D01*
X119266136Y-77475684D01*
X119298741Y-77413889D01*
X119314776Y-77399994D01*
X119479792Y-77280104D01*
X119630104Y-77129792D01*
X119630106Y-77129788D01*
X119630109Y-77129786D01*
X119755048Y-76957820D01*
X119755047Y-76957820D01*
X119755051Y-76957816D01*
X119851557Y-76768412D01*
X119917246Y-76566243D01*
X119950500Y-76356287D01*
X119950500Y-76143713D01*
X119917246Y-75933757D01*
X119851557Y-75731588D01*
X119755051Y-75542184D01*
X119755049Y-75542181D01*
X119755048Y-75542179D01*
X119630109Y-75370213D01*
X119479786Y-75219890D01*
X119307820Y-75094951D01*
X119118414Y-74998444D01*
X119118413Y-74998443D01*
X119118412Y-74998443D01*
X118916243Y-74932754D01*
X118916241Y-74932753D01*
X118916240Y-74932753D01*
X118754957Y-74907208D01*
X118706287Y-74899500D01*
X118243713Y-74899500D01*
X118195042Y-74907208D01*
X118033760Y-74932753D01*
X117831585Y-74998444D01*
X117642179Y-75094951D01*
X117470213Y-75219890D01*
X117319890Y-75370213D01*
X117194951Y-75542179D01*
X117098444Y-75731585D01*
X117032753Y-75933760D01*
X116999500Y-76143713D01*
X116999500Y-76356286D01*
X117031348Y-76557370D01*
X117032754Y-76566243D01*
X117094850Y-76757355D01*
X117098444Y-76768414D01*
X117194951Y-76957820D01*
X117319890Y-77129786D01*
X117470209Y-77280105D01*
X117470214Y-77280109D01*
X117635218Y-77399991D01*
X117677884Y-77455320D01*
X117683863Y-77524934D01*
X117651258Y-77586729D01*
X117635218Y-77600627D01*
X117470540Y-77720272D01*
X117470535Y-77720276D01*
X117320276Y-77870535D01*
X117320272Y-77870540D01*
X117195379Y-78042442D01*
X117098904Y-78231782D01*
X117033242Y-78433870D01*
X117033242Y-78433873D01*
X117022769Y-78500000D01*
X118070854Y-78500000D01*
X118032370Y-78566657D01*
X118000000Y-78687465D01*
X118000000Y-78812535D01*
X118032370Y-78933343D01*
X118070854Y-79000000D01*
X117022769Y-79000000D01*
X117033242Y-79066126D01*
X117033242Y-79066129D01*
X117098904Y-79268217D01*
X117195379Y-79457557D01*
X117320272Y-79629459D01*
X117320276Y-79629464D01*
X117459143Y-79768331D01*
X117492628Y-79829654D01*
X117487644Y-79899346D01*
X117445772Y-79955279D01*
X117436559Y-79961551D01*
X117281342Y-80057289D01*
X117157289Y-80181342D01*
X117065187Y-80330663D01*
X117065185Y-80330668D01*
X117049016Y-80379464D01*
X117010001Y-80497203D01*
X117010001Y-80497204D01*
X117010000Y-80497204D01*
X116999500Y-80599983D01*
X116999500Y-81900001D01*
X116999501Y-81900008D01*
X117010000Y-82002796D01*
X117010001Y-82002799D01*
X117065185Y-82169331D01*
X117065186Y-82169334D01*
X117157288Y-82318656D01*
X117281344Y-82442712D01*
X117406586Y-82519961D01*
X117453310Y-82571909D01*
X117464533Y-82640871D01*
X117436689Y-82704954D01*
X117378621Y-82743810D01*
X117341489Y-82749500D01*
X116912015Y-82749500D01*
X116844976Y-82729815D01*
X116824334Y-82713181D01*
X110337676Y-76226522D01*
X107024917Y-72913762D01*
X106991432Y-72852439D01*
X106996416Y-72782747D01*
X107012275Y-72753202D01*
X107041232Y-72713348D01*
X107119873Y-72559005D01*
X107173402Y-72394261D01*
X107200500Y-72223171D01*
X107200500Y-72049949D01*
X107173402Y-71878859D01*
X107119873Y-71714115D01*
X107041232Y-71559772D01*
X106939414Y-71419632D01*
X106816928Y-71297146D01*
X106676788Y-71195328D01*
X106522445Y-71116687D01*
X106357701Y-71063158D01*
X106357699Y-71063157D01*
X106357698Y-71063157D01*
X106226271Y-71042341D01*
X106186611Y-71036060D01*
X105213389Y-71036060D01*
X105173728Y-71042341D01*
X105042302Y-71063157D01*
X104877552Y-71116688D01*
X104723211Y-71195328D01*
X104643256Y-71253419D01*
X104583072Y-71297146D01*
X104583070Y-71297148D01*
X104583069Y-71297148D01*
X104460588Y-71419629D01*
X104460588Y-71419630D01*
X104460586Y-71419632D01*
X104439532Y-71448610D01*
X104358768Y-71559771D01*
X104280128Y-71714112D01*
X104226597Y-71878862D01*
X104211407Y-71974770D01*
X104199500Y-72049949D01*
X104199500Y-72223171D01*
X104226598Y-72394261D01*
X104279210Y-72556184D01*
X104280128Y-72559007D01*
X104285324Y-72569205D01*
X104298220Y-72637874D01*
X104271944Y-72702615D01*
X104214837Y-72742872D01*
X104174839Y-72749500D01*
X102926080Y-72749500D01*
X102781092Y-72778340D01*
X102781082Y-72778343D01*
X102644511Y-72834912D01*
X102644499Y-72834919D01*
X102576354Y-72880453D01*
X102576353Y-72880454D01*
X102521581Y-72917050D01*
X102521580Y-72917051D01*
X101548891Y-73889741D01*
X101487568Y-73923226D01*
X101461210Y-73926060D01*
X81557204Y-73926060D01*
X81490165Y-73906375D01*
X81469523Y-73889741D01*
X81416930Y-73837148D01*
X81416928Y-73837146D01*
X81276788Y-73735328D01*
X81122445Y-73656687D01*
X80957701Y-73603158D01*
X80957699Y-73603157D01*
X80957698Y-73603157D01*
X80826271Y-73582341D01*
X80786611Y-73576060D01*
X79813389Y-73576060D01*
X79773728Y-73582341D01*
X79642302Y-73603157D01*
X79477552Y-73656688D01*
X79323211Y-73735328D01*
X79244964Y-73792179D01*
X79183072Y-73837146D01*
X79183070Y-73837148D01*
X79183069Y-73837148D01*
X79060588Y-73959629D01*
X79060588Y-73959630D01*
X79060586Y-73959632D01*
X79044634Y-73981588D01*
X78958768Y-74099771D01*
X78880128Y-74254112D01*
X78880127Y-74254114D01*
X78880127Y-74254115D01*
X78872256Y-74278340D01*
X78826597Y-74418862D01*
X78826530Y-74419287D01*
X78799500Y-74589949D01*
X78799500Y-74763171D01*
X78821092Y-74899500D01*
X78826345Y-74932662D01*
X78817390Y-75001955D01*
X78772394Y-75055407D01*
X78705643Y-75076047D01*
X78703872Y-75076060D01*
X74862229Y-75076060D01*
X74795190Y-75056375D01*
X74774548Y-75039741D01*
X74151861Y-74417052D01*
X74151854Y-74417046D01*
X74078169Y-74367812D01*
X74078169Y-74367813D01*
X74028931Y-74334913D01*
X73892357Y-74278343D01*
X73892347Y-74278340D01*
X73747360Y-74249500D01*
X73747358Y-74249500D01*
X61165486Y-74249500D01*
X61098447Y-74229815D01*
X61052692Y-74177011D01*
X61042748Y-74107853D01*
X61065168Y-74052614D01*
X61111859Y-73988349D01*
X61204755Y-73806029D01*
X61267990Y-73611413D01*
X61276609Y-73557000D01*
X60315686Y-73557000D01*
X60320080Y-73552606D01*
X60372741Y-73461394D01*
X60400000Y-73359661D01*
X60400000Y-73254339D01*
X60372741Y-73152606D01*
X60320080Y-73061394D01*
X60315686Y-73057000D01*
X61276609Y-73057000D01*
X61267990Y-73002586D01*
X61204755Y-72807970D01*
X61111859Y-72625650D01*
X60991582Y-72460105D01*
X60991582Y-72460104D01*
X60846895Y-72315417D01*
X60681349Y-72195140D01*
X60603672Y-72155562D01*
X60603671Y-72155561D01*
X60588369Y-72147764D01*
X60537573Y-72099789D01*
X60525231Y-72049949D01*
X78799500Y-72049949D01*
X78799500Y-72223171D01*
X78826598Y-72394261D01*
X78880127Y-72559005D01*
X78958768Y-72713348D01*
X79060586Y-72853488D01*
X79183072Y-72975974D01*
X79323212Y-73077792D01*
X79477555Y-73156433D01*
X79642299Y-73209962D01*
X79813389Y-73237060D01*
X79813390Y-73237060D01*
X80786610Y-73237060D01*
X80786611Y-73237060D01*
X80957701Y-73209962D01*
X81122445Y-73156433D01*
X81276788Y-73077792D01*
X81416928Y-72975974D01*
X81539414Y-72853488D01*
X81641232Y-72713348D01*
X81719873Y-72559005D01*
X81773402Y-72394261D01*
X81800500Y-72223171D01*
X81800500Y-72049949D01*
X81773402Y-71878859D01*
X81719873Y-71714115D01*
X81641232Y-71559772D01*
X81539414Y-71419632D01*
X81416928Y-71297146D01*
X81276788Y-71195328D01*
X81122445Y-71116687D01*
X80957701Y-71063158D01*
X80957699Y-71063157D01*
X80957698Y-71063157D01*
X80826271Y-71042341D01*
X80786611Y-71036060D01*
X79813389Y-71036060D01*
X79773728Y-71042341D01*
X79642302Y-71063157D01*
X79477552Y-71116688D01*
X79323211Y-71195328D01*
X79243256Y-71253419D01*
X79183072Y-71297146D01*
X79183070Y-71297148D01*
X79183069Y-71297148D01*
X79060588Y-71419629D01*
X79060588Y-71419630D01*
X79060586Y-71419632D01*
X79039532Y-71448610D01*
X78958768Y-71559771D01*
X78880128Y-71714112D01*
X78826597Y-71878862D01*
X78811407Y-71974770D01*
X78799500Y-72049949D01*
X60525231Y-72049949D01*
X60520779Y-72031968D01*
X60543317Y-71965833D01*
X60588370Y-71926795D01*
X60588920Y-71926515D01*
X60681610Y-71879287D01*
X60702770Y-71863913D01*
X60847213Y-71758971D01*
X60847215Y-71758968D01*
X60847219Y-71758966D01*
X60991966Y-71614219D01*
X60991968Y-71614215D01*
X60991971Y-71614213D01*
X61053230Y-71529896D01*
X61112287Y-71448610D01*
X61205220Y-71266219D01*
X61268477Y-71071534D01*
X61300500Y-70869352D01*
X61300500Y-70664648D01*
X61268477Y-70462466D01*
X61266967Y-70457820D01*
X61217002Y-70304042D01*
X61205220Y-70267781D01*
X61205218Y-70267778D01*
X61205218Y-70267776D01*
X61145417Y-70150412D01*
X61112287Y-70085390D01*
X61087464Y-70051224D01*
X60991971Y-69919786D01*
X60847213Y-69775028D01*
X60681614Y-69654715D01*
X60670831Y-69649221D01*
X60588917Y-69607483D01*
X60538123Y-69559511D01*
X60521328Y-69491690D01*
X60543865Y-69425555D01*
X60588917Y-69386516D01*
X60681610Y-69339287D01*
X60702770Y-69323913D01*
X60847213Y-69218971D01*
X60847215Y-69218968D01*
X60847219Y-69218966D01*
X60991966Y-69074219D01*
X60991968Y-69074215D01*
X60991971Y-69074213D01*
X61044732Y-69001590D01*
X61112287Y-68908610D01*
X61205220Y-68726219D01*
X61268477Y-68531534D01*
X61300500Y-68329352D01*
X61300500Y-68124648D01*
X61268477Y-67922466D01*
X61205220Y-67727781D01*
X61205218Y-67727778D01*
X61205218Y-67727776D01*
X61171503Y-67661607D01*
X61112287Y-67545390D01*
X61104556Y-67534749D01*
X60991971Y-67379786D01*
X60847213Y-67235028D01*
X60681614Y-67114715D01*
X60675006Y-67111348D01*
X60588917Y-67067483D01*
X60538123Y-67019511D01*
X60521328Y-66951690D01*
X60543865Y-66885555D01*
X60588917Y-66846516D01*
X60681610Y-66799287D01*
X60702770Y-66783913D01*
X60847213Y-66678971D01*
X60847215Y-66678968D01*
X60847219Y-66678966D01*
X60991966Y-66534219D01*
X60991968Y-66534215D01*
X60991971Y-66534213D01*
X61111122Y-66370213D01*
X61112287Y-66368610D01*
X61205220Y-66186219D01*
X61268477Y-65991534D01*
X61300500Y-65789352D01*
X61300500Y-65584648D01*
X61286238Y-65494605D01*
X61268477Y-65382465D01*
X61205218Y-65187776D01*
X61160748Y-65100500D01*
X61112287Y-65005390D01*
X61104556Y-64994749D01*
X60991971Y-64839786D01*
X60847213Y-64695028D01*
X60681614Y-64574715D01*
X60623271Y-64544988D01*
X60588917Y-64527483D01*
X60538123Y-64479511D01*
X60521328Y-64411690D01*
X60543865Y-64345555D01*
X60588917Y-64306516D01*
X60681610Y-64259287D01*
X60759360Y-64202799D01*
X60847213Y-64138971D01*
X60847215Y-64138968D01*
X60847219Y-64138966D01*
X60991966Y-63994219D01*
X60991968Y-63994215D01*
X60991971Y-63994213D01*
X61044732Y-63921590D01*
X61112287Y-63828610D01*
X61205220Y-63646219D01*
X61268477Y-63451534D01*
X61300500Y-63249352D01*
X61300500Y-63044648D01*
X61293349Y-62999500D01*
X61268477Y-62842465D01*
X61216125Y-62681344D01*
X61205220Y-62647781D01*
X61205218Y-62647778D01*
X61205218Y-62647776D01*
X61159111Y-62557288D01*
X61112287Y-62465390D01*
X61093221Y-62439148D01*
X60991971Y-62299786D01*
X60847213Y-62155028D01*
X60681614Y-62034715D01*
X60662547Y-62025000D01*
X60588917Y-61987483D01*
X60538123Y-61939511D01*
X60521328Y-61871690D01*
X60543865Y-61805555D01*
X60588917Y-61766516D01*
X60681610Y-61719287D01*
X60718301Y-61692630D01*
X60845820Y-61599983D01*
X69024500Y-61599983D01*
X69024500Y-62900001D01*
X69024501Y-62900018D01*
X69035000Y-63002796D01*
X69035001Y-63002799D01*
X69067205Y-63099983D01*
X69090186Y-63169334D01*
X69173880Y-63305025D01*
X69182289Y-63318657D01*
X69306344Y-63442712D01*
X69461120Y-63538178D01*
X69507845Y-63590126D01*
X69519068Y-63659088D01*
X69491224Y-63723171D01*
X69483706Y-63731398D01*
X69344889Y-63870215D01*
X69219951Y-64042179D01*
X69123444Y-64231585D01*
X69057753Y-64433760D01*
X69024500Y-64643713D01*
X69024500Y-64856286D01*
X69052775Y-65034812D01*
X69057754Y-65066243D01*
X69122025Y-65264049D01*
X69123444Y-65268414D01*
X69219951Y-65457820D01*
X69344890Y-65629786D01*
X69495209Y-65780105D01*
X69495214Y-65780109D01*
X69659793Y-65899682D01*
X69702459Y-65955011D01*
X69708438Y-66024625D01*
X69675833Y-66086420D01*
X69659793Y-66100318D01*
X69495214Y-66219890D01*
X69495209Y-66219894D01*
X69344890Y-66370213D01*
X69219951Y-66542179D01*
X69123444Y-66731585D01*
X69057753Y-66933760D01*
X69024500Y-67143713D01*
X69024500Y-67356286D01*
X69057753Y-67566239D01*
X69123444Y-67768414D01*
X69219951Y-67957820D01*
X69344890Y-68129786D01*
X69495209Y-68280105D01*
X69495214Y-68280109D01*
X69659793Y-68399682D01*
X69702459Y-68455011D01*
X69708438Y-68524625D01*
X69675833Y-68586420D01*
X69659793Y-68600318D01*
X69495214Y-68719890D01*
X69495209Y-68719894D01*
X69344890Y-68870213D01*
X69219951Y-69042179D01*
X69123444Y-69231585D01*
X69057753Y-69433760D01*
X69024500Y-69643713D01*
X69024500Y-69856286D01*
X69054443Y-70045343D01*
X69057754Y-70066243D01*
X69123236Y-70267776D01*
X69123444Y-70268414D01*
X69219951Y-70457820D01*
X69344890Y-70629786D01*
X69495213Y-70780109D01*
X69667179Y-70905048D01*
X69667181Y-70905049D01*
X69667184Y-70905051D01*
X69856588Y-71001557D01*
X70058757Y-71067246D01*
X70268713Y-71100500D01*
X70268714Y-71100500D01*
X70731286Y-71100500D01*
X70731287Y-71100500D01*
X70941243Y-71067246D01*
X71143412Y-71001557D01*
X71332816Y-70905051D01*
X71381953Y-70869351D01*
X71504786Y-70780109D01*
X71504788Y-70780106D01*
X71504792Y-70780104D01*
X71655104Y-70629792D01*
X71655106Y-70629788D01*
X71655109Y-70629786D01*
X71780048Y-70457820D01*
X71780047Y-70457820D01*
X71780051Y-70457816D01*
X71876557Y-70268412D01*
X71942246Y-70066243D01*
X71975500Y-69856287D01*
X71975500Y-69643713D01*
X71942246Y-69433757D01*
X71876557Y-69231588D01*
X71780051Y-69042184D01*
X71780049Y-69042180D01*
X71762663Y-69018250D01*
X71762662Y-69018249D01*
X71712128Y-68948695D01*
X78799500Y-68948695D01*
X78799500Y-70244430D01*
X78799501Y-70244436D01*
X78805908Y-70304043D01*
X78856202Y-70438888D01*
X78856206Y-70438895D01*
X78942452Y-70554104D01*
X78942455Y-70554107D01*
X79057664Y-70640353D01*
X79057671Y-70640357D01*
X79192517Y-70690651D01*
X79192516Y-70690651D01*
X79199444Y-70691395D01*
X79252127Y-70697060D01*
X81347872Y-70697059D01*
X81407483Y-70690651D01*
X81542331Y-70640356D01*
X81657546Y-70554106D01*
X81743796Y-70438891D01*
X81794091Y-70304043D01*
X81800500Y-70244433D01*
X81800499Y-69346559D01*
X104225884Y-69346559D01*
X104225885Y-69346560D01*
X105384314Y-69346560D01*
X105379920Y-69350954D01*
X105327259Y-69442166D01*
X105300000Y-69543899D01*
X105300000Y-69649221D01*
X105327259Y-69750954D01*
X105379920Y-69842166D01*
X105384314Y-69846560D01*
X104225885Y-69846560D01*
X104227085Y-69854144D01*
X104280591Y-70018815D01*
X104359195Y-70173084D01*
X104460967Y-70313162D01*
X104583397Y-70435592D01*
X104723475Y-70537364D01*
X104877742Y-70615968D01*
X105042415Y-70669474D01*
X105213429Y-70696560D01*
X105450000Y-70696560D01*
X105450000Y-69912246D01*
X105454394Y-69916640D01*
X105545606Y-69969301D01*
X105647339Y-69996560D01*
X105752661Y-69996560D01*
X105854394Y-69969301D01*
X105945606Y-69916640D01*
X105950000Y-69912246D01*
X105950000Y-70696560D01*
X106186571Y-70696560D01*
X106357584Y-70669474D01*
X106522257Y-70615968D01*
X106676524Y-70537364D01*
X106816602Y-70435592D01*
X106939032Y-70313162D01*
X107040804Y-70173084D01*
X107119408Y-70018815D01*
X107172914Y-69854144D01*
X107174115Y-69846560D01*
X106015686Y-69846560D01*
X106020080Y-69842166D01*
X106072741Y-69750954D01*
X106100000Y-69649221D01*
X106100000Y-69543899D01*
X106072741Y-69442166D01*
X106020080Y-69350954D01*
X106015686Y-69346560D01*
X107174115Y-69346560D01*
X107174115Y-69346559D01*
X107172914Y-69338975D01*
X107119408Y-69174304D01*
X107040804Y-69020035D01*
X106939032Y-68879957D01*
X106816602Y-68757527D01*
X106676524Y-68655755D01*
X106522257Y-68577151D01*
X106357584Y-68523645D01*
X106186571Y-68496560D01*
X105950000Y-68496560D01*
X105950000Y-69280874D01*
X105945606Y-69276480D01*
X105854394Y-69223819D01*
X105752661Y-69196560D01*
X105647339Y-69196560D01*
X105545606Y-69223819D01*
X105454394Y-69276480D01*
X105450000Y-69280874D01*
X105450000Y-68496560D01*
X105213429Y-68496560D01*
X105042415Y-68523645D01*
X104877742Y-68577151D01*
X104723475Y-68655755D01*
X104583397Y-68757527D01*
X104460967Y-68879957D01*
X104359195Y-69020035D01*
X104280591Y-69174304D01*
X104227085Y-69338975D01*
X104225884Y-69346559D01*
X81800499Y-69346559D01*
X81800499Y-68948688D01*
X81794091Y-68889077D01*
X81790689Y-68879957D01*
X81743797Y-68754231D01*
X81743793Y-68754224D01*
X81657547Y-68639015D01*
X81657544Y-68639012D01*
X81542335Y-68552766D01*
X81542328Y-68552762D01*
X81407482Y-68502468D01*
X81407483Y-68502468D01*
X81347883Y-68496061D01*
X81347881Y-68496060D01*
X81347873Y-68496060D01*
X81347864Y-68496060D01*
X79252129Y-68496060D01*
X79252123Y-68496061D01*
X79192516Y-68502468D01*
X79057671Y-68552762D01*
X79057664Y-68552766D01*
X78942455Y-68639012D01*
X78942452Y-68639015D01*
X78856206Y-68754224D01*
X78856202Y-68754231D01*
X78805908Y-68889077D01*
X78799501Y-68948676D01*
X78799501Y-68948683D01*
X78799500Y-68948695D01*
X71712128Y-68948695D01*
X71655109Y-68870214D01*
X71655105Y-68870209D01*
X71504792Y-68719896D01*
X71504784Y-68719890D01*
X71340204Y-68600316D01*
X71297540Y-68544989D01*
X71291561Y-68475376D01*
X71324166Y-68413580D01*
X71340199Y-68399686D01*
X71504792Y-68280104D01*
X71655104Y-68129792D01*
X71655106Y-68129788D01*
X71655109Y-68129786D01*
X71780048Y-67957820D01*
X71780047Y-67957820D01*
X71780051Y-67957816D01*
X71876557Y-67768412D01*
X71942246Y-67566243D01*
X71975500Y-67356287D01*
X71975500Y-67143713D01*
X71942246Y-66933757D01*
X71876557Y-66731588D01*
X71780051Y-66542184D01*
X71780049Y-66542181D01*
X71780048Y-66542179D01*
X71655109Y-66370213D01*
X71504792Y-66219896D01*
X71467373Y-66192710D01*
X71340204Y-66100316D01*
X71297540Y-66044989D01*
X71291561Y-65975376D01*
X71324166Y-65913580D01*
X71340199Y-65899686D01*
X71504792Y-65780104D01*
X71655104Y-65629792D01*
X71655106Y-65629788D01*
X71655109Y-65629786D01*
X71780048Y-65457820D01*
X71780047Y-65457820D01*
X71780051Y-65457816D01*
X71876557Y-65268412D01*
X71942246Y-65066243D01*
X71975500Y-64856287D01*
X71975500Y-64643713D01*
X71942246Y-64433757D01*
X71876557Y-64231588D01*
X71780051Y-64042184D01*
X71780049Y-64042181D01*
X71780048Y-64042179D01*
X71655109Y-63870213D01*
X71516294Y-63731398D01*
X71482809Y-63670075D01*
X71487793Y-63600383D01*
X71529665Y-63544450D01*
X71538879Y-63538178D01*
X71544331Y-63534814D01*
X71544334Y-63534814D01*
X71693656Y-63442712D01*
X71817712Y-63318656D01*
X71909814Y-63169334D01*
X71964999Y-63002797D01*
X71975500Y-62900009D01*
X71975500Y-62899983D01*
X75199500Y-62899983D01*
X75199500Y-64100001D01*
X75199501Y-64100018D01*
X75210000Y-64202796D01*
X75210001Y-64202799D01*
X75224716Y-64247204D01*
X75265186Y-64369334D01*
X75357288Y-64518656D01*
X75481344Y-64642712D01*
X75630666Y-64734814D01*
X75797203Y-64789999D01*
X75899991Y-64800500D01*
X77100008Y-64800499D01*
X77202797Y-64789999D01*
X77369334Y-64734814D01*
X77518656Y-64642712D01*
X77587879Y-64573489D01*
X77649202Y-64540004D01*
X77718894Y-64544988D01*
X77748446Y-64560853D01*
X77818646Y-64611857D01*
X78000968Y-64704755D01*
X78195582Y-64767990D01*
X78397683Y-64800000D01*
X78602317Y-64800000D01*
X78804417Y-64767990D01*
X78999031Y-64704755D01*
X79181349Y-64611859D01*
X79225921Y-64579474D01*
X78546447Y-63900000D01*
X78552661Y-63900000D01*
X78654394Y-63872741D01*
X78745606Y-63820080D01*
X78820080Y-63745606D01*
X78872741Y-63654394D01*
X78900000Y-63552661D01*
X78900000Y-63546447D01*
X79579474Y-64225921D01*
X79611859Y-64181349D01*
X79704755Y-63999031D01*
X79767990Y-63804417D01*
X79800000Y-63602317D01*
X79800000Y-63397682D01*
X79767990Y-63195582D01*
X79704755Y-63000968D01*
X79611859Y-62818650D01*
X79579474Y-62774077D01*
X79579474Y-62774076D01*
X78900000Y-63453551D01*
X78900000Y-63447339D01*
X78872741Y-63345606D01*
X78820080Y-63254394D01*
X78745606Y-63179920D01*
X78654394Y-63127259D01*
X78552661Y-63100000D01*
X78546446Y-63100000D01*
X79225922Y-62420524D01*
X79225921Y-62420523D01*
X79181359Y-62388147D01*
X79181350Y-62388141D01*
X78999031Y-62295244D01*
X78804417Y-62232009D01*
X78602317Y-62200000D01*
X78397683Y-62200000D01*
X78195582Y-62232009D01*
X78000968Y-62295244D01*
X77818651Y-62388139D01*
X77748444Y-62439148D01*
X77682637Y-62462627D01*
X77614583Y-62446801D01*
X77587878Y-62426510D01*
X77518657Y-62357289D01*
X77518656Y-62357288D01*
X77374433Y-62268331D01*
X77369336Y-62265187D01*
X77369331Y-62265185D01*
X77367862Y-62264698D01*
X77202797Y-62210001D01*
X77202795Y-62210000D01*
X77100010Y-62199500D01*
X75899998Y-62199500D01*
X75899981Y-62199501D01*
X75797203Y-62210000D01*
X75797200Y-62210001D01*
X75630668Y-62265185D01*
X75630663Y-62265187D01*
X75481342Y-62357289D01*
X75357289Y-62481342D01*
X75265187Y-62630663D01*
X75265185Y-62630668D01*
X75237349Y-62714670D01*
X75210001Y-62797203D01*
X75210001Y-62797204D01*
X75210000Y-62797204D01*
X75199500Y-62899983D01*
X71975500Y-62899983D01*
X71975499Y-62250000D01*
X71975499Y-61599998D01*
X71975498Y-61599981D01*
X71964999Y-61497203D01*
X71964998Y-61497200D01*
X71943838Y-61433343D01*
X71909814Y-61330666D01*
X71817712Y-61181344D01*
X71693656Y-61057288D01*
X71544334Y-60965186D01*
X71377797Y-60910001D01*
X71377795Y-60910000D01*
X71275010Y-60899500D01*
X69724998Y-60899500D01*
X69724981Y-60899501D01*
X69622203Y-60910000D01*
X69622200Y-60910001D01*
X69455668Y-60965185D01*
X69455663Y-60965187D01*
X69306342Y-61057289D01*
X69182289Y-61181342D01*
X69090187Y-61330663D01*
X69090186Y-61330666D01*
X69035001Y-61497203D01*
X69035001Y-61497204D01*
X69035000Y-61497204D01*
X69024500Y-61599983D01*
X60845820Y-61599983D01*
X60847213Y-61598971D01*
X60847215Y-61598968D01*
X60847219Y-61598966D01*
X60991966Y-61454219D01*
X60991968Y-61454215D01*
X60991971Y-61454213D01*
X61081730Y-61330668D01*
X61112287Y-61288610D01*
X61205220Y-61106219D01*
X61268477Y-60911534D01*
X61300500Y-60709352D01*
X61300500Y-60504648D01*
X61285841Y-60412095D01*
X61268477Y-60302465D01*
X61239127Y-60212137D01*
X61205220Y-60107781D01*
X61205218Y-60107778D01*
X61205218Y-60107776D01*
X61137913Y-59975684D01*
X61112287Y-59925390D01*
X61060177Y-59853666D01*
X60991971Y-59759786D01*
X60847213Y-59615028D01*
X60681611Y-59494713D01*
X60588369Y-59447203D01*
X60537574Y-59399229D01*
X60520779Y-59331407D01*
X60543317Y-59265273D01*
X60588371Y-59226234D01*
X60681347Y-59178861D01*
X60846894Y-59058582D01*
X60846895Y-59058582D01*
X60991582Y-58913895D01*
X60991582Y-58913894D01*
X61111861Y-58748347D01*
X61196340Y-58582547D01*
X61196340Y-58582546D01*
X61196341Y-58582545D01*
X61204755Y-58566031D01*
X61267990Y-58371413D01*
X61276609Y-58317000D01*
X60315686Y-58317000D01*
X60320080Y-58312606D01*
X60372741Y-58221394D01*
X60400000Y-58119661D01*
X60400000Y-58014339D01*
X60372741Y-57912606D01*
X60320080Y-57821394D01*
X60315686Y-57817000D01*
X61276609Y-57817000D01*
X61267990Y-57762586D01*
X61204755Y-57567970D01*
X61115967Y-57393713D01*
X132774500Y-57393713D01*
X132774500Y-57606286D01*
X132799255Y-57762586D01*
X132807754Y-57816243D01*
X132839064Y-57912606D01*
X132873444Y-58018414D01*
X132969951Y-58207820D01*
X133094890Y-58379786D01*
X133245209Y-58530105D01*
X133245214Y-58530109D01*
X133410218Y-58649991D01*
X133452884Y-58705320D01*
X133458863Y-58774934D01*
X133426258Y-58836729D01*
X133410218Y-58850627D01*
X133245540Y-58970272D01*
X133245535Y-58970276D01*
X133095276Y-59120535D01*
X133095272Y-59120540D01*
X132970379Y-59292442D01*
X132873904Y-59481782D01*
X132808242Y-59683870D01*
X132808242Y-59683873D01*
X132797769Y-59750000D01*
X133845854Y-59750000D01*
X133807370Y-59816657D01*
X133775000Y-59937465D01*
X133775000Y-60062535D01*
X133807370Y-60183343D01*
X133845854Y-60250000D01*
X132797769Y-60250000D01*
X132808242Y-60316126D01*
X132808242Y-60316129D01*
X132873904Y-60518217D01*
X132970379Y-60707557D01*
X133095272Y-60879459D01*
X133095276Y-60879464D01*
X133245535Y-61029723D01*
X133245540Y-61029727D01*
X133410644Y-61149682D01*
X133453310Y-61205012D01*
X133459289Y-61274625D01*
X133426684Y-61336420D01*
X133410644Y-61350318D01*
X133245540Y-61470272D01*
X133245535Y-61470276D01*
X133095276Y-61620535D01*
X133095272Y-61620540D01*
X132970379Y-61792442D01*
X132873904Y-61981782D01*
X132808242Y-62183870D01*
X132808242Y-62183873D01*
X132797769Y-62250000D01*
X133845854Y-62250000D01*
X133807370Y-62316657D01*
X133775000Y-62437465D01*
X133775000Y-62562535D01*
X133807370Y-62683343D01*
X133845854Y-62750000D01*
X132797769Y-62750000D01*
X132808242Y-62816126D01*
X132808242Y-62816129D01*
X132873904Y-63018217D01*
X132970379Y-63207557D01*
X133095272Y-63379459D01*
X133095276Y-63379464D01*
X133234143Y-63518331D01*
X133267628Y-63579654D01*
X133262644Y-63649346D01*
X133220772Y-63705279D01*
X133211559Y-63711551D01*
X133056342Y-63807289D01*
X132932289Y-63931342D01*
X132840187Y-64080663D01*
X132840185Y-64080668D01*
X132812349Y-64164670D01*
X132785001Y-64247203D01*
X132785001Y-64247204D01*
X132785000Y-64247204D01*
X132774500Y-64349983D01*
X132774500Y-65650001D01*
X132774501Y-65650018D01*
X132785000Y-65752796D01*
X132785001Y-65752799D01*
X132797114Y-65789352D01*
X132840186Y-65919334D01*
X132932288Y-66068656D01*
X133056344Y-66192712D01*
X133205666Y-66284814D01*
X133372203Y-66339999D01*
X133474991Y-66350500D01*
X135025008Y-66350499D01*
X135127797Y-66339999D01*
X135294334Y-66284814D01*
X135443656Y-66192712D01*
X135567712Y-66068656D01*
X135659814Y-65919334D01*
X135714999Y-65752797D01*
X135725500Y-65650009D01*
X135725499Y-64349992D01*
X135714999Y-64247203D01*
X135659814Y-64080666D01*
X135567712Y-63931344D01*
X135443656Y-63807288D01*
X135294334Y-63715186D01*
X135294332Y-63715185D01*
X135288440Y-63711551D01*
X135241716Y-63659603D01*
X135230493Y-63590641D01*
X135258337Y-63526558D01*
X135265856Y-63518330D01*
X135404728Y-63379458D01*
X135529620Y-63207557D01*
X135626095Y-63018217D01*
X135691757Y-62816129D01*
X135691757Y-62816126D01*
X135702231Y-62750000D01*
X134654146Y-62750000D01*
X134692630Y-62683343D01*
X134725000Y-62562535D01*
X134725000Y-62437465D01*
X134692630Y-62316657D01*
X134654146Y-62250000D01*
X135702231Y-62250000D01*
X135691757Y-62183873D01*
X135691757Y-62183870D01*
X135626095Y-61981782D01*
X135529620Y-61792442D01*
X135404727Y-61620540D01*
X135404723Y-61620535D01*
X135254460Y-61470272D01*
X135089355Y-61350318D01*
X135046689Y-61294989D01*
X135040710Y-61225375D01*
X135073315Y-61163580D01*
X135089355Y-61149682D01*
X135254460Y-61029727D01*
X135404723Y-60879464D01*
X135404727Y-60879459D01*
X135529620Y-60707557D01*
X135626095Y-60518217D01*
X135691757Y-60316129D01*
X135691757Y-60316126D01*
X135702231Y-60250000D01*
X134654146Y-60250000D01*
X134692630Y-60183343D01*
X134725000Y-60062535D01*
X134725000Y-59937465D01*
X134692630Y-59816657D01*
X134654146Y-59750000D01*
X135702231Y-59750000D01*
X135691757Y-59683873D01*
X135691757Y-59683870D01*
X135626095Y-59481782D01*
X135529620Y-59292442D01*
X135404727Y-59120540D01*
X135404723Y-59120535D01*
X135254464Y-58970276D01*
X135254459Y-58970272D01*
X135089781Y-58850627D01*
X135047115Y-58795297D01*
X135041136Y-58725684D01*
X135073741Y-58663889D01*
X135089776Y-58649994D01*
X135254792Y-58530104D01*
X135405104Y-58379792D01*
X135405106Y-58379788D01*
X135405109Y-58379786D01*
X135530048Y-58207820D01*
X135530047Y-58207820D01*
X135530051Y-58207816D01*
X135626557Y-58018412D01*
X135692246Y-57816243D01*
X135725500Y-57606287D01*
X135725500Y-57393713D01*
X135692246Y-57183757D01*
X135626557Y-56981588D01*
X135530051Y-56792184D01*
X135530049Y-56792181D01*
X135530048Y-56792179D01*
X135405109Y-56620213D01*
X135254786Y-56469890D01*
X135082820Y-56344951D01*
X134893414Y-56248444D01*
X134893413Y-56248443D01*
X134893412Y-56248443D01*
X134691243Y-56182754D01*
X134691241Y-56182753D01*
X134691240Y-56182753D01*
X134529957Y-56157208D01*
X134481287Y-56149500D01*
X134018713Y-56149500D01*
X133970042Y-56157208D01*
X133808760Y-56182753D01*
X133606585Y-56248444D01*
X133417179Y-56344951D01*
X133245213Y-56469890D01*
X133094890Y-56620213D01*
X132969951Y-56792179D01*
X132873444Y-56981585D01*
X132807753Y-57183760D01*
X132774500Y-57393713D01*
X61115967Y-57393713D01*
X61111859Y-57385650D01*
X60991582Y-57220105D01*
X60991582Y-57220104D01*
X60846895Y-57075417D01*
X60681349Y-56955140D01*
X60588370Y-56907765D01*
X60537574Y-56859790D01*
X60520779Y-56791969D01*
X60543316Y-56725835D01*
X60588370Y-56686795D01*
X60592788Y-56684544D01*
X60681610Y-56639287D01*
X60707870Y-56620208D01*
X60847213Y-56518971D01*
X60847215Y-56518968D01*
X60847219Y-56518966D01*
X60991966Y-56374219D01*
X60991968Y-56374215D01*
X60991971Y-56374213D01*
X61083346Y-56248444D01*
X61112287Y-56208610D01*
X61185398Y-56065123D01*
X61205218Y-56026223D01*
X61205218Y-56026222D01*
X61205220Y-56026219D01*
X61268477Y-55831534D01*
X61300500Y-55629352D01*
X61300500Y-55424648D01*
X61268477Y-55222466D01*
X61268476Y-55222464D01*
X61205448Y-55028484D01*
X61205220Y-55027781D01*
X61188533Y-54995031D01*
X70200000Y-54995031D01*
X70200000Y-55199666D01*
X70232009Y-55401766D01*
X70295244Y-55596380D01*
X70388141Y-55778699D01*
X70388147Y-55778708D01*
X70420523Y-55823270D01*
X70420524Y-55823271D01*
X71100000Y-55143795D01*
X71100000Y-55150010D01*
X71127259Y-55251743D01*
X71179920Y-55342955D01*
X71254394Y-55417429D01*
X71345606Y-55470090D01*
X71447339Y-55497349D01*
X71453553Y-55497349D01*
X70774076Y-56176823D01*
X70818650Y-56209208D01*
X71000968Y-56302104D01*
X71195582Y-56365339D01*
X71397683Y-56397349D01*
X71602317Y-56397349D01*
X71804417Y-56365339D01*
X71999031Y-56302104D01*
X72181349Y-56209208D01*
X72225921Y-56176823D01*
X71546447Y-55497349D01*
X71552661Y-55497349D01*
X71654394Y-55470090D01*
X71745606Y-55417429D01*
X71820080Y-55342955D01*
X71872741Y-55251743D01*
X71900000Y-55150010D01*
X71900000Y-55143796D01*
X72579474Y-55823270D01*
X72611859Y-55778698D01*
X72704755Y-55596380D01*
X72767990Y-55401766D01*
X72800000Y-55199666D01*
X72800000Y-54995031D01*
X72767990Y-54792931D01*
X72704755Y-54598317D01*
X72611859Y-54415999D01*
X72579474Y-54371426D01*
X72579474Y-54371425D01*
X71900000Y-55050900D01*
X71900000Y-55044688D01*
X71872741Y-54942955D01*
X71820080Y-54851743D01*
X71745606Y-54777269D01*
X71654394Y-54724608D01*
X71552661Y-54697349D01*
X71546446Y-54697349D01*
X72225922Y-54017873D01*
X72225921Y-54017872D01*
X72181359Y-53985496D01*
X72181350Y-53985490D01*
X71999031Y-53892593D01*
X71804417Y-53829358D01*
X71602317Y-53797349D01*
X71397683Y-53797349D01*
X71195582Y-53829358D01*
X71000968Y-53892593D01*
X70818644Y-53985492D01*
X70774077Y-54017872D01*
X70774077Y-54017873D01*
X71453554Y-54697349D01*
X71447339Y-54697349D01*
X71345606Y-54724608D01*
X71254394Y-54777269D01*
X71179920Y-54851743D01*
X71127259Y-54942955D01*
X71100000Y-55044688D01*
X71100000Y-55050902D01*
X70420524Y-54371426D01*
X70420523Y-54371426D01*
X70388143Y-54415993D01*
X70295244Y-54598317D01*
X70232009Y-54792931D01*
X70200000Y-54995031D01*
X61188533Y-54995031D01*
X61112287Y-54845390D01*
X61062795Y-54777269D01*
X60991971Y-54679786D01*
X60847213Y-54535028D01*
X60681613Y-54414715D01*
X60681612Y-54414714D01*
X60681610Y-54414713D01*
X60596653Y-54371425D01*
X60499223Y-54321781D01*
X60304534Y-54258522D01*
X60129995Y-54230878D01*
X60102352Y-54226500D01*
X59897648Y-54226500D01*
X59857184Y-54232909D01*
X59695464Y-54258523D01*
X59695457Y-54258524D01*
X59605091Y-54287886D01*
X59598723Y-54288067D01*
X59593132Y-54291121D01*
X59564221Y-54289053D01*
X59535250Y-54289881D01*
X59529795Y-54286591D01*
X59523440Y-54286137D01*
X59500235Y-54268766D01*
X59475418Y-54253800D01*
X59472607Y-54248083D01*
X59467507Y-54244265D01*
X59457378Y-54217109D01*
X59444590Y-54191099D01*
X59445316Y-54184769D01*
X59443090Y-54178801D01*
X59449250Y-54150480D01*
X59452555Y-54121685D01*
X59456927Y-54115191D01*
X59457942Y-54110528D01*
X59479090Y-54082277D01*
X62082952Y-51478416D01*
X62135013Y-51400500D01*
X62165084Y-51355495D01*
X62195904Y-51281088D01*
X62221659Y-51218912D01*
X62250500Y-51073917D01*
X62250500Y-50997332D01*
X70199500Y-50997332D01*
X70199500Y-52197350D01*
X70199501Y-52197367D01*
X70210000Y-52300145D01*
X70210001Y-52300148D01*
X70265185Y-52466680D01*
X70265186Y-52466683D01*
X70357288Y-52616005D01*
X70481344Y-52740061D01*
X70630666Y-52832163D01*
X70797203Y-52887348D01*
X70899991Y-52897849D01*
X72100008Y-52897848D01*
X72202797Y-52887348D01*
X72369334Y-52832163D01*
X72518656Y-52740061D01*
X72642712Y-52616005D01*
X72734814Y-52466683D01*
X72789999Y-52300146D01*
X72800500Y-52197358D01*
X72800499Y-50997341D01*
X72789999Y-50894552D01*
X72734814Y-50728015D01*
X72642712Y-50578693D01*
X72518656Y-50454637D01*
X72369334Y-50362535D01*
X72202797Y-50307350D01*
X72202795Y-50307349D01*
X72100010Y-50296849D01*
X70899998Y-50296849D01*
X70899981Y-50296850D01*
X70797203Y-50307349D01*
X70797200Y-50307350D01*
X70630668Y-50362534D01*
X70630663Y-50362536D01*
X70481342Y-50454638D01*
X70357289Y-50578691D01*
X70265187Y-50728012D01*
X70265186Y-50728015D01*
X70210001Y-50894552D01*
X70210001Y-50894553D01*
X70210000Y-50894553D01*
X70199500Y-50997332D01*
X62250500Y-50997332D01*
X62250500Y-50926082D01*
X62250500Y-49426082D01*
X62250500Y-49426079D01*
X62221659Y-49281092D01*
X62221658Y-49281091D01*
X62221658Y-49281087D01*
X62201128Y-49231522D01*
X62165087Y-49144511D01*
X62165080Y-49144498D01*
X62082952Y-49021585D01*
X62082951Y-49021584D01*
X61978416Y-48917049D01*
X61498366Y-48436999D01*
X61011448Y-47950080D01*
X60478421Y-47417052D01*
X60478414Y-47417046D01*
X60404729Y-47367812D01*
X60404729Y-47367813D01*
X60355491Y-47334913D01*
X60218917Y-47278343D01*
X60218907Y-47278340D01*
X60073920Y-47249500D01*
X60073918Y-47249500D01*
X56926082Y-47249500D01*
X56926080Y-47249500D01*
X56781092Y-47278340D01*
X56781086Y-47278342D01*
X56644508Y-47334914D01*
X56644496Y-47334921D01*
X56595269Y-47367813D01*
X56521588Y-47417044D01*
X56521580Y-47417050D01*
X54765104Y-49173526D01*
X54703781Y-49207011D01*
X54658025Y-49208318D01*
X54602352Y-49199500D01*
X54397648Y-49199500D01*
X54373329Y-49203351D01*
X54195465Y-49231522D01*
X54000776Y-49294781D01*
X53818386Y-49387715D01*
X53652786Y-49508028D01*
X53508028Y-49652786D01*
X53387715Y-49818386D01*
X53294781Y-50000776D01*
X53231522Y-50195465D01*
X53199500Y-50397648D01*
X53199500Y-50602351D01*
X53231522Y-50804534D01*
X53294781Y-50999223D01*
X53358691Y-51124653D01*
X53387585Y-51181359D01*
X53387715Y-51181613D01*
X53508028Y-51347213D01*
X53652786Y-51491971D01*
X53765579Y-51573918D01*
X53818390Y-51612287D01*
X53934607Y-51671503D01*
X54000776Y-51705218D01*
X54000778Y-51705218D01*
X54000781Y-51705220D01*
X54035473Y-51716492D01*
X54195465Y-51768477D01*
X54296557Y-51784488D01*
X54397648Y-51800500D01*
X54397649Y-51800500D01*
X54602351Y-51800500D01*
X54602352Y-51800500D01*
X54804534Y-51768477D01*
X54999219Y-51705220D01*
X55181610Y-51612287D01*
X55274590Y-51544732D01*
X55347213Y-51491971D01*
X55347215Y-51491968D01*
X55347219Y-51491966D01*
X55491966Y-51347219D01*
X55491968Y-51347215D01*
X55491971Y-51347213D01*
X55544732Y-51274590D01*
X55612287Y-51181610D01*
X55705220Y-50999219D01*
X55768477Y-50804534D01*
X55800500Y-50602352D01*
X55800500Y-50397648D01*
X55791681Y-50341971D01*
X55800635Y-50272680D01*
X55826470Y-50234896D01*
X57274549Y-48786819D01*
X57335872Y-48753334D01*
X57362230Y-48750500D01*
X59637770Y-48750500D01*
X59704809Y-48770185D01*
X59725451Y-48786819D01*
X60713181Y-49774548D01*
X60746666Y-49835871D01*
X60749500Y-49862229D01*
X60749500Y-50637769D01*
X60729815Y-50704808D01*
X60713181Y-50725450D01*
X60457720Y-50980911D01*
X60396397Y-51014396D01*
X60326705Y-51009412D01*
X60270772Y-50967540D01*
X60246355Y-50902076D01*
X60252109Y-50854910D01*
X60268475Y-50804541D01*
X60268475Y-50804539D01*
X60268477Y-50804534D01*
X60300500Y-50602352D01*
X60300500Y-50397648D01*
X60280707Y-50272680D01*
X60268477Y-50195465D01*
X60237458Y-50100000D01*
X60205220Y-50000781D01*
X60205218Y-50000778D01*
X60205218Y-50000776D01*
X60134624Y-49862229D01*
X60112287Y-49818390D01*
X60080092Y-49774077D01*
X59991971Y-49652786D01*
X59847213Y-49508028D01*
X59681613Y-49387715D01*
X59681612Y-49387714D01*
X59681610Y-49387713D01*
X59624653Y-49358691D01*
X59499223Y-49294781D01*
X59304534Y-49231522D01*
X59129995Y-49203878D01*
X59102352Y-49199500D01*
X58897648Y-49199500D01*
X58873329Y-49203351D01*
X58695465Y-49231522D01*
X58500776Y-49294781D01*
X58318386Y-49387715D01*
X58152786Y-49508028D01*
X58008028Y-49652786D01*
X57887715Y-49818386D01*
X57794781Y-50000776D01*
X57731522Y-50195465D01*
X57699500Y-50397648D01*
X57699500Y-50602351D01*
X57731522Y-50804534D01*
X57794781Y-50999223D01*
X57858691Y-51124653D01*
X57887585Y-51181359D01*
X57887715Y-51181613D01*
X57980870Y-51309831D01*
X58004350Y-51375637D01*
X57988524Y-51443691D01*
X57968233Y-51470397D01*
X53892181Y-55546450D01*
X53830858Y-55579935D01*
X53761166Y-55574951D01*
X53705233Y-55533079D01*
X53680816Y-55467615D01*
X53680500Y-55458769D01*
X53680500Y-55424648D01*
X53648477Y-55222465D01*
X53585218Y-55027776D01*
X53539515Y-54938080D01*
X53492287Y-54845390D01*
X53442795Y-54777269D01*
X53371971Y-54679786D01*
X53227213Y-54535028D01*
X53061613Y-54414715D01*
X53061612Y-54414714D01*
X53061610Y-54414713D01*
X52976653Y-54371425D01*
X52879223Y-54321781D01*
X52684534Y-54258522D01*
X52509995Y-54230878D01*
X52482352Y-54226500D01*
X52277648Y-54226500D01*
X52253329Y-54230351D01*
X52075465Y-54258522D01*
X51880776Y-54321781D01*
X51698386Y-54414715D01*
X51532786Y-54535028D01*
X51388028Y-54679786D01*
X51267715Y-54845386D01*
X51220485Y-54938080D01*
X51172510Y-54988876D01*
X51104689Y-55005671D01*
X51038554Y-54983134D01*
X50999515Y-54938080D01*
X50998883Y-54936840D01*
X50952287Y-54845390D01*
X50902795Y-54777269D01*
X50831971Y-54679786D01*
X50687213Y-54535028D01*
X50521613Y-54414715D01*
X50521612Y-54414714D01*
X50521610Y-54414713D01*
X50436653Y-54371425D01*
X50339223Y-54321781D01*
X50144534Y-54258522D01*
X49969995Y-54230878D01*
X49942352Y-54226500D01*
X49737648Y-54226500D01*
X49713329Y-54230351D01*
X49535465Y-54258522D01*
X49340776Y-54321781D01*
X49158386Y-54414715D01*
X48992786Y-54535028D01*
X48848032Y-54679782D01*
X48821668Y-54716070D01*
X48766338Y-54758735D01*
X48696724Y-54764714D01*
X48634929Y-54732108D01*
X48600572Y-54671269D01*
X48598060Y-54656438D01*
X48597640Y-54652533D01*
X48594091Y-54619517D01*
X48543796Y-54484669D01*
X48543795Y-54484668D01*
X48543793Y-54484664D01*
X48457547Y-54369455D01*
X48457544Y-54369452D01*
X48342335Y-54283206D01*
X48342328Y-54283202D01*
X48207482Y-54232908D01*
X48207483Y-54232908D01*
X48147883Y-54226501D01*
X48147881Y-54226500D01*
X48147873Y-54226500D01*
X48147864Y-54226500D01*
X46452129Y-54226500D01*
X46452123Y-54226501D01*
X46392516Y-54232908D01*
X46257671Y-54283202D01*
X46257664Y-54283206D01*
X46142455Y-54369452D01*
X46142452Y-54369455D01*
X46056206Y-54484664D01*
X46056202Y-54484671D01*
X46005908Y-54619517D01*
X45999501Y-54679116D01*
X45999500Y-54679135D01*
X42000500Y-54679135D01*
X42000500Y-50397682D01*
X44200000Y-50397682D01*
X44200000Y-50602317D01*
X44232009Y-50804417D01*
X44295244Y-50999031D01*
X44388141Y-51181350D01*
X44388147Y-51181359D01*
X44420523Y-51225921D01*
X44420524Y-51225922D01*
X45100000Y-50546446D01*
X45100000Y-50552661D01*
X45127259Y-50654394D01*
X45179920Y-50745606D01*
X45254394Y-50820080D01*
X45345606Y-50872741D01*
X45447339Y-50900000D01*
X45453553Y-50900000D01*
X44774076Y-51579474D01*
X44818650Y-51611859D01*
X45000968Y-51704755D01*
X45195582Y-51767990D01*
X45397683Y-51800000D01*
X45602317Y-51800000D01*
X45804417Y-51767990D01*
X45999031Y-51704755D01*
X46181349Y-51611859D01*
X46225921Y-51579474D01*
X45546447Y-50900000D01*
X45552661Y-50900000D01*
X45654394Y-50872741D01*
X45745606Y-50820080D01*
X45820080Y-50745606D01*
X45872741Y-50654394D01*
X45900000Y-50552661D01*
X45900000Y-50546447D01*
X46579474Y-51225921D01*
X46611859Y-51181349D01*
X46704755Y-50999031D01*
X46767990Y-50804417D01*
X46800000Y-50602317D01*
X46800000Y-50397682D01*
X48700000Y-50397682D01*
X48700000Y-50602317D01*
X48732009Y-50804417D01*
X48795244Y-50999031D01*
X48888141Y-51181350D01*
X48888147Y-51181359D01*
X48920523Y-51225921D01*
X48920524Y-51225922D01*
X49600000Y-50546446D01*
X49600000Y-50552661D01*
X49627259Y-50654394D01*
X49679920Y-50745606D01*
X49754394Y-50820080D01*
X49845606Y-50872741D01*
X49947339Y-50900000D01*
X49953553Y-50900000D01*
X49274076Y-51579474D01*
X49318650Y-51611859D01*
X49500968Y-51704755D01*
X49695582Y-51767990D01*
X49897683Y-51800000D01*
X50102317Y-51800000D01*
X50304417Y-51767990D01*
X50499031Y-51704755D01*
X50681349Y-51611859D01*
X50725921Y-51579474D01*
X50046447Y-50900000D01*
X50052661Y-50900000D01*
X50154394Y-50872741D01*
X50245606Y-50820080D01*
X50320080Y-50745606D01*
X50372741Y-50654394D01*
X50400000Y-50552661D01*
X50400000Y-50546448D01*
X51079474Y-51225922D01*
X51079474Y-51225921D01*
X51111859Y-51181349D01*
X51204755Y-50999031D01*
X51267990Y-50804417D01*
X51300000Y-50602317D01*
X51300000Y-50397682D01*
X51267990Y-50195582D01*
X51204755Y-50000968D01*
X51111859Y-49818650D01*
X51079474Y-49774077D01*
X51079474Y-49774076D01*
X50400000Y-50453551D01*
X50400000Y-50447339D01*
X50372741Y-50345606D01*
X50320080Y-50254394D01*
X50245606Y-50179920D01*
X50154394Y-50127259D01*
X50052661Y-50100000D01*
X50046446Y-50100000D01*
X50725922Y-49420524D01*
X50725921Y-49420523D01*
X50681359Y-49388147D01*
X50681350Y-49388141D01*
X50499031Y-49295244D01*
X50304417Y-49232009D01*
X50102317Y-49200000D01*
X49897683Y-49200000D01*
X49695582Y-49232009D01*
X49500968Y-49295244D01*
X49318644Y-49388143D01*
X49274077Y-49420523D01*
X49274077Y-49420524D01*
X49953554Y-50100000D01*
X49947339Y-50100000D01*
X49845606Y-50127259D01*
X49754394Y-50179920D01*
X49679920Y-50254394D01*
X49627259Y-50345606D01*
X49600000Y-50447339D01*
X49600000Y-50453553D01*
X48920524Y-49774077D01*
X48920523Y-49774077D01*
X48888143Y-49818644D01*
X48795244Y-50000968D01*
X48732009Y-50195582D01*
X48700000Y-50397682D01*
X46800000Y-50397682D01*
X46767990Y-50195582D01*
X46704755Y-50000968D01*
X46611859Y-49818650D01*
X46579474Y-49774077D01*
X46579474Y-49774076D01*
X45900000Y-50453551D01*
X45900000Y-50447339D01*
X45872741Y-50345606D01*
X45820080Y-50254394D01*
X45745606Y-50179920D01*
X45654394Y-50127259D01*
X45552661Y-50100000D01*
X45546446Y-50100000D01*
X46225922Y-49420524D01*
X46225921Y-49420523D01*
X46181359Y-49388147D01*
X46181350Y-49388141D01*
X45999031Y-49295244D01*
X45804417Y-49232009D01*
X45602317Y-49200000D01*
X45397683Y-49200000D01*
X45195582Y-49232009D01*
X45000968Y-49295244D01*
X44818644Y-49388143D01*
X44774077Y-49420523D01*
X44774077Y-49420524D01*
X45453554Y-50100000D01*
X45447339Y-50100000D01*
X45345606Y-50127259D01*
X45254394Y-50179920D01*
X45179920Y-50254394D01*
X45127259Y-50345606D01*
X45100000Y-50447339D01*
X45100000Y-50453553D01*
X44420524Y-49774077D01*
X44420523Y-49774077D01*
X44388143Y-49818644D01*
X44295244Y-50000968D01*
X44232009Y-50195582D01*
X44200000Y-50397682D01*
X42000500Y-50397682D01*
X42000500Y-46568947D01*
X80500000Y-46568947D01*
X80500000Y-46805052D01*
X80536934Y-47038247D01*
X80609897Y-47262802D01*
X80717087Y-47473174D01*
X80777338Y-47556104D01*
X80777340Y-47556105D01*
X81517037Y-46816408D01*
X81534075Y-46879993D01*
X81599901Y-46994007D01*
X81692993Y-47087099D01*
X81807007Y-47152925D01*
X81870590Y-47169962D01*
X81130893Y-47909658D01*
X81213828Y-47969914D01*
X81424197Y-48077102D01*
X81648752Y-48150065D01*
X81648751Y-48150065D01*
X81881948Y-48187000D01*
X82118052Y-48187000D01*
X82351247Y-48150065D01*
X82575802Y-48077102D01*
X82786163Y-47969918D01*
X82786169Y-47969914D01*
X82869104Y-47909658D01*
X82869105Y-47909658D01*
X82129408Y-47169962D01*
X82192993Y-47152925D01*
X82307007Y-47087099D01*
X82400099Y-46994007D01*
X82465925Y-46879993D01*
X82482962Y-46816409D01*
X83222658Y-47556105D01*
X83222658Y-47556104D01*
X83282914Y-47473169D01*
X83282918Y-47473163D01*
X83390102Y-47262802D01*
X83463065Y-47038247D01*
X83500000Y-46805052D01*
X83500000Y-46568947D01*
X120500000Y-46568947D01*
X120500000Y-46805052D01*
X120536934Y-47038247D01*
X120609897Y-47262802D01*
X120717087Y-47473174D01*
X120777338Y-47556104D01*
X120777340Y-47556105D01*
X121517037Y-46816408D01*
X121534075Y-46879993D01*
X121599901Y-46994007D01*
X121692993Y-47087099D01*
X121807007Y-47152925D01*
X121870590Y-47169962D01*
X121130893Y-47909658D01*
X121213828Y-47969914D01*
X121424197Y-48077102D01*
X121648752Y-48150065D01*
X121648751Y-48150065D01*
X121881948Y-48187000D01*
X122118052Y-48187000D01*
X122351247Y-48150065D01*
X122575802Y-48077102D01*
X122786163Y-47969918D01*
X122786169Y-47969914D01*
X122869104Y-47909658D01*
X122869105Y-47909658D01*
X122796430Y-47836983D01*
X126699500Y-47836983D01*
X126699500Y-49037001D01*
X126699501Y-49037018D01*
X126710000Y-49139796D01*
X126710001Y-49139799D01*
X126740396Y-49231523D01*
X126765186Y-49306334D01*
X126857288Y-49455656D01*
X126981344Y-49579712D01*
X127130666Y-49671814D01*
X127297203Y-49726999D01*
X127399991Y-49737500D01*
X128600008Y-49737499D01*
X128702797Y-49726999D01*
X128869334Y-49671814D01*
X129018656Y-49579712D01*
X129142712Y-49455656D01*
X129234814Y-49306334D01*
X129289999Y-49139797D01*
X129300500Y-49037009D01*
X129300499Y-48334682D01*
X130200000Y-48334682D01*
X130200000Y-48539317D01*
X130232009Y-48741417D01*
X130295244Y-48936031D01*
X130388141Y-49118350D01*
X130388147Y-49118359D01*
X130420523Y-49162921D01*
X130420524Y-49162922D01*
X131100000Y-48483446D01*
X131100000Y-48489661D01*
X131127259Y-48591394D01*
X131179920Y-48682606D01*
X131254394Y-48757080D01*
X131345606Y-48809741D01*
X131447339Y-48837000D01*
X131453553Y-48837000D01*
X130774076Y-49516474D01*
X130818650Y-49548859D01*
X131000968Y-49641755D01*
X131195582Y-49704990D01*
X131397683Y-49737000D01*
X131602317Y-49737000D01*
X131804417Y-49704990D01*
X131999031Y-49641755D01*
X132181349Y-49548859D01*
X132225921Y-49516474D01*
X131546447Y-48837000D01*
X131552661Y-48837000D01*
X131654394Y-48809741D01*
X131745606Y-48757080D01*
X131820080Y-48682606D01*
X131872741Y-48591394D01*
X131900000Y-48489661D01*
X131900000Y-48483447D01*
X132579474Y-49162921D01*
X132611859Y-49118349D01*
X132704755Y-48936031D01*
X132767990Y-48741417D01*
X132800000Y-48539317D01*
X132800000Y-48334682D01*
X132767990Y-48132582D01*
X132704755Y-47937968D01*
X132611859Y-47755650D01*
X132579474Y-47711077D01*
X132579474Y-47711076D01*
X131900000Y-48390551D01*
X131900000Y-48384339D01*
X131872741Y-48282606D01*
X131820080Y-48191394D01*
X131745606Y-48116920D01*
X131654394Y-48064259D01*
X131552661Y-48037000D01*
X131546446Y-48037000D01*
X132225922Y-47357524D01*
X132225921Y-47357523D01*
X132181359Y-47325147D01*
X132181350Y-47325141D01*
X131999031Y-47232244D01*
X131804417Y-47169009D01*
X131602317Y-47137000D01*
X131397683Y-47137000D01*
X131195582Y-47169009D01*
X131000968Y-47232244D01*
X130818644Y-47325143D01*
X130774077Y-47357523D01*
X130774077Y-47357524D01*
X131453554Y-48037000D01*
X131447339Y-48037000D01*
X131345606Y-48064259D01*
X131254394Y-48116920D01*
X131179920Y-48191394D01*
X131127259Y-48282606D01*
X131100000Y-48384339D01*
X131100000Y-48390553D01*
X130420524Y-47711077D01*
X130420523Y-47711077D01*
X130388143Y-47755644D01*
X130295244Y-47937968D01*
X130232009Y-48132582D01*
X130200000Y-48334682D01*
X129300499Y-48334682D01*
X129300499Y-47836992D01*
X129289999Y-47734203D01*
X129234814Y-47567666D01*
X129142712Y-47418344D01*
X129018656Y-47294288D01*
X128869334Y-47202186D01*
X128702797Y-47147001D01*
X128702795Y-47147000D01*
X128600010Y-47136500D01*
X127399998Y-47136500D01*
X127399981Y-47136501D01*
X127297203Y-47147000D01*
X127297200Y-47147001D01*
X127130668Y-47202185D01*
X127130663Y-47202187D01*
X126981342Y-47294289D01*
X126857289Y-47418342D01*
X126765187Y-47567663D01*
X126765186Y-47567666D01*
X126710001Y-47734203D01*
X126710001Y-47734204D01*
X126710000Y-47734204D01*
X126699500Y-47836983D01*
X122796430Y-47836983D01*
X122129408Y-47169962D01*
X122192993Y-47152925D01*
X122307007Y-47087099D01*
X122400099Y-46994007D01*
X122465925Y-46879993D01*
X122482962Y-46816409D01*
X123222658Y-47556105D01*
X123222658Y-47556104D01*
X123282914Y-47473169D01*
X123282918Y-47473163D01*
X123390102Y-47262802D01*
X123463065Y-47038247D01*
X123500000Y-46805052D01*
X123500000Y-46568947D01*
X123463065Y-46335752D01*
X123390102Y-46111197D01*
X123282914Y-45900828D01*
X123222658Y-45817894D01*
X123222658Y-45817893D01*
X122482962Y-46557590D01*
X122465925Y-46494007D01*
X122400099Y-46379993D01*
X122307007Y-46286901D01*
X122192993Y-46221075D01*
X122129409Y-46204037D01*
X122869105Y-45464340D01*
X122869104Y-45464338D01*
X122786174Y-45404087D01*
X122575802Y-45296897D01*
X122351247Y-45223934D01*
X122351248Y-45223934D01*
X122118052Y-45187000D01*
X121881948Y-45187000D01*
X121648752Y-45223934D01*
X121424197Y-45296897D01*
X121213830Y-45404084D01*
X121130894Y-45464340D01*
X121870591Y-46204037D01*
X121807007Y-46221075D01*
X121692993Y-46286901D01*
X121599901Y-46379993D01*
X121534075Y-46494007D01*
X121517037Y-46557591D01*
X120777340Y-45817894D01*
X120717084Y-45900830D01*
X120609897Y-46111197D01*
X120536934Y-46335752D01*
X120500000Y-46568947D01*
X83500000Y-46568947D01*
X83463065Y-46335752D01*
X83390102Y-46111197D01*
X83282914Y-45900828D01*
X83222658Y-45817894D01*
X83222658Y-45817893D01*
X82482962Y-46557590D01*
X82465925Y-46494007D01*
X82400099Y-46379993D01*
X82307007Y-46286901D01*
X82192993Y-46221075D01*
X82129409Y-46204037D01*
X82869105Y-45464340D01*
X82869104Y-45464339D01*
X82786174Y-45404087D01*
X82575802Y-45296897D01*
X82351247Y-45223934D01*
X82351248Y-45223934D01*
X82118052Y-45187000D01*
X81881948Y-45187000D01*
X81648752Y-45223934D01*
X81424197Y-45296897D01*
X81213830Y-45404084D01*
X81130894Y-45464340D01*
X81870591Y-46204037D01*
X81807007Y-46221075D01*
X81692993Y-46286901D01*
X81599901Y-46379993D01*
X81534075Y-46494007D01*
X81517037Y-46557591D01*
X80777340Y-45817894D01*
X80717084Y-45900830D01*
X80609897Y-46111197D01*
X80536934Y-46335752D01*
X80500000Y-46568947D01*
X42000500Y-46568947D01*
X42000500Y-35129942D01*
X47023700Y-35129942D01*
X47023700Y-35496057D01*
X47059585Y-35860420D01*
X47131007Y-36219488D01*
X47131010Y-36219499D01*
X47237293Y-36569868D01*
X47377403Y-36908122D01*
X47377405Y-36908127D01*
X47549984Y-37230999D01*
X47549995Y-37231017D01*
X47753392Y-37535422D01*
X47753402Y-37535436D01*
X47985668Y-37818453D01*
X48244546Y-38077331D01*
X48244551Y-38077335D01*
X48244552Y-38077336D01*
X48527569Y-38309602D01*
X48831989Y-38513009D01*
X48831998Y-38513014D01*
X48832000Y-38513015D01*
X49154872Y-38685594D01*
X49154874Y-38685594D01*
X49154880Y-38685598D01*
X49493133Y-38825707D01*
X49532719Y-38837715D01*
X49591158Y-38876013D01*
X49619614Y-38939825D01*
X49609054Y-39008892D01*
X49562830Y-39061286D01*
X49555178Y-39065734D01*
X49256429Y-39225419D01*
X49256419Y-39225425D01*
X48952050Y-39428798D01*
X48952046Y-39428801D01*
X48721081Y-39618348D01*
X48721081Y-39618349D01*
X49743834Y-40641102D01*
X49663681Y-40702606D01*
X49451786Y-40914501D01*
X49390282Y-40994654D01*
X48367529Y-39971901D01*
X48367528Y-39971901D01*
X48177981Y-40202866D01*
X48177978Y-40202870D01*
X47974605Y-40507239D01*
X47974594Y-40507257D01*
X47802038Y-40830086D01*
X47802036Y-40830091D01*
X47661945Y-41168300D01*
X47555676Y-41518622D01*
X47555673Y-41518633D01*
X47484263Y-41877645D01*
X47484260Y-41877662D01*
X47448380Y-42241966D01*
X47448380Y-42608033D01*
X47484260Y-42972337D01*
X47484263Y-42972354D01*
X47555673Y-43331366D01*
X47555676Y-43331377D01*
X47661945Y-43681699D01*
X47802036Y-44019908D01*
X47802038Y-44019913D01*
X47974594Y-44342742D01*
X47974605Y-44342760D01*
X48177984Y-44647138D01*
X48367527Y-44878097D01*
X48367528Y-44878098D01*
X49390281Y-43855344D01*
X49451786Y-43935499D01*
X49663681Y-44147394D01*
X49743833Y-44208897D01*
X48721080Y-45231650D01*
X48721081Y-45231651D01*
X48952041Y-45421195D01*
X49256419Y-45624574D01*
X49256437Y-45624585D01*
X49579266Y-45797141D01*
X49579271Y-45797143D01*
X49917480Y-45937234D01*
X50267802Y-46043503D01*
X50267813Y-46043506D01*
X50626825Y-46114916D01*
X50626842Y-46114919D01*
X50991146Y-46150800D01*
X51357214Y-46150800D01*
X51721517Y-46114919D01*
X51721534Y-46114916D01*
X52080546Y-46043506D01*
X52080557Y-46043503D01*
X52430879Y-45937234D01*
X52769088Y-45797143D01*
X52769093Y-45797141D01*
X53091922Y-45624585D01*
X53091940Y-45624574D01*
X53396304Y-45421204D01*
X53396318Y-45421194D01*
X53627277Y-45231651D01*
X53627278Y-45231650D01*
X52604525Y-44208897D01*
X52684679Y-44147394D01*
X52896574Y-43935499D01*
X52958077Y-43855345D01*
X53980830Y-44878098D01*
X53980831Y-44878097D01*
X54170374Y-44647138D01*
X54170384Y-44647124D01*
X54373754Y-44342760D01*
X54373765Y-44342742D01*
X54546321Y-44019913D01*
X54546323Y-44019908D01*
X54686414Y-43681699D01*
X54782427Y-43365186D01*
X58699500Y-43365186D01*
X58699500Y-43634813D01*
X58729686Y-43902719D01*
X58729688Y-43902731D01*
X58789684Y-44165594D01*
X58789687Y-44165602D01*
X58878734Y-44420082D01*
X58995714Y-44662994D01*
X58995716Y-44662997D01*
X59139162Y-44891289D01*
X59307266Y-45102085D01*
X59497915Y-45292734D01*
X59708711Y-45460838D01*
X59937003Y-45604284D01*
X59937005Y-45604285D01*
X60017975Y-45643278D01*
X60179921Y-45721267D01*
X60371049Y-45788145D01*
X60434397Y-45810312D01*
X60434405Y-45810315D01*
X60434408Y-45810315D01*
X60434409Y-45810316D01*
X60697268Y-45870312D01*
X60965187Y-45900499D01*
X60965188Y-45900500D01*
X60965191Y-45900500D01*
X66534812Y-45900500D01*
X66534812Y-45900499D01*
X66802732Y-45870312D01*
X67065591Y-45810316D01*
X67320079Y-45721267D01*
X67562997Y-45604284D01*
X67791289Y-45460838D01*
X68002085Y-45292734D01*
X68192734Y-45102085D01*
X68360838Y-44891289D01*
X68395006Y-44836911D01*
X68447341Y-44790620D01*
X68516394Y-44779972D01*
X68580243Y-44808347D01*
X68604994Y-44836911D01*
X68639162Y-44891289D01*
X68807266Y-45102085D01*
X68997915Y-45292734D01*
X69208711Y-45460838D01*
X69437003Y-45604284D01*
X69437005Y-45604285D01*
X69517975Y-45643278D01*
X69679921Y-45721267D01*
X69871049Y-45788145D01*
X69934397Y-45810312D01*
X69934405Y-45810315D01*
X69934408Y-45810315D01*
X69934409Y-45810316D01*
X70197268Y-45870312D01*
X70465187Y-45900499D01*
X70465188Y-45900500D01*
X70465191Y-45900500D01*
X76034812Y-45900500D01*
X76034812Y-45900499D01*
X76302732Y-45870312D01*
X76565591Y-45810316D01*
X76820079Y-45721267D01*
X77062997Y-45604284D01*
X77291289Y-45460838D01*
X77362453Y-45404087D01*
X77502078Y-45292740D01*
X77502080Y-45292737D01*
X77502085Y-45292734D01*
X77692734Y-45102085D01*
X77860838Y-44891289D01*
X78004284Y-44662997D01*
X78121267Y-44420079D01*
X78210316Y-44165591D01*
X78270312Y-43902732D01*
X78300500Y-43634809D01*
X78300500Y-43365191D01*
X78270312Y-43097268D01*
X78210316Y-42834409D01*
X78121267Y-42579921D01*
X78004284Y-42337003D01*
X77860838Y-42108711D01*
X77692734Y-41897915D01*
X77502085Y-41707266D01*
X77291289Y-41539162D01*
X77062997Y-41395716D01*
X77062994Y-41395714D01*
X76820082Y-41278734D01*
X76565602Y-41189687D01*
X76565594Y-41189684D01*
X76368446Y-41144687D01*
X76302732Y-41129688D01*
X76302728Y-41129687D01*
X76302719Y-41129686D01*
X76034813Y-41099500D01*
X76034809Y-41099500D01*
X70465191Y-41099500D01*
X70465186Y-41099500D01*
X70197280Y-41129686D01*
X70197268Y-41129688D01*
X69934405Y-41189684D01*
X69934397Y-41189687D01*
X69679917Y-41278734D01*
X69437005Y-41395714D01*
X69208712Y-41539161D01*
X68997915Y-41707265D01*
X68807265Y-41897915D01*
X68639159Y-42108714D01*
X68604993Y-42163089D01*
X68552658Y-42209379D01*
X68483605Y-42220027D01*
X68419757Y-42191652D01*
X68395007Y-42163089D01*
X68360840Y-42108714D01*
X68360839Y-42108713D01*
X68360838Y-42108711D01*
X68192734Y-41897915D01*
X68002085Y-41707266D01*
X67791289Y-41539162D01*
X67562997Y-41395716D01*
X67562994Y-41395714D01*
X67320082Y-41278734D01*
X67065602Y-41189687D01*
X67065594Y-41189684D01*
X66868446Y-41144687D01*
X66802732Y-41129688D01*
X66802728Y-41129687D01*
X66802719Y-41129686D01*
X66534813Y-41099500D01*
X66534809Y-41099500D01*
X60965191Y-41099500D01*
X60965186Y-41099500D01*
X60697280Y-41129686D01*
X60697268Y-41129688D01*
X60434405Y-41189684D01*
X60434397Y-41189687D01*
X60179917Y-41278734D01*
X59937005Y-41395714D01*
X59708712Y-41539161D01*
X59497915Y-41707265D01*
X59307265Y-41897915D01*
X59139161Y-42108712D01*
X58995714Y-42337005D01*
X58878734Y-42579917D01*
X58789687Y-42834397D01*
X58789684Y-42834405D01*
X58729688Y-43097268D01*
X58729686Y-43097280D01*
X58699500Y-43365186D01*
X54782427Y-43365186D01*
X54792683Y-43331377D01*
X54792686Y-43331366D01*
X54864096Y-42972354D01*
X54864099Y-42972337D01*
X54899980Y-42608033D01*
X54899980Y-42241966D01*
X54864099Y-41877662D01*
X54864096Y-41877645D01*
X54792686Y-41518633D01*
X54792683Y-41518622D01*
X54686414Y-41168300D01*
X54546323Y-40830091D01*
X54546321Y-40830086D01*
X54373765Y-40507257D01*
X54373754Y-40507239D01*
X54170375Y-40202861D01*
X53980831Y-39971901D01*
X53980830Y-39971900D01*
X52958077Y-40994653D01*
X52896574Y-40914501D01*
X52684679Y-40702606D01*
X52604524Y-40641101D01*
X53627278Y-39618348D01*
X53627277Y-39618347D01*
X53396318Y-39428804D01*
X53091940Y-39225425D01*
X53091922Y-39225414D01*
X52769093Y-39052858D01*
X52769088Y-39052856D01*
X52430875Y-38912764D01*
X52391510Y-38900822D01*
X52333072Y-38862523D01*
X52304616Y-38798711D01*
X52315178Y-38729644D01*
X52361403Y-38677251D01*
X52369032Y-38672816D01*
X52668011Y-38513009D01*
X52972431Y-38309602D01*
X53255448Y-38077336D01*
X53514336Y-37818448D01*
X53746602Y-37535431D01*
X53950009Y-37231011D01*
X54122598Y-36908120D01*
X54262707Y-36569867D01*
X54368987Y-36219509D01*
X54368989Y-36219499D01*
X54368992Y-36219488D01*
X54440414Y-35860420D01*
X54441018Y-35854284D01*
X54476300Y-35496061D01*
X54476300Y-35129939D01*
X54440414Y-34765579D01*
X54368992Y-34406511D01*
X54368989Y-34406500D01*
X54368988Y-34406497D01*
X54368987Y-34406491D01*
X54262707Y-34056133D01*
X54122598Y-33717880D01*
X54067707Y-33615186D01*
X58699500Y-33615186D01*
X58699500Y-33884813D01*
X58729686Y-34152719D01*
X58729688Y-34152731D01*
X58789684Y-34415594D01*
X58789687Y-34415602D01*
X58878734Y-34670082D01*
X58995714Y-34912994D01*
X58995716Y-34912997D01*
X59139162Y-35141289D01*
X59307266Y-35352085D01*
X59497915Y-35542734D01*
X59708711Y-35710838D01*
X59937003Y-35854284D01*
X59937005Y-35854285D01*
X59949747Y-35860421D01*
X60179921Y-35971267D01*
X60371049Y-36038145D01*
X60434397Y-36060312D01*
X60434405Y-36060315D01*
X60434408Y-36060315D01*
X60434409Y-36060316D01*
X60697268Y-36120312D01*
X60965187Y-36150499D01*
X60965188Y-36150500D01*
X60965191Y-36150500D01*
X66534812Y-36150500D01*
X66534812Y-36150499D01*
X66802732Y-36120312D01*
X67065591Y-36060316D01*
X67320079Y-35971267D01*
X67562997Y-35854284D01*
X67791289Y-35710838D01*
X68002085Y-35542734D01*
X68192734Y-35352085D01*
X68360838Y-35141289D01*
X68395006Y-35086911D01*
X68447341Y-35040620D01*
X68516394Y-35029972D01*
X68580243Y-35058347D01*
X68604994Y-35086911D01*
X68639162Y-35141289D01*
X68807266Y-35352085D01*
X68997915Y-35542734D01*
X69208711Y-35710838D01*
X69437003Y-35854284D01*
X69437005Y-35854285D01*
X69449747Y-35860421D01*
X69679921Y-35971267D01*
X69871049Y-36038145D01*
X69934397Y-36060312D01*
X69934405Y-36060315D01*
X69934408Y-36060315D01*
X69934409Y-36060316D01*
X70197268Y-36120312D01*
X70465187Y-36150499D01*
X70465188Y-36150500D01*
X70465191Y-36150500D01*
X76034812Y-36150500D01*
X76034812Y-36150499D01*
X76302732Y-36120312D01*
X76565591Y-36060316D01*
X76820079Y-35971267D01*
X77062997Y-35854284D01*
X77291289Y-35710838D01*
X77502085Y-35542734D01*
X77692734Y-35352085D01*
X77860838Y-35141289D01*
X78004284Y-34912997D01*
X78121267Y-34670079D01*
X78210316Y-34415591D01*
X78270312Y-34152732D01*
X78300500Y-33884809D01*
X78300500Y-33615191D01*
X78270312Y-33347268D01*
X78210316Y-33084409D01*
X78121267Y-32829921D01*
X78004284Y-32587003D01*
X77860838Y-32358711D01*
X77692734Y-32147915D01*
X77502085Y-31957266D01*
X77480939Y-31940403D01*
X77448549Y-31914573D01*
X77291289Y-31789162D01*
X77062997Y-31645716D01*
X77062994Y-31645714D01*
X76820082Y-31528734D01*
X76565602Y-31439687D01*
X76565594Y-31439684D01*
X76368446Y-31394687D01*
X76302732Y-31379688D01*
X76302728Y-31379687D01*
X76302719Y-31379686D01*
X76034813Y-31349500D01*
X76034809Y-31349500D01*
X70465191Y-31349500D01*
X70465186Y-31349500D01*
X70197280Y-31379686D01*
X70197268Y-31379688D01*
X69934405Y-31439684D01*
X69934397Y-31439687D01*
X69679917Y-31528734D01*
X69437005Y-31645714D01*
X69208712Y-31789161D01*
X68997915Y-31957265D01*
X68807265Y-32147915D01*
X68639159Y-32358714D01*
X68604993Y-32413089D01*
X68552658Y-32459379D01*
X68483605Y-32470027D01*
X68419757Y-32441652D01*
X68395007Y-32413089D01*
X68360840Y-32358714D01*
X68360839Y-32358713D01*
X68360838Y-32358711D01*
X68192734Y-32147915D01*
X68002085Y-31957266D01*
X67980939Y-31940403D01*
X67948549Y-31914573D01*
X67791289Y-31789162D01*
X67562997Y-31645716D01*
X67562994Y-31645714D01*
X67320082Y-31528734D01*
X67065602Y-31439687D01*
X67065594Y-31439684D01*
X66868446Y-31394687D01*
X66802732Y-31379688D01*
X66802728Y-31379687D01*
X66802719Y-31379686D01*
X66534813Y-31349500D01*
X66534809Y-31349500D01*
X60965191Y-31349500D01*
X60965186Y-31349500D01*
X60697280Y-31379686D01*
X60697268Y-31379688D01*
X60434405Y-31439684D01*
X60434397Y-31439687D01*
X60179917Y-31528734D01*
X59937005Y-31645714D01*
X59708712Y-31789161D01*
X59497915Y-31957265D01*
X59307265Y-32147915D01*
X59139161Y-32358712D01*
X58995714Y-32587005D01*
X58878734Y-32829917D01*
X58789687Y-33084397D01*
X58789684Y-33084405D01*
X58729688Y-33347268D01*
X58729686Y-33347280D01*
X58699500Y-33615186D01*
X54067707Y-33615186D01*
X53950009Y-33394989D01*
X53746602Y-33090569D01*
X53514336Y-32807552D01*
X53514335Y-32807551D01*
X53514331Y-32807546D01*
X53255453Y-32548668D01*
X52972436Y-32316402D01*
X52972435Y-32316401D01*
X52972431Y-32316398D01*
X52668011Y-32112991D01*
X52668006Y-32112988D01*
X52667999Y-32112984D01*
X52345127Y-31940405D01*
X52345122Y-31940403D01*
X52006868Y-31800293D01*
X51656499Y-31694010D01*
X51656488Y-31694007D01*
X51297420Y-31622585D01*
X51022999Y-31595558D01*
X50933061Y-31586700D01*
X50566939Y-31586700D01*
X50483837Y-31594884D01*
X50202579Y-31622585D01*
X49843511Y-31694007D01*
X49843500Y-31694010D01*
X49493131Y-31800293D01*
X49154877Y-31940403D01*
X49154872Y-31940405D01*
X48832000Y-32112984D01*
X48831982Y-32112995D01*
X48527577Y-32316392D01*
X48527563Y-32316402D01*
X48244546Y-32548668D01*
X47985668Y-32807546D01*
X47753402Y-33090563D01*
X47753392Y-33090577D01*
X47549995Y-33394982D01*
X47549984Y-33395000D01*
X47377405Y-33717872D01*
X47377403Y-33717877D01*
X47237293Y-34056131D01*
X47131010Y-34406500D01*
X47131007Y-34406511D01*
X47059585Y-34765579D01*
X47034163Y-35023702D01*
X47025669Y-35109954D01*
X47023700Y-35129942D01*
X42000500Y-35129942D01*
X42000500Y-27878711D01*
X44399500Y-27878711D01*
X44399500Y-28121288D01*
X44431161Y-28361785D01*
X44493947Y-28596104D01*
X44586129Y-28818650D01*
X44586776Y-28820212D01*
X44708064Y-29030289D01*
X44708066Y-29030292D01*
X44708067Y-29030293D01*
X44855733Y-29222736D01*
X44855739Y-29222743D01*
X45027256Y-29394260D01*
X45027263Y-29394266D01*
X45130436Y-29473433D01*
X45219711Y-29541936D01*
X45429788Y-29663224D01*
X45653900Y-29756054D01*
X45888211Y-29818838D01*
X46068586Y-29842584D01*
X46128711Y-29850500D01*
X46128712Y-29850500D01*
X46371289Y-29850500D01*
X46419388Y-29844167D01*
X46611789Y-29818838D01*
X46846100Y-29756054D01*
X47070212Y-29663224D01*
X47280289Y-29541936D01*
X47472738Y-29394265D01*
X47644265Y-29222738D01*
X47791936Y-29030289D01*
X47913224Y-28820212D01*
X48006054Y-28596100D01*
X48013342Y-28568902D01*
X80499500Y-28568902D01*
X80499500Y-28805097D01*
X80536446Y-29038368D01*
X80609433Y-29262996D01*
X80676316Y-29394260D01*
X80716657Y-29473433D01*
X80855483Y-29664510D01*
X81022490Y-29831517D01*
X81213567Y-29970343D01*
X81312991Y-30021002D01*
X81424003Y-30077566D01*
X81424005Y-30077566D01*
X81424008Y-30077568D01*
X81493096Y-30100016D01*
X81648631Y-30150553D01*
X81881903Y-30187500D01*
X81881908Y-30187500D01*
X82118097Y-30187500D01*
X82351368Y-30150553D01*
X82575992Y-30077568D01*
X82786433Y-29970343D01*
X82977510Y-29831517D01*
X83144517Y-29664510D01*
X83283343Y-29473433D01*
X83390568Y-29262992D01*
X83463553Y-29038368D01*
X83469477Y-29000968D01*
X83500500Y-28805097D01*
X83500500Y-28568902D01*
X120499500Y-28568902D01*
X120499500Y-28805097D01*
X120536446Y-29038368D01*
X120609433Y-29262996D01*
X120676316Y-29394260D01*
X120716657Y-29473433D01*
X120855483Y-29664510D01*
X121022490Y-29831517D01*
X121213567Y-29970343D01*
X121312991Y-30021002D01*
X121424003Y-30077566D01*
X121424005Y-30077566D01*
X121424008Y-30077568D01*
X121493096Y-30100016D01*
X121648631Y-30150553D01*
X121881903Y-30187500D01*
X121881908Y-30187500D01*
X122118097Y-30187500D01*
X122351368Y-30150553D01*
X122575992Y-30077568D01*
X122786433Y-29970343D01*
X122977510Y-29831517D01*
X123144517Y-29664510D01*
X123283343Y-29473433D01*
X123390568Y-29262992D01*
X123463553Y-29038368D01*
X123469477Y-29000968D01*
X123485472Y-28899983D01*
X124796849Y-28899983D01*
X124796849Y-30100001D01*
X124796850Y-30100018D01*
X124807349Y-30202796D01*
X124807350Y-30202799D01*
X124862534Y-30369331D01*
X124862535Y-30369334D01*
X124954637Y-30518656D01*
X125078693Y-30642712D01*
X125228015Y-30734814D01*
X125261849Y-30746025D01*
X125319296Y-30785796D01*
X125346121Y-30850311D01*
X125346849Y-30863732D01*
X125346849Y-33671267D01*
X125346849Y-33671269D01*
X125346848Y-33671269D01*
X125375689Y-33816256D01*
X125375692Y-33816266D01*
X125432263Y-33952841D01*
X125465161Y-34002076D01*
X125465162Y-34002079D01*
X125514395Y-34075763D01*
X125514401Y-34075770D01*
X133521580Y-42082948D01*
X133521584Y-42082951D01*
X133644498Y-42165080D01*
X133644511Y-42165087D01*
X133777149Y-42220027D01*
X133781087Y-42221658D01*
X133781091Y-42221658D01*
X133781092Y-42221659D01*
X133926079Y-42250500D01*
X133926082Y-42250500D01*
X134073917Y-42250500D01*
X134638582Y-42250500D01*
X134705621Y-42270185D01*
X134738899Y-42301613D01*
X134844214Y-42446566D01*
X135005934Y-42608286D01*
X135190962Y-42742717D01*
X135370894Y-42834397D01*
X135394744Y-42846549D01*
X135612251Y-42917221D01*
X135612252Y-42917221D01*
X135612255Y-42917222D01*
X135838146Y-42953000D01*
X135838147Y-42953000D01*
X136161853Y-42953000D01*
X136161854Y-42953000D01*
X136387745Y-42917222D01*
X136387748Y-42917221D01*
X136387749Y-42917221D01*
X136605255Y-42846549D01*
X136605255Y-42846548D01*
X136605258Y-42846548D01*
X136809038Y-42742717D01*
X136994066Y-42608286D01*
X137155786Y-42446566D01*
X137290217Y-42261538D01*
X137394048Y-42057758D01*
X137464722Y-41840245D01*
X137500500Y-41614354D01*
X137500500Y-41385646D01*
X137464722Y-41159755D01*
X137464721Y-41159751D01*
X137464721Y-41159750D01*
X137394049Y-40942244D01*
X137336904Y-40830091D01*
X137290217Y-40738462D01*
X137155786Y-40553434D01*
X136994066Y-40391714D01*
X136909134Y-40330007D01*
X136866470Y-40274678D01*
X136860491Y-40205064D01*
X136893097Y-40143269D01*
X136909137Y-40129371D01*
X136993739Y-40067905D01*
X137155402Y-39906242D01*
X137289788Y-39721276D01*
X137393582Y-39517570D01*
X137464234Y-39300128D01*
X137478509Y-39210000D01*
X136490748Y-39210000D01*
X136512518Y-39172292D01*
X136550000Y-39032409D01*
X136550000Y-38887591D01*
X136512518Y-38747708D01*
X136490748Y-38710000D01*
X137478509Y-38710000D01*
X137464234Y-38619871D01*
X137393582Y-38402429D01*
X137289788Y-38198723D01*
X137156988Y-38015940D01*
X137133508Y-37950133D01*
X137149333Y-37882079D01*
X137199439Y-37833384D01*
X137213966Y-37826875D01*
X137242331Y-37816296D01*
X137357546Y-37730046D01*
X137443796Y-37614831D01*
X137494091Y-37479983D01*
X137500500Y-37420373D01*
X137500499Y-35419628D01*
X137494091Y-35360017D01*
X137491132Y-35352084D01*
X137443797Y-35225171D01*
X137443793Y-35225164D01*
X137357547Y-35109955D01*
X137357544Y-35109952D01*
X137242335Y-35023706D01*
X137242328Y-35023702D01*
X137107482Y-34973408D01*
X137107483Y-34973408D01*
X137047883Y-34967001D01*
X137047881Y-34967000D01*
X137047873Y-34967000D01*
X137047864Y-34967000D01*
X134952129Y-34967000D01*
X134952123Y-34967001D01*
X134892516Y-34973408D01*
X134757671Y-35023702D01*
X134757664Y-35023706D01*
X134642455Y-35109952D01*
X134642452Y-35109955D01*
X134556206Y-35225164D01*
X134556202Y-35225171D01*
X134505908Y-35360017D01*
X134499501Y-35419616D01*
X134499501Y-35419623D01*
X134499500Y-35419635D01*
X134499500Y-37420370D01*
X134499501Y-37420376D01*
X134505908Y-37479983D01*
X134556202Y-37614828D01*
X134556206Y-37614835D01*
X134642452Y-37730044D01*
X134642455Y-37730047D01*
X134757664Y-37816293D01*
X134757667Y-37816295D01*
X134757668Y-37816295D01*
X134757669Y-37816296D01*
X134786025Y-37826872D01*
X134841958Y-37868742D01*
X134866376Y-37934206D01*
X134851525Y-38002479D01*
X134843010Y-38015939D01*
X134710213Y-38198719D01*
X134606417Y-38402429D01*
X134535765Y-38619871D01*
X134521491Y-38710000D01*
X135509252Y-38710000D01*
X135487482Y-38747708D01*
X135450000Y-38887591D01*
X135450000Y-39032409D01*
X135487482Y-39172292D01*
X135509252Y-39210000D01*
X134521491Y-39210000D01*
X134535765Y-39300128D01*
X134606417Y-39517570D01*
X134710211Y-39721276D01*
X134844597Y-39906242D01*
X135006257Y-40067902D01*
X135006263Y-40067907D01*
X135090863Y-40129372D01*
X135133529Y-40184701D01*
X135139508Y-40254315D01*
X135106903Y-40316110D01*
X135090864Y-40330007D01*
X135005940Y-40391709D01*
X135005931Y-40391716D01*
X134844216Y-40553431D01*
X134844216Y-40553432D01*
X134844214Y-40553434D01*
X134738900Y-40698386D01*
X134683570Y-40741051D01*
X134638582Y-40749500D01*
X134362229Y-40749500D01*
X134295190Y-40729815D01*
X134274548Y-40713181D01*
X129065355Y-35503987D01*
X126884168Y-33322800D01*
X126850683Y-33261477D01*
X126847849Y-33235119D01*
X126847849Y-30863732D01*
X126867534Y-30796693D01*
X126920338Y-30750938D01*
X126932844Y-30746026D01*
X126966683Y-30734814D01*
X127116005Y-30642712D01*
X127240061Y-30518656D01*
X127332163Y-30369334D01*
X127387348Y-30202797D01*
X127397849Y-30100009D01*
X127397848Y-29397682D01*
X128297349Y-29397682D01*
X128297349Y-29602317D01*
X128329358Y-29804417D01*
X128392593Y-29999031D01*
X128485490Y-30181350D01*
X128485496Y-30181359D01*
X128517872Y-30225921D01*
X128517873Y-30225922D01*
X129197349Y-29546446D01*
X129197349Y-29552661D01*
X129224608Y-29654394D01*
X129277269Y-29745606D01*
X129351743Y-29820080D01*
X129442955Y-29872741D01*
X129544688Y-29900000D01*
X129550902Y-29900000D01*
X128871425Y-30579474D01*
X128915999Y-30611859D01*
X129098317Y-30704755D01*
X129292931Y-30767990D01*
X129495032Y-30800000D01*
X129699666Y-30800000D01*
X129901766Y-30767990D01*
X130096380Y-30704755D01*
X130278698Y-30611859D01*
X130323270Y-30579474D01*
X129643796Y-29900000D01*
X129650010Y-29900000D01*
X129751743Y-29872741D01*
X129842955Y-29820080D01*
X129917429Y-29745606D01*
X129970090Y-29654394D01*
X129997349Y-29552661D01*
X129997349Y-29546447D01*
X130676823Y-30225921D01*
X130709208Y-30181349D01*
X130802104Y-29999031D01*
X130865339Y-29804417D01*
X130897349Y-29602317D01*
X130897349Y-29397682D01*
X130865339Y-29195582D01*
X130802104Y-29000968D01*
X130709208Y-28818650D01*
X130676823Y-28774077D01*
X130676823Y-28774076D01*
X129997349Y-29453551D01*
X129997349Y-29447339D01*
X129970090Y-29345606D01*
X129917429Y-29254394D01*
X129842955Y-29179920D01*
X129751743Y-29127259D01*
X129650010Y-29100000D01*
X129643795Y-29100000D01*
X130323271Y-28420524D01*
X130323270Y-28420523D01*
X130278708Y-28388147D01*
X130278699Y-28388141D01*
X130096380Y-28295244D01*
X129901766Y-28232009D01*
X129699666Y-28200000D01*
X129495032Y-28200000D01*
X129292931Y-28232009D01*
X129098317Y-28295244D01*
X128915993Y-28388143D01*
X128871426Y-28420523D01*
X128871426Y-28420524D01*
X129550903Y-29100000D01*
X129544688Y-29100000D01*
X129442955Y-29127259D01*
X129351743Y-29179920D01*
X129277269Y-29254394D01*
X129224608Y-29345606D01*
X129197349Y-29447339D01*
X129197349Y-29453553D01*
X128517873Y-28774077D01*
X128517872Y-28774077D01*
X128485492Y-28818644D01*
X128392593Y-29000968D01*
X128329358Y-29195582D01*
X128297349Y-29397682D01*
X127397848Y-29397682D01*
X127397848Y-28899992D01*
X127387348Y-28797203D01*
X127332163Y-28630666D01*
X127240061Y-28481344D01*
X127116005Y-28357288D01*
X126966683Y-28265186D01*
X126800146Y-28210001D01*
X126800144Y-28210000D01*
X126697359Y-28199500D01*
X125497347Y-28199500D01*
X125497330Y-28199501D01*
X125394552Y-28210000D01*
X125394549Y-28210001D01*
X125228017Y-28265185D01*
X125228012Y-28265187D01*
X125078691Y-28357289D01*
X124954638Y-28481342D01*
X124862536Y-28630663D01*
X124862535Y-28630666D01*
X124807350Y-28797203D01*
X124807350Y-28797204D01*
X124807349Y-28797204D01*
X124796849Y-28899983D01*
X123485472Y-28899983D01*
X123489043Y-28877436D01*
X123489043Y-28877435D01*
X123500500Y-28805098D01*
X123500500Y-28568902D01*
X123463553Y-28335631D01*
X123422733Y-28210001D01*
X123390568Y-28111008D01*
X123390566Y-28111005D01*
X123390566Y-28111003D01*
X123298823Y-27930948D01*
X123298822Y-27930944D01*
X123283346Y-27900571D01*
X123267464Y-27878711D01*
X134899500Y-27878711D01*
X134899500Y-28121288D01*
X134931161Y-28361785D01*
X134993947Y-28596104D01*
X135086129Y-28818650D01*
X135086776Y-28820212D01*
X135208064Y-29030289D01*
X135208066Y-29030292D01*
X135208067Y-29030293D01*
X135355733Y-29222736D01*
X135355739Y-29222743D01*
X135527256Y-29394260D01*
X135527263Y-29394266D01*
X135630436Y-29473433D01*
X135719711Y-29541936D01*
X135929788Y-29663224D01*
X136153900Y-29756054D01*
X136388211Y-29818838D01*
X136568586Y-29842584D01*
X136628711Y-29850500D01*
X136628712Y-29850500D01*
X136871289Y-29850500D01*
X136919388Y-29844167D01*
X137111789Y-29818838D01*
X137346100Y-29756054D01*
X137570212Y-29663224D01*
X137780289Y-29541936D01*
X137972738Y-29394265D01*
X138144265Y-29222738D01*
X138291936Y-29030289D01*
X138413224Y-28820212D01*
X138506054Y-28596100D01*
X138568838Y-28361789D01*
X138600500Y-28121288D01*
X138600500Y-27878712D01*
X138568838Y-27638211D01*
X138506054Y-27403900D01*
X138413224Y-27179788D01*
X138291936Y-26969711D01*
X138144265Y-26777262D01*
X138144260Y-26777256D01*
X137972743Y-26605739D01*
X137972736Y-26605733D01*
X137780293Y-26458067D01*
X137780292Y-26458066D01*
X137780289Y-26458064D01*
X137570212Y-26336776D01*
X137570205Y-26336773D01*
X137346104Y-26243947D01*
X137111785Y-26181161D01*
X136871289Y-26149500D01*
X136871288Y-26149500D01*
X136628712Y-26149500D01*
X136628711Y-26149500D01*
X136388214Y-26181161D01*
X136153895Y-26243947D01*
X135929794Y-26336773D01*
X135929785Y-26336777D01*
X135719706Y-26458067D01*
X135527263Y-26605733D01*
X135527256Y-26605739D01*
X135355739Y-26777256D01*
X135355733Y-26777263D01*
X135208067Y-26969706D01*
X135086777Y-27179785D01*
X135086773Y-27179794D01*
X134993947Y-27403895D01*
X134931161Y-27638214D01*
X134899500Y-27878711D01*
X123267464Y-27878711D01*
X123144517Y-27709490D01*
X122977510Y-27542483D01*
X122786433Y-27403657D01*
X122575996Y-27296433D01*
X122351368Y-27223446D01*
X122118097Y-27186500D01*
X122118092Y-27186500D01*
X121881908Y-27186500D01*
X121881903Y-27186500D01*
X121648631Y-27223446D01*
X121424003Y-27296433D01*
X121213566Y-27403657D01*
X121104550Y-27482862D01*
X121022490Y-27542483D01*
X121022488Y-27542485D01*
X121022487Y-27542485D01*
X120855485Y-27709487D01*
X120855485Y-27709488D01*
X120855483Y-27709490D01*
X120795862Y-27791550D01*
X120716657Y-27900566D01*
X120609433Y-28111003D01*
X120536446Y-28335631D01*
X120499500Y-28568902D01*
X83500500Y-28568902D01*
X83463553Y-28335631D01*
X83422733Y-28210001D01*
X83390568Y-28111008D01*
X83390566Y-28111005D01*
X83390566Y-28111003D01*
X83283342Y-27900566D01*
X83267464Y-27878712D01*
X83144517Y-27709490D01*
X82977510Y-27542483D01*
X82786433Y-27403657D01*
X82575996Y-27296433D01*
X82351368Y-27223446D01*
X82118097Y-27186500D01*
X82118092Y-27186500D01*
X81881908Y-27186500D01*
X81881903Y-27186500D01*
X81648631Y-27223446D01*
X81424003Y-27296433D01*
X81213566Y-27403657D01*
X81104550Y-27482862D01*
X81022490Y-27542483D01*
X81022488Y-27542485D01*
X81022487Y-27542485D01*
X80855485Y-27709487D01*
X80855485Y-27709488D01*
X80855483Y-27709490D01*
X80795862Y-27791550D01*
X80716657Y-27900566D01*
X80609433Y-28111003D01*
X80536446Y-28335631D01*
X80499500Y-28568902D01*
X48013342Y-28568902D01*
X48068838Y-28361789D01*
X48100500Y-28121288D01*
X48100500Y-27878712D01*
X48068838Y-27638211D01*
X48006054Y-27403900D01*
X47913224Y-27179788D01*
X47791936Y-26969711D01*
X47644265Y-26777262D01*
X47644260Y-26777256D01*
X47472743Y-26605739D01*
X47472736Y-26605733D01*
X47280293Y-26458067D01*
X47280292Y-26458066D01*
X47280289Y-26458064D01*
X47070212Y-26336776D01*
X47070205Y-26336773D01*
X46846104Y-26243947D01*
X46611785Y-26181161D01*
X46371289Y-26149500D01*
X46371288Y-26149500D01*
X46128712Y-26149500D01*
X46128711Y-26149500D01*
X45888214Y-26181161D01*
X45653895Y-26243947D01*
X45429794Y-26336773D01*
X45429785Y-26336777D01*
X45219706Y-26458067D01*
X45027263Y-26605733D01*
X45027256Y-26605739D01*
X44855739Y-26777256D01*
X44855733Y-26777263D01*
X44708067Y-26969706D01*
X44586777Y-27179785D01*
X44586773Y-27179794D01*
X44493947Y-27403895D01*
X44431161Y-27638214D01*
X44399500Y-27878711D01*
X42000500Y-27878711D01*
X42000500Y-23874500D01*
X42020185Y-23807461D01*
X42072989Y-23761706D01*
X42124500Y-23750500D01*
X140875500Y-23750500D01*
X140942539Y-23770185D01*
G37*
%TD.AperFunction*%
%TD*%
M02*
