%TF.GenerationSoftware,KiCad,Pcbnew,10.0.4*%
%TF.CreationDate,2026-06-26T18:30:12+02:00*%
%TF.ProjectId,ad,61642e6b-6963-4616-945f-706362585858,rev?*%
%TF.SameCoordinates,Original*%
%TF.FileFunction,Soldermask,Bot*%
%TF.FilePolarity,Negative*%
%FSLAX46Y46*%
G04 Gerber Fmt 4.6, Leading zero omitted, Abs format (unit mm)*
G04 Created by KiCad (PCBNEW 10.0.4) date 2026-06-26 18:30:12*
%MOMM*%
%LPD*%
G01*
G04 APERTURE LIST*
G04 Aperture macros list*
%AMRoundRect*
0 Rectangle with rounded corners*
0 $1 Rounding radius*
0 $2 $3 $4 $5 $6 $7 $8 $9 X,Y pos of 4 corners*
0 Add a 4 corners polygon primitive as box body*
4,1,4,$2,$3,$4,$5,$6,$7,$8,$9,$2,$3,0*
0 Add four circle primitives for the rounded corners*
1,1,$1+$1,$2,$3*
1,1,$1+$1,$4,$5*
1,1,$1+$1,$6,$7*
1,1,$1+$1,$8,$9*
0 Add four rect primitives between the rounded corners*
20,1,$1+$1,$2,$3,$4,$5,0*
20,1,$1+$1,$4,$5,$6,$7,0*
20,1,$1+$1,$6,$7,$8,$9,0*
20,1,$1+$1,$8,$9,$2,$3,0*%
G04 Aperture macros list end*
%ADD10RoundRect,0.250000X0.725000X-0.600000X0.725000X0.600000X-0.725000X0.600000X-0.725000X-0.600000X0*%
%ADD11O,1.950000X1.700000*%
%ADD12C,1.600000*%
%ADD13RoundRect,0.250000X0.750000X-0.600000X0.750000X0.600000X-0.750000X0.600000X-0.750000X-0.600000X0*%
%ADD14O,2.000000X1.700000*%
%ADD15C,3.200000*%
%ADD16O,9.100000X3.800000*%
%ADD17RoundRect,0.250000X-0.550000X-0.550000X0.550000X-0.550000X0.550000X0.550000X-0.550000X0.550000X0*%
%ADD18C,6.451600*%
%ADD19R,1.600000X1.600000*%
%ADD20O,1.600000X1.600000*%
%ADD21RoundRect,0.250000X-0.725000X0.600000X-0.725000X-0.600000X0.725000X-0.600000X0.725000X0.600000X0*%
%ADD22RoundRect,0.250000X-0.550000X0.550000X-0.550000X-0.550000X0.550000X-0.550000X0.550000X0.550000X0*%
%ADD23RoundRect,0.250000X0.550000X-0.550000X0.550000X0.550000X-0.550000X0.550000X-0.550000X-0.550000X0*%
%ADD24R,2.000000X1.200000*%
%ADD25O,2.000000X1.200000*%
%ADD26C,2.000000*%
G04 APERTURE END LIST*
D10*
%TO.C,J13*%
X132500000Y-82000000D03*
D11*
X132500000Y-79500000D03*
X132500000Y-77000000D03*
X132500000Y-74500000D03*
%TD*%
D12*
%TO.C,J5*%
X50000000Y-50500000D03*
%TD*%
D13*
%TO.C,J10*%
X129750000Y-112500000D03*
D14*
X129750000Y-110000000D03*
%TD*%
D15*
%TO.C,REF\u002A\u002A*%
X136750000Y-28000000D03*
%TD*%
D16*
%TO.C,F1*%
X63750000Y-43500000D03*
X73250000Y-43500000D03*
%TD*%
%TO.C,F2*%
X63750000Y-33750000D03*
X73250000Y-33750000D03*
%TD*%
D17*
%TO.C,C1*%
X128000000Y-48437000D03*
D12*
X131500000Y-48437000D03*
%TD*%
D18*
%TO.C,J1*%
X50750000Y-35313000D03*
X51174180Y-42425000D03*
%TD*%
D19*
%TO.C,A1*%
X47300000Y-55527000D03*
D20*
X47300000Y-58067000D03*
X47300000Y-60607000D03*
X47300000Y-63147000D03*
X47300000Y-65687000D03*
X47300000Y-68227000D03*
X47300000Y-70767000D03*
X47300000Y-73307000D03*
X60000000Y-73307000D03*
X60000000Y-70767000D03*
X60000000Y-68227000D03*
X60000000Y-65687000D03*
X60000000Y-63147000D03*
X60000000Y-60607000D03*
X60000000Y-58067000D03*
X60000000Y-55527000D03*
X49840000Y-55527000D03*
X52380000Y-55527000D03*
%TD*%
D10*
%TO.C,J12*%
X134250000Y-65000000D03*
D11*
X134250000Y-62500000D03*
X134250000Y-60000000D03*
X134250000Y-57500000D03*
%TD*%
D10*
%TO.C,J9*%
X118475000Y-81250000D03*
D11*
X118475000Y-78750000D03*
X118475000Y-76250000D03*
%TD*%
D12*
%TO.C,J3*%
X59000000Y-50500000D03*
%TD*%
%TO.C,J4*%
X54500000Y-50500000D03*
%TD*%
D21*
%TO.C,J8*%
X70500000Y-84500000D03*
D11*
X70500000Y-87000000D03*
X70500000Y-89500000D03*
%TD*%
D22*
%TO.C,C5*%
X71500000Y-51597349D03*
D12*
X71500000Y-55097349D03*
%TD*%
D23*
%TO.C,U4*%
X119940000Y-102805000D03*
D12*
X122480000Y-102805000D03*
X125020000Y-102805000D03*
X127560000Y-102805000D03*
X127560000Y-95185000D03*
X125020000Y-95185000D03*
X122480000Y-95185000D03*
X119940000Y-95185000D03*
%TD*%
D15*
%TO.C,REF\u002A\u002A*%
X46250000Y-118500000D03*
%TD*%
%TO.C,REF\u002A\u002A*%
X136750000Y-118500000D03*
%TD*%
D17*
%TO.C,C10*%
X76500000Y-63500000D03*
D12*
X78500000Y-63500000D03*
%TD*%
D17*
%TO.C,C3*%
X98347349Y-53500000D03*
D12*
X101847349Y-53500000D03*
%TD*%
%TO.C,J6*%
X45500000Y-50500000D03*
%TD*%
D24*
%TO.C,U1*%
X80300000Y-69596560D03*
D25*
X80300000Y-72136560D03*
X80300000Y-74676560D03*
X80300000Y-77216560D03*
X80300000Y-79756560D03*
X80300000Y-82296560D03*
X80300000Y-84836560D03*
X80300000Y-87376560D03*
X80300000Y-89916560D03*
X80300000Y-92456560D03*
X80300000Y-94996560D03*
X80300000Y-97536560D03*
X80300000Y-100076560D03*
X80300000Y-102616560D03*
X80300000Y-105156560D03*
X80300000Y-107696560D03*
X80300000Y-110236560D03*
X80300000Y-112776560D03*
X80300000Y-115316560D03*
X105696320Y-115313840D03*
X105696320Y-112773840D03*
X105700000Y-110236560D03*
X105700000Y-107696560D03*
X105700000Y-105156560D03*
X105700000Y-102616560D03*
X105700000Y-100076560D03*
X105700000Y-97536560D03*
X105700000Y-94996560D03*
X105700000Y-92456560D03*
X105700000Y-89916560D03*
X105700000Y-87376560D03*
X105700000Y-84836560D03*
X105700000Y-82296560D03*
X105700000Y-79756560D03*
X105700000Y-77216560D03*
X105700000Y-74676560D03*
X105700000Y-72136560D03*
X105700000Y-69596560D03*
%TD*%
D23*
%TO.C,C6*%
X115000000Y-94750000D03*
D12*
X115000000Y-92750000D03*
%TD*%
D21*
%TO.C,J2*%
X70500000Y-62250000D03*
D11*
X70500000Y-64750000D03*
X70500000Y-67250000D03*
X70500000Y-69750000D03*
%TD*%
D15*
%TO.C,REF\u002A\u002A*%
X46250000Y-28000000D03*
%TD*%
D26*
%TO.C,U2*%
X82000000Y-28687000D03*
X82000000Y-46687000D03*
X122000000Y-46687000D03*
X122000000Y-28687000D03*
%TD*%
D10*
%TO.C,J7*%
X118750000Y-63750000D03*
D11*
X118750000Y-61250000D03*
X118750000Y-58750000D03*
%TD*%
M02*
