%TF.GenerationSoftware,KiCad,Pcbnew,10.0.4*%
%TF.CreationDate,2026-06-26T14:32:19+02:00*%
%TF.ProjectId,ad,61642e6b-6963-4616-945f-706362585858,rev?*%
%TF.SameCoordinates,Original*%
%TF.FileFunction,Paste,Top*%
%TF.FilePolarity,Positive*%
%FSLAX46Y46*%
G04 Gerber Fmt 4.6, Leading zero omitted, Abs format (unit mm)*
G04 Created by KiCad (PCBNEW 10.0.4) date 2026-06-26 14:32:19*
%MOMM*%
%LPD*%
G01*
G04 APERTURE LIST*
G04 Aperture macros list*
%AMRoundRect*
0 Rectangle with rounded corners*
0 $1 Rounding radius*
0 $2 $3 $4 $5 $6 $7 $8 $9 X,Y pos of 4 corners*
0 Add a 4 corners polygon primitive as box body*
4,1,4,$2,$3,$4,$5,$6,$7,$8,$9,$2,$3,0*
0 Add four circle primitives for the rounded corners*
1,1,$1+$1,$2,$3*
1,1,$1+$1,$4,$5*
1,1,$1+$1,$6,$7*
1,1,$1+$1,$8,$9*
0 Add four rect primitives between the rounded corners*
20,1,$1+$1,$2,$3,$4,$5,0*
20,1,$1+$1,$4,$5,$6,$7,0*
20,1,$1+$1,$6,$7,$8,$9,0*
20,1,$1+$1,$8,$9,$2,$3,0*%
G04 Aperture macros list end*
%ADD10RoundRect,0.250000X0.625000X-0.312500X0.625000X0.312500X-0.625000X0.312500X-0.625000X-0.312500X0*%
%ADD11RoundRect,0.250000X-0.412500X-0.650000X0.412500X-0.650000X0.412500X0.650000X-0.412500X0.650000X0*%
%ADD12RoundRect,0.250000X-0.625000X0.312500X-0.625000X-0.312500X0.625000X-0.312500X0.625000X0.312500X0*%
%ADD13RoundRect,0.250000X0.650000X-0.412500X0.650000X0.412500X-0.650000X0.412500X-0.650000X-0.412500X0*%
%ADD14RoundRect,0.250000X0.312500X0.625000X-0.312500X0.625000X-0.312500X-0.625000X0.312500X-0.625000X0*%
%ADD15RoundRect,0.250000X-0.312500X-0.625000X0.312500X-0.625000X0.312500X0.625000X-0.312500X0.625000X0*%
G04 APERTURE END LIST*
D10*
%TO.C,R2*%
X84000000Y-53037500D03*
X84000000Y-55962500D03*
%TD*%
D11*
%TO.C,C4*%
X128000000Y-37437000D03*
X131125000Y-37437000D03*
%TD*%
D10*
%TO.C,R13*%
X132500000Y-98100000D03*
X132500000Y-95175000D03*
%TD*%
D12*
%TO.C,R1*%
X109500000Y-94537500D03*
X109500000Y-97462500D03*
%TD*%
D13*
%TO.C,C9*%
X82000000Y-66062500D03*
X82000000Y-62937500D03*
%TD*%
D10*
%TO.C,R11*%
X130500000Y-91462500D03*
X130500000Y-88537500D03*
%TD*%
D14*
%TO.C,R5*%
X122500000Y-106250000D03*
X119575000Y-106250000D03*
%TD*%
D11*
%TO.C,C2*%
X128125000Y-41437000D03*
X131250000Y-41437000D03*
%TD*%
D10*
%TO.C,R3*%
X112750000Y-83000000D03*
X112750000Y-80075000D03*
%TD*%
D14*
%TO.C,R9*%
X122425000Y-109250000D03*
X119500000Y-109250000D03*
%TD*%
D12*
%TO.C,R19*%
X126000000Y-74500000D03*
X126000000Y-77425000D03*
%TD*%
%TO.C,R12*%
X126500000Y-88500000D03*
X126500000Y-91425000D03*
%TD*%
D11*
%TO.C,C8*%
X113125000Y-88000000D03*
X116250000Y-88000000D03*
%TD*%
D15*
%TO.C,R7*%
X119500000Y-112250000D03*
X122425000Y-112250000D03*
%TD*%
D10*
%TO.C,R4*%
X112750000Y-77212500D03*
X112750000Y-74287500D03*
%TD*%
D13*
%TO.C,C7*%
X119810000Y-92310000D03*
X119810000Y-89185000D03*
%TD*%
D12*
%TO.C,R18*%
X127237500Y-55037500D03*
X127237500Y-57962500D03*
%TD*%
%TO.C,R20*%
X126000000Y-80500000D03*
X126000000Y-83425000D03*
%TD*%
%TO.C,R17*%
X127237500Y-60325000D03*
X127237500Y-63250000D03*
%TD*%
%TO.C,R14*%
X123250000Y-88500000D03*
X123250000Y-91425000D03*
%TD*%
%TO.C,R6*%
X132500000Y-101500000D03*
X132500000Y-104425000D03*
%TD*%
D15*
%TO.C,R8*%
X119500000Y-115250000D03*
X122425000Y-115250000D03*
%TD*%
D12*
%TO.C,R10*%
X134000000Y-88500000D03*
X134000000Y-91425000D03*
%TD*%
M02*
