%TF.GenerationSoftware,KiCad,Pcbnew,10.0.4*%
%TF.CreationDate,2026-06-26T14:32:19+02:00*%
%TF.ProjectId,ad,61642e6b-6963-4616-945f-706362585858,rev?*%
%TF.SameCoordinates,Original*%
%TF.FileFunction,Soldermask,Top*%
%TF.FilePolarity,Negative*%
%FSLAX46Y46*%
G04 Gerber Fmt 4.6, Leading zero omitted, Abs format (unit mm)*
G04 Created by KiCad (PCBNEW 10.0.4) date 2026-06-26 14:32:19*
%MOMM*%
%LPD*%
G01*
G04 APERTURE LIST*
G04 Aperture macros list*
%AMRoundRect*
0 Rectangle with rounded corners*
0 $1 Rounding radius*
0 $2 $3 $4 $5 $6 $7 $8 $9 X,Y pos of 4 corners*
0 Add a 4 corners polygon primitive as box body*
4,1,4,$2,$3,$4,$5,$6,$7,$8,$9,$2,$3,0*
0 Add four circle primitives for the rounded corners*
1,1,$1+$1,$2,$3*
1,1,$1+$1,$4,$5*
1,1,$1+$1,$6,$7*
1,1,$1+$1,$8,$9*
0 Add four rect primitives between the rounded corners*
20,1,$1+$1,$2,$3,$4,$5,0*
20,1,$1+$1,$4,$5,$6,$7,0*
20,1,$1+$1,$6,$7,$8,$9,0*
20,1,$1+$1,$8,$9,$2,$3,0*%
G04 Aperture macros list end*
%ADD10RoundRect,0.250000X0.625000X-0.312500X0.625000X0.312500X-0.625000X0.312500X-0.625000X-0.312500X0*%
%ADD11RoundRect,0.250000X-0.412500X-0.650000X0.412500X-0.650000X0.412500X0.650000X-0.412500X0.650000X0*%
%ADD12RoundRect,0.250000X0.725000X-0.600000X0.725000X0.600000X-0.725000X0.600000X-0.725000X-0.600000X0*%
%ADD13O,1.950000X1.700000*%
%ADD14RoundRect,0.250000X-0.625000X0.312500X-0.625000X-0.312500X0.625000X-0.312500X0.625000X0.312500X0*%
%ADD15C,1.600000*%
%ADD16RoundRect,0.250000X0.650000X-0.412500X0.650000X0.412500X-0.650000X0.412500X-0.650000X-0.412500X0*%
%ADD17RoundRect,0.250000X0.312500X0.625000X-0.312500X0.625000X-0.312500X-0.625000X0.312500X-0.625000X0*%
%ADD18RoundRect,0.250000X0.750000X-0.600000X0.750000X0.600000X-0.750000X0.600000X-0.750000X-0.600000X0*%
%ADD19O,2.000000X1.700000*%
%ADD20C,3.200000*%
%ADD21O,9.100000X3.800000*%
%ADD22RoundRect,0.250000X-0.550000X-0.550000X0.550000X-0.550000X0.550000X0.550000X-0.550000X0.550000X0*%
%ADD23C,6.451600*%
%ADD24RoundRect,0.250000X-0.312500X-0.625000X0.312500X-0.625000X0.312500X0.625000X-0.312500X0.625000X0*%
%ADD25R,2.000000X1.905000*%
%ADD26O,2.000000X1.905000*%
%ADD27RoundRect,0.250000X-0.725000X0.600000X-0.725000X-0.600000X0.725000X-0.600000X0.725000X0.600000X0*%
%ADD28RoundRect,0.250000X-0.550000X0.550000X-0.550000X-0.550000X0.550000X-0.550000X0.550000X0.550000X0*%
%ADD29RoundRect,0.250000X0.550000X-0.550000X0.550000X0.550000X-0.550000X0.550000X-0.550000X-0.550000X0*%
%ADD30R,2.000000X1.200000*%
%ADD31O,2.000000X1.200000*%
%ADD32C,2.000000*%
%ADD33R,1.600000X1.600000*%
%ADD34O,1.600000X1.600000*%
G04 APERTURE END LIST*
D10*
%TO.C,R2*%
X84000000Y-53037500D03*
X84000000Y-55962500D03*
%TD*%
D11*
%TO.C,C4*%
X128000000Y-37437000D03*
X131125000Y-37437000D03*
%TD*%
D10*
%TO.C,R13*%
X132500000Y-98100000D03*
X132500000Y-95175000D03*
%TD*%
D12*
%TO.C,J13*%
X132500000Y-82000000D03*
D13*
X132500000Y-79500000D03*
X132500000Y-77000000D03*
X132500000Y-74500000D03*
%TD*%
D14*
%TO.C,R1*%
X109500000Y-94537500D03*
X109500000Y-97462500D03*
%TD*%
D15*
%TO.C,J5*%
X50000000Y-50500000D03*
%TD*%
D16*
%TO.C,C9*%
X82000000Y-66062500D03*
X82000000Y-62937500D03*
%TD*%
D10*
%TO.C,R11*%
X130500000Y-91462500D03*
X130500000Y-88537500D03*
%TD*%
D17*
%TO.C,R5*%
X122500000Y-106250000D03*
X119575000Y-106250000D03*
%TD*%
D11*
%TO.C,C2*%
X128125000Y-41437000D03*
X131250000Y-41437000D03*
%TD*%
D18*
%TO.C,J10*%
X129750000Y-112500000D03*
D19*
X129750000Y-110000000D03*
%TD*%
D10*
%TO.C,R3*%
X112750000Y-83000000D03*
X112750000Y-80075000D03*
%TD*%
D20*
%TO.C,REF\u002A\u002A*%
X136750000Y-28000000D03*
%TD*%
D17*
%TO.C,R9*%
X122425000Y-109250000D03*
X119500000Y-109250000D03*
%TD*%
D21*
%TO.C,F1*%
X63750000Y-43500000D03*
X73250000Y-43500000D03*
%TD*%
D14*
%TO.C,R19*%
X126000000Y-74500000D03*
X126000000Y-77425000D03*
%TD*%
D21*
%TO.C,F2*%
X63750000Y-33750000D03*
X73250000Y-33750000D03*
%TD*%
D22*
%TO.C,C1*%
X128000000Y-48437000D03*
D15*
X131500000Y-48437000D03*
%TD*%
D23*
%TO.C,J1*%
X50750000Y-35313000D03*
X51174180Y-42425000D03*
%TD*%
D14*
%TO.C,R12*%
X126500000Y-88500000D03*
X126500000Y-91425000D03*
%TD*%
D12*
%TO.C,J12*%
X134250000Y-65000000D03*
D13*
X134250000Y-62500000D03*
X134250000Y-60000000D03*
X134250000Y-57500000D03*
%TD*%
D11*
%TO.C,C8*%
X113125000Y-88000000D03*
X116250000Y-88000000D03*
%TD*%
D12*
%TO.C,J9*%
X118475000Y-81250000D03*
D13*
X118475000Y-78750000D03*
X118475000Y-76250000D03*
%TD*%
D15*
%TO.C,J3*%
X59000000Y-50500000D03*
%TD*%
%TO.C,J4*%
X54500000Y-50500000D03*
%TD*%
D24*
%TO.C,R7*%
X119500000Y-112250000D03*
X122425000Y-112250000D03*
%TD*%
D25*
%TO.C,U3*%
X136000000Y-36420000D03*
D26*
X136000000Y-38960000D03*
X136000000Y-41500000D03*
%TD*%
D27*
%TO.C,J8*%
X70500000Y-84500000D03*
D13*
X70500000Y-87000000D03*
X70500000Y-89500000D03*
%TD*%
D28*
%TO.C,C5*%
X71500000Y-51597349D03*
D15*
X71500000Y-55097349D03*
%TD*%
D10*
%TO.C,R4*%
X112750000Y-77212500D03*
X112750000Y-74287500D03*
%TD*%
D29*
%TO.C,U4*%
X119940000Y-102805000D03*
D15*
X122480000Y-102805000D03*
X125020000Y-102805000D03*
X127560000Y-102805000D03*
X127560000Y-95185000D03*
X125020000Y-95185000D03*
X122480000Y-95185000D03*
X119940000Y-95185000D03*
%TD*%
D20*
%TO.C,REF\u002A\u002A*%
X46250000Y-118500000D03*
%TD*%
%TO.C,REF\u002A\u002A*%
X136750000Y-118500000D03*
%TD*%
D16*
%TO.C,C7*%
X119810000Y-92310000D03*
X119810000Y-89185000D03*
%TD*%
D14*
%TO.C,R18*%
X127237500Y-55037500D03*
X127237500Y-57962500D03*
%TD*%
D22*
%TO.C,C10*%
X76500000Y-63500000D03*
D15*
X78500000Y-63500000D03*
%TD*%
D22*
%TO.C,C3*%
X126097349Y-29500000D03*
D15*
X129597349Y-29500000D03*
%TD*%
D14*
%TO.C,R20*%
X126000000Y-80500000D03*
X126000000Y-83425000D03*
%TD*%
D15*
%TO.C,J6*%
X45500000Y-50500000D03*
%TD*%
D14*
%TO.C,R17*%
X127237500Y-60325000D03*
X127237500Y-63250000D03*
%TD*%
D30*
%TO.C,U1*%
X80300000Y-69596560D03*
D31*
X80300000Y-72136560D03*
X80300000Y-74676560D03*
X80300000Y-77216560D03*
X80300000Y-79756560D03*
X80300000Y-82296560D03*
X80300000Y-84836560D03*
X80300000Y-87376560D03*
X80300000Y-89916560D03*
X80300000Y-92456560D03*
X80300000Y-94996560D03*
X80300000Y-97536560D03*
X80300000Y-100076560D03*
X80300000Y-102616560D03*
X80300000Y-105156560D03*
X80300000Y-107696560D03*
X80300000Y-110236560D03*
X80300000Y-112776560D03*
X80300000Y-115316560D03*
X105696320Y-115313840D03*
X105696320Y-112773840D03*
X105700000Y-110236560D03*
X105700000Y-107696560D03*
X105700000Y-105156560D03*
X105700000Y-102616560D03*
X105700000Y-100076560D03*
X105700000Y-97536560D03*
X105700000Y-94996560D03*
X105700000Y-92456560D03*
X105700000Y-89916560D03*
X105700000Y-87376560D03*
X105700000Y-84836560D03*
X105700000Y-82296560D03*
X105700000Y-79756560D03*
X105700000Y-77216560D03*
X105700000Y-74676560D03*
X105700000Y-72136560D03*
X105700000Y-69596560D03*
%TD*%
D14*
%TO.C,R14*%
X123250000Y-88500000D03*
X123250000Y-91425000D03*
%TD*%
D29*
%TO.C,C6*%
X115000000Y-94750000D03*
D15*
X115000000Y-92750000D03*
%TD*%
D27*
%TO.C,J2*%
X70500000Y-62250000D03*
D13*
X70500000Y-64750000D03*
X70500000Y-67250000D03*
X70500000Y-69750000D03*
%TD*%
D20*
%TO.C,REF\u002A\u002A*%
X46250000Y-28000000D03*
%TD*%
D32*
%TO.C,U2*%
X82000000Y-28687000D03*
X82000000Y-46687000D03*
X122000000Y-46687000D03*
X122000000Y-28687000D03*
%TD*%
D14*
%TO.C,R6*%
X132500000Y-101500000D03*
X132500000Y-104425000D03*
%TD*%
D24*
%TO.C,R8*%
X119500000Y-115250000D03*
X122425000Y-115250000D03*
%TD*%
D14*
%TO.C,R10*%
X134000000Y-88500000D03*
X134000000Y-91425000D03*
%TD*%
D12*
%TO.C,J7*%
X118750000Y-63750000D03*
D13*
X118750000Y-61250000D03*
X118750000Y-58750000D03*
%TD*%
D33*
%TO.C,A1*%
X47300000Y-55527000D03*
D34*
X47300000Y-58067000D03*
X47300000Y-60607000D03*
X47300000Y-63147000D03*
X47300000Y-65687000D03*
X47300000Y-68227000D03*
X47300000Y-70767000D03*
X47300000Y-73307000D03*
X60000000Y-73307000D03*
X60000000Y-70767000D03*
X60000000Y-68227000D03*
X60000000Y-65687000D03*
X60000000Y-63147000D03*
X60000000Y-60607000D03*
X60000000Y-58067000D03*
X60000000Y-55527000D03*
X49840000Y-55527000D03*
X52380000Y-55527000D03*
%TD*%
M02*
