M48
; DRILL file KiCad 10.0.4 date 2026-06-26T18:30:10
; FORMAT={-:-/ absolute / metric / decimal}
; #@! TF.CreationDate,2026-06-26T18:30:10+02:00
; #@! TF.GenerationSoftware,Kicad,Pcbnew,10.0.4
; #@! TF.FileFunction,Plated,1,2,PTH
FMAT,2
METRIC
; #@! TA.AperFunction,Plated,PTH,ViaDrill
T1C0.500
; #@! TA.AperFunction,Plated,PTH,ComponentDrill
T2C0.800
; #@! TA.AperFunction,Plated,PTH,ComponentDrill
T3C0.950
; #@! TA.AperFunction,Plated,PTH,ComponentDrill
T4C1.000
; #@! TA.AperFunction,Plated,PTH,ComponentDrill
T5C2.000
; #@! TA.AperFunction,Plated,PTH,ComponentDrill
T6C4.572
%
G90
G05
T1
X83.0Y-80.0
X84.5Y-83.0
X100.5Y-87.5
X107.0Y-57.5
X111.5Y-88.0
X124.0Y-80.5
X124.5Y-111.0
T2
X45.5Y-50.5
X47.3Y-55.527
X47.3Y-58.067
X47.3Y-60.607
X47.3Y-63.147
X47.3Y-65.687
X47.3Y-68.227
X47.3Y-70.767
X47.3Y-73.307
X49.84Y-55.527
X50.0Y-50.5
X52.38Y-55.527
X54.5Y-50.5
X59.0Y-50.5
X60.0Y-55.527
X60.0Y-58.067
X60.0Y-60.607
X60.0Y-63.147
X60.0Y-65.687
X60.0Y-68.227
X60.0Y-70.767
X60.0Y-73.307
X71.5Y-51.597
X71.5Y-55.097
X76.5Y-63.5
X78.5Y-63.5
X80.3Y-69.597
X80.3Y-72.137
X80.3Y-74.677
X80.3Y-77.217
X80.3Y-79.757
X80.3Y-82.297
X80.3Y-84.837
X80.3Y-87.377
X80.3Y-89.917
X80.3Y-92.457
X80.3Y-94.997
X80.3Y-97.537
X80.3Y-100.077
X80.3Y-102.617
X80.3Y-105.157
X80.3Y-107.697
X80.3Y-110.237
X80.3Y-112.777
X80.3Y-115.317
X98.347Y-53.5
X101.847Y-53.5
X105.696Y-112.774
X105.696Y-115.314
X105.7Y-69.597
X105.7Y-72.137
X105.7Y-74.677
X105.7Y-77.217
X105.7Y-79.757
X105.7Y-82.297
X105.7Y-84.837
X105.7Y-87.377
X105.7Y-89.917
X105.7Y-92.457
X105.7Y-94.997
X105.7Y-97.537
X105.7Y-100.077
X105.7Y-102.617
X105.7Y-105.157
X105.7Y-107.697
X105.7Y-110.237
X115.0Y-92.75
X115.0Y-94.75
X119.94Y-95.185
X119.94Y-102.805
X122.48Y-95.185
X122.48Y-102.805
X125.02Y-95.185
X125.02Y-102.805
X127.56Y-95.185
X127.56Y-102.805
X128.0Y-48.437
X131.5Y-48.437
T3
X70.5Y-62.25
X70.5Y-64.75
X70.5Y-67.25
X70.5Y-69.75
X70.5Y-84.5
X70.5Y-87.0
X70.5Y-89.5
X118.475Y-76.25
X118.475Y-78.75
X118.475Y-81.25
X118.75Y-58.75
X118.75Y-61.25
X118.75Y-63.75
X132.5Y-74.5
X132.5Y-77.0
X132.5Y-79.5
X132.5Y-82.0
X134.25Y-57.5
X134.25Y-60.0
X134.25Y-62.5
X134.25Y-65.0
T4
X82.0Y-28.687
X82.0Y-46.687
X122.0Y-28.687
X122.0Y-46.687
X129.75Y-110.0
X129.75Y-112.5
T6
X50.75Y-35.313
X51.174Y-42.425
T5
G00X61.2Y-33.75
M15
G01X66.3Y-33.75
M16
G05
G00X61.2Y-43.5
M15
G01X66.3Y-43.5
M16
G05
G00X70.7Y-33.75
M15
G01X75.8Y-33.75
M16
G05
G00X70.7Y-43.5
M15
G01X75.8Y-43.5
M16
G05
M30
